<svg xmlns="http://www.w3.org/2000/svg" xmlns:xlink="http://www.w3.org/1999/xlink" width="240" height="300" fill="none"><defs><path id="reuse-0" fill="#fff" d="M0 0h240v300H0z"/></defs><g clip-path="url(#a)"><g clip-path="url(#b)"><path fill="#fff" d="M118.2 298.2c-83 0-116.8-43.3-116.8-149.4 0-107.2 31.2-147 115.1-147 75.4 0 122 24.6 122 147 0 55-9.2 93-28.2 116.3-18.5 22.6-47.8 33.1-92 33.1z"/><path fill="#000" d="M44.2 154.4c-6.5-.2-13 0-19.4 0-7-.1-13.8 0-20.7-.2-.8.1-4.3-.4-3.4.8a1027.1 1027.1 0 0 0 38.2.1c1.6-.3 4.4.7 5.3-.3v-.4zM239.8 154.5c-5.6-.7-11.2 0-16.8-.2-12.6.2-25.1 0-37.7 0-.5 2 5 .2 6.6.9 15.6.2 31.2 0 46.7 0 .5-.1 1-.3 1.2-.7z"/><path fill="#000" d="M163.2 224c-7.2-.5-14.5.6-21.7 0-9.6.6-19-.5-28.6 0-7 0-14.2.8-21.4-.1-6.4-.1-12.9-.1-19.3-.3-6.4 0-12.8.5-19.3.4-4.7.1-12.2 1.2-9.7-6-.2-6 0-12.1-.3-18.2.2-4.2 0-8.7.1-13-.1-5.4.3-10.9.6-16.3-.7-6.6-.4-13-.4-19.6.4-5.4-.5-11 0-16.3-.4-4.8 0-9.6-.1-14.4.4-1.8-.7-12.7 2.4-7.8-.2 6.2-.6 12.4-.4 18.6-.6 8.3.6 16.6-.1 24.8 0 5.5.2 11.2.4 16.8-.7 9.6-.4 19.3-.5 29l.5 21.3c-2.6-2.9 6.8-.7 9-1 2.3.2 4.8-.2 7 0 6.8-.6 13.7 0 20.5-.2 3.8.2 7.5-.2 11.2-.1 4.3 1.1 8.7 0 13.1.3 4.7 0 9.3.3 14-.1 8 .2 16 .4 23.8.1 4.5.3 8.9-.1 13.3-.1 2.4.4 11-1.6 9.3 1.7-1 .6-2.3.6-3.4.5zM162.4 153c-.4-3-.4-6-.4-9.1-.2-3.9.5-7.7 0-11.5.3-3.6-.3-7.1.3-10.7-.5-1.5 0-5.1-.2-5.4-1.1-.3-4.2.3-4.2-.7 2.3-.4 6.5-.6 5.1 3.1.2 4-.3 8 .1 12 0 3.9.1 7.7-.1 11.5 0 3.7 0 7.5-.3 11.3-.1.8-.3-.3-.3-.5z"/><path fill="#000" d="M56 210c.3 1.6.3 3.3.2 5-.1.5-.3 1.2 0 1.8.3.4 1 .3 1.3.1 2.1-.2 4.2.3 6.2 0 .6 0 1.2 0 1.7.4.2.4-.7.3-1 .3-2.6.2-5.3-.1-8 .3-.5 0-1-.5-1.1-1.1-.2-1.1.3-2.2.1-3.3.1-1.1-.1-2.3.2-3.4.1-.2.3-.6.3-.2zM162.5 168.3c-.6-.8-.4-1.8-.3-2.8-.1-1 0-2.1 0-3.2-.2-.6.7-1.3.7-.4.1 1.2 0 2.3.2 3.4-.2 1 .2 2.3-.6 3zM185.7 91.2c0 1.3-.3 2.7-.2 4.2v4.5c0 .7 0 1.4.2 2.2 0 .7-.2 1.5.1 2.1v5.8c-.2 2 0 4-.1 6 .3 3.3 0 6.6.1 10l-.1 3c-.2 1 .1 2.1-.2 3v.4l.2 1c-.2 2-.2 2 0 3.5l-.2.7v2.6c0 .8-.1 1.6.2 2.3v3.3c0 1-.1 1.9.1 2.8.1.4-.2 1-.1 1.2l.1 1.3-.1 1.3.1 1v2.9c.2.9.2 1.7.2 2.6v2.8l-.2 2c0 .7.2 1.5-.1 2.1v.2l-.2 4.2v7.2c0 .7.1 1.4-.1 2v.7c-.2.6.3 1.2 0 1.8v3.8l.1 1.3c-.3.5 0 1.2-.2 1.8v.4a3 3 0 0 0-.7 1c0 .7-.4 1.2-.7 1.8-.4.8-1 1.7-1.2 2.6 0 .4-.3.8-.6 1.2l-.7 1-1 2.2c-.1.7-.7 1.3-.8 2 0 .2 0 .4-.2.5a6 6 0 0 0-1 2l-1 2-1.1 2.2c-.3.4 0 .8-.6 1.3l-.7 1.3c-.2.4-.4 1-.7 1.3-1.4 2.2-2.4 4.6-3.6 6.9-.6 1-.9 2-1.7 2.8 0 .7-.5 1.3-.8 2a.8.8 0 0 1-1.5-.3v-.1l-.1-.4-.1-1.3v-8.5l-.2-5.6.1-1.6c.2-.5.2-1.2 0-1.8 0 0-.1-.3 0-.4.3-1 0-2.1-.1-3.2l.2-6c0-.4 0-1-.2-1.3.2-.3.1-.6 0-1v-1.5c.2-.5.2-1 .2-1.4v-1.6l.1-6.5.2-1.3.1-1.3v-.9c0-1 .2-2.2 0-3.2s0-2-.3-2.9v-1c0-1.5.2-3-.1-4.4.2-.5.1-1.1.1-1.7 0-.4.1-1-.1-1.3v-.3c0-.5.2-1 .1-1.6l-.1-1.4c0-1.9.2-3.8.1-5.7.2-.6.2-1.2.2-1.8l-.2-3c0-1.1.1-2.2 0-3.2-.2-1.6 0-3.3-.1-5 0-.4-.1-.9.1-1.2v-.7c-.2-.3 0-.6-.1-.9-.2-.7.4-1.5 0-2.2v-6.1c.2-.3.2-1 .1-1.2-.2-.6-.1-1.3-.1-1.9V121l.1-2.5.1-2.6v-2.4l.1-1.2c0-1 .5-1.7 1-1.6l.3.3c.5 1 .5 1 .6 2.5 0 2-.3 3.8-.2 5.8-.3 1.2-.1 2.6-.2 3.9 0 1.3-.3 2.7-.1 4 .2 1.3.1 2.6.1 3.9l-.1 3v3c0 .7-.3 1.3-.2 2 .3 1.2 0 2.6.2 3.8.2 1.8 0 3.6.2 5.3v6.8c-.2.8 0 1.7 0 2.6 0 .6-.3 1.2-.2 1.6.2.5.1 1 .1 1.6v1.1c-.1.1-.2.5-.1.6.3.6.1 1.4.1 2v5c0 1.4.3 2.7.2 4 .3.9.1 1.8.1 2.7l-.1 2-.1 2c-.2 1 0 2 0 3 0 .5 0 1.1-.2 1.6v.4c.3.7.2 1.6.1 2.2-.2 1 0 2-.1 3v2.5l-.1 1.8v10.9c-.1 1.8.2 3.5 0 5.3.3.5.1 1 0 1.5 0 .4 0 1 .2 1.4v3.3c0 .5 0 1 .2 1.4-.4.9.2 1.7 0 2.5l-.1.9v1.1l-1.7-.5c.7-1.9 1.8-3.6 2.7-5.5l.2-.8.2-.4c.7-1 .7-1 1.1-2.1l.4-.8 1-2.2c.2-.8.8-1.5 1.3-2.2.4-.6.9-1.2 1.2-2l2.8-5.5.4-.6c0-.7 0-1.2.7-1.5l.2-.3c0-.6.3-1.1.6-1.6 1-2 1.7-4 2.8-6 .2-.2.3-.7.5-.8.4-.3.2-.7.4-1l.4-.7-.1.5v-.2c.3-1 .2-2 .1-3 0-.8-.2-1.7 0-2.5v-9.1c0-.7.2-1.4 0-2l-.1-.5.1-1.5-.1-1.4-.1-1.1v-1.3c.4-.9.6-1.8.6-3v-3c0-.5 0-1-.2-1.4v-1.6c.2-.8.2-1.5 0-2.3V148.7c0-.4 0-.9.2-1.2-.3-.3-.2-.8-.2-1.2l.2-1.7c0-.7 0-1.4-.2-2v-2.7c0-.8.2-1.6-.1-2.4v-.3c.3-.9 0-1.8 0-2.7-.1-1 .1-1.8.1-2.8v-3.2c.2-1.8.1-3.5.2-5.3v-5.4l-.2-2.4v-5.1l.1-1.1v-.4c-.2-.7-.1-1.4 0-2.1.1-.2 0-.5 0-.8V104c-.1-.5 0-1.2-.2-1.7v-.5c.4-1.1-.3-2.4 0-3.6-.2-.4.1-1 0-1.3v-3.1c0-1 0-1.9-.2-2.8l.1-1.3v-.4c0-1 .2-2.3.6-2.6.2-.1.5-.1.8 0l.2.8.5 1.5v2.2ZM136.6 85.6h-14.4c-3.7 0-5.1 4.4-7.6 6.5A468 468 0 0 1 99 109.4c-1.4 2.8-.2 6.1-.5 9.1.2 3.2-.4 6.5 0 9.6 1.2.2 2.5-.8 3.7.3 1.5-2 3.3 1.3 5-.7 3 .6 5.5 0 8.5.3 1.2-2.6.3-6.2.6-9.3.2-2.9-.3-6.1.3-8.8 5-5.6 9.9-11.4 14.7-17 2.2-1.9 3.7-4.4 5.7-6.5.3-.3 0-1-.4-.8z"/><path fill="#000" d="M179.2 87c-19.3 0-38.6.5-58 0-16 .5-32.1.2-48.2-.2-7.5 6.9-15.6 13.3-23.2 20.3-1.5 3.4-8.6 4.2-3 2.4 14.2.8 28.4-.2 42.6 0 14.3-.1 28.5.9 42.8.3l35.3-.1c2-4.5 8-11.8 11.6-17.1 1-2.6 8-9.6 4.3-2.9-5.5 6.8-9.8 14.7-15.7 21-9 1.4-18.6.5-27.8.8-14.7 0-29.3.1-44-.3-17.2 0-34.4.5-51.6.5-.6-4.6 8.6-8.2 11.8-12.5 5.7-4.7 11-10.2 17.3-14 8-.3 16.2-.1 24.2.2 20.2-.3 40.3 0 60.5 0 8.4 0 16.8-.5 25.3-.2 4.3 1.5-3.5 2.1-4.2 1.9zM29.7 87.4c4.1-.2 8 1.8 12 2.2 2.5.9 5.5.9 7.7 2.3-1.8.2-4-.6-5.9-.9-4.6-1.2-9.5-1.7-14-3.6h.1zM37.3 70.8c3.5 1.3 6 4.4 9.2 6.3l6.3 4.7c.6.5 1.8 2 .2 1-2.7-1.4-4.8-3.6-7.4-5-2.7-2.1-5.6-4.2-8.1-6.5 0 0-.5-.4-.2-.5ZM74.1 52.4c1 3.5 0 7.2.3 10.8-.3 2.3.5 5.5-.7 7.2-.6-2.8 0-5.6-.2-8.4 0-3.1-.1-6.3.5-9.3zM50.5 56.4c3 2.5 4.2 6.3 6.7 9.1 1.3 2 2.5 4 3.9 5.9.6 1.1.5 2-.5.5-1.8-2-2.9-4.4-4.6-6.4a84.1 84.1 0 0 1-5.3-8.4c0 .1-.7-1.2-.2-.7zM90.2 60.5c-.2 3-2.3 5.2-3.2 8-.9 1.5-1.3 3.9-2.7 4.9 0-1.8 1.3-3.4 1.8-5 1-2.7 2.2-5.4 3.8-7.7l.3-.2zM117.8 183.8c5.4-5.6 4.7-14 4.8-21.2 0-6.5-.8-14.4-7-18.2-5.9-3.5-13.6-3.8-20-1.3-5.2 2.3-8 7.7-8.6 13.2-1 7.3-1.2 15.1 1 22.3 2.6 7.5 11 10.5 18.4 10 4.2-.2 8.5-1.6 11.4-4.8m-26.5-39c6-5.2 15-5 22-2.6 5.3 2 9 7 9.5 12.5 1.1 7 .8 14 0 21a16 16 0 0 1-12.5 13.3c-8.3 1.8-18.7-.6-22.5-8.8a52 52 0 0 1-1.7-23.8c.6-4.2 1.9-8.7 5.2-11.7"/><path fill="#000" d="M102.7 139c-5.5.2-11.2 2.3-14.5 6.8a23.3 23.3 0 0 0-4 11.8c-.5 5.3 0 10.8.3 16.2.5 4 1.7 8.3 4.5 11.2 3.3 3.7 8.4 5.5 13.2 5.8 4.6.2 9.3.1 13.4-2 4.9-2.7 8-7.8 9-13 .7-4 .6-8.2.6-12.3-.2-5.5-.3-11.4-3.4-16.3-1.9-3.5-5.5-6.1-9.4-7-3.1-1-6.5-1.2-9.8-1.2m3.7 0c4.5.2 9.1 1.4 12.6 4.4 4.6 4.2 6 10.4 6.3 16.3.2 5 .2 10.1-.4 15.1-.7 4.4-2.5 8.8-6 11.7-3.2 3.3-8 4.5-12.6 4.4-5.3.4-11-.6-15.3-4-4.5-3.2-6.1-8.7-6.6-14-.5-7.1-1-14.5 1-21.5 1.3-4.2 4-8 7.9-10 4-2.3 8.7-2.8 13.1-2.5"/><path fill="#000" d="M108.2 177.2c-.4.7-.4 1.4-.1 2 .3.6 1 .9 1.5.7.4-.2.7-.6.7-1 .2-.6.1-1.3-.3-1.8s-1.4-.5-1.8.1zm1.4 2.9c.2.3.5.4.8.6.3.1.6.3.9.2.3 0 0 .4-.2.3h-.6c-.5-.2-.9-.4-1.2-.8l-1-.4a1.8 1.8 0 0 1 1-3.5c1 .1 1.7 1 1.7 1.8a1.8 1.8 0 0 1-1.4 1.8M100.6 176.6h2.5c.4-.2.6.3.5.6.1.4-.3.3-.2 0-.2-.5-.8-.3-1.1-.3-.2.4 0 1.1 0 1.6s-.3 1 0 1.4c.3 0 .7.2.3.3h-1.2c-.4-.1 0-.3.2-.3.3-.3 0-1 .1-1.4V177c-.4 0-1-.3-1.1.2 0 .3-.3.6-.3.2 0-.2 0-.8.3-.7zM104.8 176.9l.8 1.3c.3 0 .4-.6.6-.8.3-.3.3-.6 0-.7.3-.1.8-.2 1 0-.2.2-.5.3-.6.6l-.8 1.3c0 .4-.1 1 .2 1.3.3 0 .5.3.1.3H105c-.3-.2 0-.4.3-.3.2-.3 0-.8 0-1.2 0-.5-.5-.9-.7-1.3-.1-.4-.5-.5-.6-.7.2-.2.7 0 1-.1.6 0 .1.2-.1.3M96.5 176.6c.3 0 .2.4 0 .2-.4 0-.3.6-.3.8v2.2c0 .2.7 0 .4.3h-1c-.4.1-.4-.2 0-.2.3 0 .1-.5.1-.7V177c0-.2-.7-.1-.3-.4h1.1M114.3 176.9c-.2 0-.7-.2-.3-.3h1c.3.1 0 .3-.3.2-.3.3 0 .8 0 1.2l-.1 1.4c-.2.6-.8.8-1.4.8-.5 0-1.1 0-1.4-.5-.2-.4-.1-.9-.2-1.3V177c-.1 0-.6-.1-.3-.3h1.1c.4 0 .2.3-.1.2-.3.2 0 .7-.1 1v1.5c0 .5.6.6 1 .6.5 0 1-.1 1.1-.6v-2.4M116.1 177v1.1c.4 0 .8.2 1 0 0-.2.2-.6.3-.3v1c-.2.3-.2-.3-.4-.3h-.8v1.2c.1.3.5 0 .8.2.4 0 .6-.2.6-.6.1-.4.4 0 .3.3 0 .2 0 .6-.4.6h-2.1c-.3 0-.2-.3 0-.3.4 0 .2-.4.2-.7v-2.1c0-.4-.5 0-.4-.4h2.2c.4 0 .2.4.3.7 0 .4-.4 0-.3-.3 0-.3-.4-.2-.7-.2h-.5M92.1 176.9v2.8c.4.4 1.1.2 1.6 0 .7-.5.8-1.7.3-2.4-.5-.5-1.3-.5-1.9-.4m-1-.1c.5-.4 1.1 0 1.7-.2.8 0 1.8.4 2 1.2.4 1.1-.6 2.5-1.8 2.4-.5-.1-1.4.1-1.7-.2.6-.2.2-.8.3-1.3V177c0-.2-.3-.3-.5-.2zM99 178.2c.5-.3.3-1.2-.3-1.3-.3-.1-.6 0-.5.4.1.3-.2 1 .3 1h.5zm-.7.4c0 .4-.2 1 0 1.3.2 0 .7.1.3.3h-1c-.3 0-.4-.3-.1-.3.5-.1.1-.8.2-1.1v-1.9c0-.1-.6 0-.3-.3h1.2c.5 0 1 .2 1.2.7.2.5-.2 1-.6 1.2h-1zM102.8 184.2h.4c-.1-.1-.2-.6-.3-.3l-.1.3zm.3-1 .7 1.7c.2 0 .2.3 0 .2l-.6-.1c.4-.1.1-.5 0-.6-.4-.1-.6.1-.7.4 0 .1.3.1.1.3-.1 0-.7 0-.3-.2l.3-.7.4-1h.1M107 183.4c-.3 0-.2.4-.2.6v.9c.1 0 .4.2.1.2h-.6c0-.3.2-.2.2-.4v-1.2s-.4-.2-.1-.2c.2 0 .5-.2.6 0zM108.5 183.3c.1.1 0 .6-.1.2-.3-.4-1 .2-.5.4.4.1 1 .4.7 1-.2.3-.9.4-1.1 0-.2-.1 0-.5.1-.2.2.4.9.3.7-.1-.2-.5-1-.3-.8-1 0-.3.5-.4.8-.3h.2M105.1 184c.5-.2-.4-1-.4-.3 0 .3.2.6.4.4m.2.1c0 .3.6.6.4.9-.4 0-.5-.5-.7-.8-.5 0-.3.5-.1.7-.2.1-.9.2-.6-.2v-1.3c-.3-.4.4-.2.6-.2.5-.2 1 .6.4.9zM101.7 183.8c0-.3-.6-.5-.5 0 0 .1.1.5.4.3l.1-.3m-1-.5c.4 0 .9-.1 1.2.1.3.3 0 .8-.3.9-.3 0-.4.2-.4.4s.5.3.2.4h-.7c.1-.2.3-.3.2-.6v-1c0-.1-.3 0-.2-.2M105.4 143.8c.3-.1.3.3.1.3-.2 0-.2-.3 0-.3ZM106 144c.2 0 .2.2 0 .2s-.2-.2 0-.3ZM104.8 144.2c.3 0 .3.3.1.3-.1 0-.3-.3 0-.3ZM104.1 144.4v.3c-.3 0-.3-.3 0-.3ZM105.8 144.6c.2 0 .2.2 0 .3-.2 0-.3-.3 0-.3ZM107.2 145c-.2.1-.4-.1-.3-.3 0 0 .1-.1.2 0l.1.2ZM105 145c-.1 0-.3-.1-.2-.3.1-.2.4 0 .2.2ZM103.3 144.8c.2 0 .2.4 0 .4s-.2-.4 0-.4ZM106.4 144.9c.2 0 .2.3 0 .3-.2.1-.2-.3 0-.3ZM104.2 145.2s-.1-.2 0-.2c0 0 0-.1.1 0 0 0 .1 0 0 0l-.1.2ZM105.3 145.2c0 .3-.4.2-.3 0 .1-.2.3 0 .3 0ZM107.1 145.3v-.2h.3c0 .2-.1.4-.3.2ZM105.8 145.1c.1 0 .1.3 0 .4-.3 0-.3-.4 0-.4ZM104.3 145.4c.2 0 .3.3 0 .3-.1 0-.2-.3 0-.3ZM105.3 145.7c-.2-.1 0-.4.1-.2.1.1 0 .3-.1.2ZM103 145.5h.2v.2c0 .2-.3 0-.3-.2M106.7 145.5c.2 0 .2.2 0 .2-.1 0-.2-.2 0-.2ZM107.6 145.5c.2 0 .2.3 0 .3v-.3ZM107.3 145.7v.3c-.2 0-.2-.3 0-.3ZM104.8 145.8c.3 0 .3.4 0 .4-.1 0-.2-.4 0-.4ZM106.1 145.8c.3 0 .3.3 0 .3v-.3ZM103.3 146c.3 0 .2.4 0 .4s-.3-.3 0-.4ZM107.2 146.1v.4c-.3 0-.2-.4 0-.4ZM102.4 146.5c0 .2-.4.1-.3-.2.1-.1.3 0 .3.2ZM106 146.3c.2 0 .3 0 .3.2l-.1.2c-.2 0-.2-.3-.1-.4ZM101.4 146.5c.2 0 .3.3.1.4-.1 0-.2-.3 0-.4ZM108.3 146.6c.1.2 0 .5-.2.4-.1-.2 0-.4.2-.4ZM107.4 146.7c.1 0 0 .4-.1.3l.1-.3ZM101.9 146.7c.2 0 .2.4 0 .3-.2 0-.2-.2 0-.3ZM103.1 147.2c0-.2.2-.5.3-.3.1.2 0 .5-.3.3ZM100.9 147c.1-.2.4 0 .3.2h-.3v-.3M107.1 147.2c.1.2-.2.3-.2.1 0-.1.1-.2.2-.1ZM107.9 147.2c0 .2-.3.3-.3.1h.3ZM102.9 147.3c.2 0 .2.3 0 .3s-.2-.3 0-.3ZM102.4 147.3v.3c-.2 0-.2-.1-.2-.2l.2-.1ZM104.8 147.7s-.2 0-.2-.2.4-.1.2.2ZM108.8 147.4l-.1.3-.2-.1c0-.2.2-.3.3-.2ZM101.2 147.5c.1.1-.2.4-.3.2 0-.2.1-.3.3-.2ZM108.3 148c-.3 0-.4-.3-.2-.4h.2v.3ZM101.9 147.8c.1-.1.3 0 .3.2-.1.1-.4 0-.3-.2ZM101.3 147.8c.2 0 .3.1.2.2 0 .1 0 .1-.1 0-.2 0-.1 0 0-.2ZM105.1 148.2c0-.1 0-.3.2-.3s0 .4-.2.3ZM108.1 148H108.4v.3h-.3v-.3ZM100.3 148.3c-.2 0 0-.3 0-.3.3 0 .2.5 0 .3ZM108.8 148.2c.2 0 .3.2.2.3-.2.2-.5-.2-.2-.3ZM101.1 148.5c-.2 0-.3-.2-.1-.3.2-.1.2.2.1.3ZM103.6 148.3c.3 0 .4.3.1.3-.1 0-.2-.2 0-.3ZM107.7 148.3v.3c0 .1-.2.1-.2 0-.2-.1 0-.3.2-.3ZM100.1 148.5c0 .1 0 .2-.2.2l-.1-.1c0-.3.2-.3.3-.1M102.2 148.7c-.2-.1 0-.4.2-.3v.3h-.2ZM105.3 148.7c-.2 0-.3-.1-.2-.3h.2v.3M107 148.7l-.2.1-.2-.1v-.2c.3-.2.4 0 .4.2M103 148.8c.2 0 .2 0 .2.2s-.4-.1-.2-.2ZM108.6 149l-.1.2h-.1c0 .1-.2 0-.2 0s0-.3.2-.3l.2-.1h.2c.1 0 .1.1 0 .2l-.2.1M101 148.8v.3h-.3c-.2 0 0-.3.2-.3ZM102.4 149s0 .3-.2.3-.2-.6.2-.4ZM106.2 149.2c-.3-.3.2-.4.3-.2 0 .2-.2.3-.3.2ZM107.5 149c.2.1 0 .4-.2.2 0-.2 0-.3.2-.3ZM100.1 149v.3l-.3-.1c0-.2.2-.3.3-.2ZM109.2 149.2l.1-.2c.1 0 .3 0 .2.2 0 .1-.2.2-.3 0ZM104.3 149.2s-.2.2-.3.1v-.2h.3ZM108 149.2v.3h-.2c-.1-.2 0-.4.2-.3ZM103 149.5c0-.3.4-.2.2 0 0 .1-.1 0-.2 0ZM101.6 149.4c.3 0 .3.3.1.4-.2 0-.2-.3 0-.4ZM110 149.4c0 .2 0 .4-.2.4-.2-.1-.1-.4.1-.4ZM109 149.6c0 .3-.5.2-.3 0l.1-.1.2.1ZM106.3 149.5c.2-.1.3.3 0 .4l-.2-.1c0-.1 0-.2.2-.3ZM101 149.8v-.3l.3.1c0 .2-.3.4-.4.2ZM103.9 149.8h-.2v-.2c.2 0 .3.1.2.2ZM100.3 150v-.3s0-.1.2 0v.1c0 .2 0 .2-.2.2ZM102.5 150v-.3h.1v.2h-.1ZM107.3 149.7c.2-.1.2.3 0 .3s-.2-.3 0-.3ZM103.5 149.7c0 .4-.4.2-.2 0h.2ZM108.2 150v-.2h.2l.1.2c0 .2-.3.2-.3 0ZM99 150.3l-.2-.1v-.3c.3-.1.3.3.2.4ZM106.7 150.2c0-.2 0-.4.2-.3.2.2 0 .4-.2.3ZM109.3 150.3v-.1c-.1 0-.1-.1 0-.2h.1c.2.1 0 .3-.1.3ZM99.6 150.3h-.1v-.2s0-.1 0 0c.2 0 .3.2.1.2ZM110.1 150c.2.2 0 .5-.2.4-.2 0 0-.4.2-.4ZM100.2 150.4c-.2 0-.3-.2-.2-.3.2-.1.4.1.2.3ZM107.7 150c.3.3-.2.5-.2.3 0-.1 0-.2.2-.2ZM104.2 150.2c0 .2-.3.3-.3.1 0-.2.2-.3.3-.1ZM104.8 150.5c-.2.1-.4 0-.3-.3h.2l.1.3ZM108.5 150.5s-.2-.1 0-.2c0-.1.1-.1.2 0 .1 0 0 .3-.2.2ZM102.8 150.3v.2c-.4 0-.3-.4 0-.2ZM101.4 150.5s0-.3.2-.2c.1.1 0 .4-.2.2ZM98.6 150.7c-.1 0-.2 0-.3-.2 0 0 0-.2.2-.2l.2.1v.3ZM110.6 150.4c.2 0 .3.2.2.4-.2.1-.5-.3-.2-.4ZM102 150.6h.1v.2h-.1c-.1 0 0-.1 0-.2ZM99.9 150.6c.2 0 .2.4 0 .3v-.3ZM103 150.7c0 .2-.2.3-.3.1 0-.1.2-.2.2 0ZM107.5 150.7c.1.2 0 .3-.2.3s0-.5.2-.3ZM104.4 151v-.3h.1c.1.2 0 .3-.1.3ZM98.6 150.8c.2 0 .3.2.1.3h-.1v-.3ZM99.4 151h-.2v-.2h.3v.3M101.2 150.9l-.2.1s-.1 0 0-.2h.2ZM108.8 151.2c-.2 0-.2-.1-.2-.3h.3v.3ZM110.3 151l-.1.3-.3-.1c-.2-.3.2-.3.4-.2M102.1 151v.3c-.3 0-.3-.4 0-.4ZM107.9 151.3v-.2c0-.1.1-.2.2-.1.3 0 0 .5-.2.3ZM102.6 151.4l-.2-.1c0-.1 0-.2.2-.2v.3ZM104 151.2c.2 0 .1.3 0 .3-.2 0-.2-.2 0-.3ZM101 151.5h-.2v-.2h.2v.2ZM99.4 151.4c.2-.1.3.2.2.3-.2 0-.3-.2-.2-.3ZM97 151.6c0-.2.2-.3.3-.1v.2H97ZM110.7 151.8l-.3-.1.1-.3c.2 0 .3.3.2.4M105 151.5v.2c-.3 0-.2-.4 0-.2ZM111.1 151.5c.2 0 .3.3.1.4h-.2l.1-.4M104.4 151.5v.3c-.2 0-.1-.3 0-.3ZM99.1 151.8s-.1.2-.2 0c0 0-.1-.1 0-.2 0-.1.2 0 .2.2ZM96.5 152c-.2 0-.3-.1-.2-.3 0 0 0-.1.1 0h.2l-.1.3ZM97.8 151.7c0 .1 0 .2-.2.2 0-.2.1-.4.2-.2ZM98.5 151.7c.1.1 0 .4-.2.2-.1-.1 0-.3.2-.2ZM100.2 152v-.3c.2 0 .2.3 0 .3ZM101.1 151.7c.2 0 .2.2.1.3-.1 0-.3-.2-.1-.3ZM110.4 152.2l-.3-.1c0-.1 0-.2.2-.2s.2.3 0 .3ZM99.8 152.3c-.3.1-.2-.4 0-.4.1 0 .2.3 0 .4ZM109.7 152c.3 0 .4.4 0 .5-.1 0-.2-.4 0-.4ZM97.9 152.2v.1l-.1.2v-.3h.1ZM100.6 152.6l-.2-.3.2-.2c.2.1.2.4 0 .5ZM98.7 152.4c0-.2.2-.3.3-.2.1.1-.2.4-.3.2ZM101.2 152.5s-.1-.2 0-.2c0 0 .1-.1.2 0v.2h-.2ZM96.2 152.6c-.1-.2 0-.3.2-.3.3.2 0 .5-.2.3ZM105.6 152.4v.3l-.2-.1c0-.1.1-.4.2-.2ZM99.5 152.4v.4c.2.1 0 .3-.2.1v-.5c0-.1 0 0 .2 0ZM112.5 152.4c.1.1 0 .4 0 .4-.3 0-.4-.5 0-.4ZM110.8 152.6c.1.1 0 .4-.3.3-.1-.1 0-.4.3-.3ZM100.7 152.6v.3h-.2l-.1-.2h.3ZM113 152.6c.2 0 .2.3 0 .4h-.2l.1-.4ZM101.4 153c-.1 0-.3-.2-.2-.3.2-.1.3 0 .2.2ZM112 152.7c.2.1 0 .4-.3.2 0-.1 0-.2.3-.2ZM100 152.8c.3 0 .3.3 0 .3 0 0-.2-.3 0-.3ZM96.6 153c.3-.2.3.3 0 .2v-.3ZM104.1 153.2v-.3c.3 0 .3.5 0 .3ZM108.6 153.4c-.2 0-.4-.2-.2-.4h.3v.4ZM111.3 153.2l.1-.2.2.1-.1.2h-.1l-.1-.1ZM101 153.2c-.1.2-.3 0-.2-.1 0 0 0-.1.1 0l.1.1ZM107.3 153c.3 0 .3.4 0 .4 0 0-.1-.3 0-.4ZM98.9 153.4l.1-.4c.2 0 .2.2.2.3 0 0-.2.2-.3.1ZM113.6 153c0 .2.1.3 0 .4 0 0-.2.2-.3 0v-.2l.3-.1ZM106.4 153.5V153.2s.1-.1.2 0c.1 0 .2.1.1.2l-.3.1M109.1 153.5c0-.2.1-.5.3-.3v.3h-.3ZM98 153.3c.1-.3.3.2 0 .2 0 0-.1-.1 0-.2ZM110.4 153.3v.3h-.3c-.2-.2 0-.5.3-.3ZM100.6 153.5s-.3 0-.2-.2h.2v.2ZM113.8 153.8s-.2 0-.2-.2v-.2h.3c.3 0 0 .4-.1.4ZM112.9 153.4c.3 0 .3.4 0 .4-.2 0-.2-.4 0-.4ZM99.9 153.8v-.3h.2c0 .2 0 .3-.2.3ZM108.1 153.8h-.2v-.2c0-.3.3 0 .2.2ZM100.8 153.6c.2-.1.3.1.2.2-.2.1-.2-.1-.2-.2ZM109.6 153.6c0 .2 0 .3-.2.3s-.1-.5.2-.3ZM111.2 154c0-.1-.2-.2-.1-.3l.2-.1c.2 0 .1.3-.1.3ZM102.6 154c-.2 0-.2-.3-.1-.4.2-.1.3.2.1.3ZM99 154c-.1 0-.2-.2-.1-.3 0-.1.2-.1.2 0 .1 0 0 .4-.2.4ZM101.6 153.7c0 .2-.3.2-.3 0 0 0 .2-.2.3 0ZM107.3 154v-.3h.2v.2h-.2ZM112.2 153.8v.3h-.4v-.4h.4ZM98.3 153.7c.2 0 .1.4-.1.3v-.3ZM110.9 153.8c0 .1 0 .4-.3.3 0 0-.1-.2 0-.2 0-.1.1-.2.3-.2ZM101.9 153.9c.2 0 .2.3 0 .3s-.1-.3 0-.3ZM106.1 154.2v-.3h.3v.3c0 .2-.2 0-.3 0ZM112.7 154.2h-.3v-.2s.1-.1.2 0l.1.2ZM99.7 154.2c0 .2-.4.2-.4 0l.1-.2c.1 0 .3 0 .3.2ZM103 154l-.1.3c-.3 0-.2-.4 0-.3ZM100.7 154.3v-.3c.2-.1.4.4 0 .3ZM97.5 154.1c.1-.1.4 0 .4.1 0 .2-.4.2-.4 0ZM107 154.3c-.1 0-.1-.2 0-.2h.2c.1.2-.1.4-.3.3ZM113.8 154.2h.3c.1 0 .1.2 0 .2-.2.3-.5-.1-.3-.2ZM109.2 154.4c-.1-.3.4-.4.3 0h-.3ZM108 154.4s-.1.2-.2.1v-.2c0-.2.3 0 .2.1ZM111.4 154.3v.3h-.2v-.3h.2ZM103.6 154.6l.1-.3v.2ZM112.8 154.3c.2 0 .3.3 0 .4-.2 0-.3-.3 0-.4ZM103 154.4c.2 0 .2.3 0 .3-.1 0-.2-.2 0-.3ZM100.3 154.8c0-.1-.2-.2-.1-.3h.2l.1.1-.2.2ZM101.6 154.8c-.2 0-.2-.3 0-.4.2 0 .2.3 0 .4ZM106.4 154.5c.1 0 .2.3 0 .3-.1.1-.3-.2 0-.3ZM109 154.6c.2 0 .2.4 0 .4s-.3-.4 0-.4ZM102 155c-.1-.2.2-.4.3-.2 0 .2-.1.3-.3.2ZM111.9 154.8c.2 0 .3.2.1.4-.1.2-.4-.3-.1-.4ZM105.8 154.9c.3-.1.3.3 0 .3v-.3ZM101.1 154.9c.2-.1.3.2 0 .2v-.2ZM110.2 154.9c.2 0 .2.3 0 .3s-.3-.3 0-.3ZM108 155.2c-.1 0-.2-.3 0-.3.3 0 .2.3 0 .3ZM111.4 154.9v.3c-.2 0-.3-.4 0-.3ZM100.5 155c.2-.1.3.1.1.2-.1.2-.3-.2 0-.3ZM102.9 155v.2h-.2c-.2 0 0-.3.2-.2ZM98.8 155v.3h-.2c-.1-.2 0-.3.2-.3ZM107.4 155c.2 0 .3.5 0 .5-.2 0-.2-.4 0-.4ZM106.5 155.5c-.2 0-.4-.2-.2-.3.2-.1.3.1.2.3ZM108.6 155.5s-.2 0-.2-.2l.2-.1.1.1-.1.2ZM99.4 155.3c0 .1 0 .3-.2.2V155.2h.2ZM102.2 155.2c.3 0 .2.4 0 .3v-.3ZM98.2 155.5H97.9s-.1-.2 0-.2c.1-.2.3 0 .3.2M105.4 155.2v.3h-.2c-.1-.1 0-.3.2-.3ZM110.8 155.4c0-.1.2-.3.3 0l-.1.2c-.2 0-.2-.1-.2-.2ZM112.2 155.5v-.3l.3.1c.1.2-.1.4-.3.2ZM104.7 155.6l-.1-.1.1-.2h.1l-.1.3ZM110.3 155.4c.2 0 0 .4 0 .4-.3 0-.4-.4 0-.4ZM109 155.5c.2 0 0 .3-.1.2 0-.2 0-.3.2-.2ZM101.8 155.5c.2 0 .2.3 0 .3-.1 0-.2-.3 0-.3ZM106.7 155.5c.2 0 .2.3 0 .3-.1 0-.2-.2 0-.3ZM101.3 155.9c-.2 0-.3-.1-.3-.3.2-.1.4 0 .3.3ZM104.9 155.7c.2 0 .3.2.1.4h-.3c0-.1 0-.3.2-.4ZM106.2 155.8c0 .2-.3.3-.3.1 0-.1.2-.2.3 0ZM97.1 156c-.1.2-.3 0-.2-.2.2-.1.3.1.2.3ZM108.2 156l-.2.2s-.2-.1-.1-.2l.1-.2h.2v.1ZM111.2 155.8c.2-.1.3.3 0 .3-.1 0-.2-.2 0-.3ZM98.2 156l-.1.1-.2-.1v-.2c.2 0 .3 0 .3.2ZM102.8 156v-.1h.3c.1 0-.1.3-.3.2ZM108.6 155.9h.2l-.1.2c-.2 0-.3-.2-.1-.2ZM99.1 156.1c-.1.2-.4-.1-.2-.2h.2c.1 0 0 .2 0 .2M112.3 156.3s-.2 0-.2-.2v-.2h.3c.1.2 0 .3 0 .4ZM107 155.9c.2 0 .2.3 0 .3-.1 0-.2-.2 0-.3ZM105.4 156c.2-.3.3.2 0 .2 0 0-.1-.1 0-.2ZM96.6 156v.3c-.2 0-.3-.4 0-.3ZM97.5 156.3h-.1c0-.4.4-.1.1 0ZM102.2 156.4c-.2 0-.4-.2-.2-.3.2-.2.3.1.2.3ZM98.3 156c.2 0 .3.3 0 .3 0 0-.1-.2 0-.2ZM103.3 156.4v-.1c0-.1 0-.2.2-.1v.2h-.2ZM106.3 156.1c.2 0 .2.4 0 .4-.1 0-.2-.3 0-.4ZM108 156.7l-.2-.1.1-.3.2.1v.3ZM107 156.6s.1-.4.3-.3v.3c0 .1-.1 0-.2 0ZM111.9 156.3c.3 0 .2.5 0 .5-.3 0-.2-.4 0-.5ZM98.9 156.6v.2c0 .1 0 .2-.2.2-.1 0-.2-.3 0-.3v-.3h.2v.2ZM96.4 156.8H96v-.3h.3v.3M98 156.6c0 .2-.3.1-.3 0 0-.2.3-.2.3 0ZM109.8 156.5c.2 0 .2.2.1.3-.2.2-.5-.3-.1-.3ZM99.3 156.5c.2 0 .2.2.1.3-.1.2-.3-.2 0-.3ZM103.2 156.8v-.2c.4 0 .3.4 0 .2ZM102.7 156.9l.1-.3.1.1v.2c0 .1-.1 0-.2 0ZM106 156.8c0-.2.3-.1.3 0l-.2.2-.1-.2ZM110.4 156.8l-.1.2c-.2 0-.2 0-.2-.2s.3-.2.3 0ZM102.1 157c-.1 0-.4-.2-.2-.3h.2v.3ZM99.7 157v-.3l.2.2-.2.1ZM106.7 157c-.1 0 0-.4.2-.2v.2h-.2ZM108.3 156.8c0 .2-.1.5-.3.3v-.3h.3ZM97.5 156.8v.3c-.2 0-.3-.4 0-.3ZM109.3 157.2h-.1v-.3h.1v.3ZM101.3 157c0 .3-.5.3-.3 0h.3ZM108.6 157c.4 0 0 .6-.2.3 0-.2 0-.3.2-.3ZM96.3 157c.3 0 .2.5 0 .4-.3 0-.2-.3 0-.3ZM97 157.4c-.2 0-.2-.2-.2-.3.2-.2.3.2.2.3ZM103.6 157.1c.1.1 0 .4-.2.2 0 0 0-.3.2-.2ZM103.2 157.1v.3l-.3-.1c0-.2.2-.3.3-.2ZM103.9 157.3v-.2l.2.1v.2h-.2ZM100.2 157.1c.2 0 .1.4 0 .4-.2 0-.3-.4 0-.4ZM111 157.2h.3v.3c-.2.2-.4-.1-.2-.3ZM105.9 157.2c.2 0 .2.3 0 .3s-.2-.2 0-.3ZM110.4 157.6s-.2-.2-.1-.3h.2s.1 0 0 .2c0 0 0 .1-.1 0ZM107.2 157.3c.2 0 .3.5 0 .4-.3 0-.2-.4 0-.4ZM101.5 157.3c.2 0 .2.4 0 .3-.2 0-.2-.3 0-.3ZM106.4 157.6v-.3h.3v.3h-.3ZM113.5 157.7v-.3h.3v.4l-.3-.1ZM97.7 157.4c.1 0 0 .2 0 .2-.2 0-.2 0-.2-.2h.2ZM98.1 157.4c.2-.1.2.3 0 .3v-.3ZM102.5 157.5c0 .2-.3.2-.3 0s.3-.2.3 0ZM98.8 157.4c.2 0 .4.2.2.3-.1 0-.3-.2-.2-.3ZM109.4 157.4v.2c-.2.2-.3-.2 0-.2ZM114.2 158c-.1-.2-.2-.3-.1-.4h.3s.1 0 0 .2l-.2.1ZM97.1 157.9l-.2-.1v-.3l.3.1v.3ZM102 157.6c.1 0 0 .4-.2.3-.2 0-.1-.4.1-.3ZM103 157.9c-.3 0-.4-.3-.2-.3.1 0 .2.2.1.3ZM113 157.6c.3 0 .2.6-.1.5-.2-.1-.2-.5 0-.5ZM104 157.7c0-.1.2 0 .2 0 0 .3-.3.3-.3 0ZM107.7 157.6c.2 0 .1.4 0 .4-.2 0-.2-.3 0-.4ZM99.6 158h-.2v-.3s.2 0 .2.2ZM110 158c-.3.2-.5-.2-.2-.3.2 0 .3.2.2.4ZM109 157.8l-.1.2c-.2 0-.1-.3 0-.2ZM111.1 157.9c0 .2-.1.3-.3.2v-.3h.3ZM106 157.8v.3h-.3c-.2-.1 0-.4.3-.3ZM98.6 157.8c.2.1 0 .4-.1.3-.2 0-.2-.3.1-.3ZM98.1 157.9c.2 0 .2.3 0 .3v-.3ZM112.2 158c.2 0 .2.2.1.3h-.3v-.2l.2-.1ZM103.4 158.2c0-.2.2-.3.3-.1v.2l-.3-.1M96.3 158.3v-.3c.1 0 .4.4 0 .3ZM106.5 158.1h.2v.2l-.1.1c-.1 0-.2-.2-.1-.3M114.6 158.1c.4 0 .2.5 0 .5s-.2-.2-.3-.3l.3-.2ZM100.7 158.1c.1 0 .3.2 0 .3a.2.2 0 0 1 0-.3ZM103.1 158.1c.2 0 .1.3 0 .3l-.1-.2s0-.1.1 0ZM107.2 158.2v.3c-.4 0-.3-.5 0-.3ZM107.8 158.5h-.2v-.3h.2v.3M109.3 158.2h.2l-.1.3c-.2 0-.2-.3 0-.3ZM108.3 158.4c0-.1.1-.2.3-.2.2.1-.2.4-.3.2ZM113.7 158.3v.2h-.3c-.1-.2.2-.4.3-.2ZM106 158.3c.1-.2.3 0 .3.1s-.1.2-.2.1c0 0-.1-.1 0-.2ZM95.8 158.7c-.2-.2 0-.5.2-.4v.3s-.2.1-.2 0ZM110.3 158.6c0-.2 0-.2.2-.3 0 0 .2 0 .2.2 0 .1-.3.2-.4 0ZM104.3 158.6c0 .2-.3 0-.2-.2 0-.2.3 0 .2.2ZM99 158.4c.1.2 0 .4-.2.2s0-.3.2-.2ZM100 158.6v.1h-.2c0-.2.1-.3.2-.1ZM103.6 158.8c0-.1 0-.4.2-.3v.2h-.2ZM113.8 158.6c.1-.2.4 0 .3.2 0 .2-.4 0-.3-.2ZM99.5 158.6l.1.2h-.2c-.2 0 0-.2.1-.2ZM111.8 158.8l.1-.2h.3c0 .3-.3.4-.4.2ZM97.9 158.6c.1 0 0 .4-.1.3-.3 0-.1-.4.1-.3ZM109 158.7c.1-.3.4 0 .3.2-.2.1-.4 0-.3-.2ZM100.4 158.7v.2h-.2c0-.2.1-.3.2-.2M103 158.7c.2 0 .4.2.2.3-.2 0-.3-.2-.1-.3ZM107.4 158.7c.1.2 0 .4-.1.4-.2-.2 0-.5.1-.4ZM106.8 158.8c.1.2 0 .4-.2.3-.1-.1 0-.4.2-.3ZM108.3 158.8s.3 0 .2.1c0 .2-.3.2-.2 0ZM96.9 158.8c0 .2 0 .3-.2.3 0 0-.1-.1 0-.2 0-.1.1-.1.2 0M104.4 158.8c.2 0 0 .4-.1.3l-.1-.2s.1-.1.2 0ZM114.8 158.8c.1.1.2.4 0 .4l-.2-.1v-.2h.2ZM109.5 159.2h-.2v-.2l.2-.1v.3M110.8 158.9c.2 0 0 .4-.1.3-.2-.1 0-.3.1-.3ZM97.4 159.2h-.2v-.3c.2 0 .3.2.2.3ZM95.8 159c.3-.1.3.3 0 .3-.1 0-.2-.3 0-.3ZM110 159v.3c-.3 0-.3-.4 0-.3ZM113.4 159.3s0 .2-.2.2c0 0-.2 0-.2-.2l.2-.1.2-.1c0-.1.2-.2.3 0v.2h-.3ZM102.3 159.2l-.1.3c-.3 0-.2-.5 0-.3ZM103 159.4h-.2v-.2c.3-.1.3.1.2.2ZM112.2 159.2c0 .2-.3.2-.3 0h.3ZM106.2 159.6c-.2-.1-.2-.4 0-.4.1 0 .2 0 .2.2l-.2.2ZM111.5 159.6c-.2 0-.4-.3-.1-.4h.2l-.1.4ZM99.3 159.5v-.2h.2c0 .2-.1.3-.2.2ZM107 159.3c.2 0 .1.3 0 .3-.2 0-.2-.1-.2-.2s.1-.2.3-.1ZM108.9 159.4h-.3c0-.2.3-.2.3 0ZM114.4 159.3v.2c0 .1-.1.1-.2 0 0 0-.1 0 0-.2h.2ZM110.4 159.4c0 .1 0 .2-.2.3-.1-.1 0-.5.2-.3ZM100.5 159.7c-.2 0-.3-.1-.2-.3.1-.1.4.1.2.3ZM104.7 159.7c-.2.2-.5 0-.3-.3.1 0 .3 0 .3.3ZM109.4 159.4c0 .1 0 .3-.1.2-.1-.1 0-.2.1-.2ZM97.8 159.7v-.2c0-.1 0 0 .2 0 0 .1 0 .3-.2.2ZM113.7 159.7l.1-.2h.2v.2h-.3ZM96.7 159.5c.2 0 .1.4 0 .3l-.2-.2.2-.1ZM112.4 159.5l-.1.3c-.2 0-.1-.4 0-.3ZM107.6 159.6c.3-.1.3.4 0 .3-.2 0-.2-.3 0-.3ZM101.5 159.8c-.1 0-.1-.2 0-.2.2 0 .2.2 0 .2ZM97.3 159.6c.3 0 .3.5 0 .4-.2 0-.1-.3 0-.4ZM103 159.6c.2 0 .1.4 0 .4-.2 0-.3-.3 0-.4ZM99.6 159.8c0-.1.2 0 .2 0 0 .2-.3.2-.2 0ZM111.6 160c-.2 0-.4-.2-.2-.3.2 0 .3.2.2.3ZM106.6 160c-.2 0-.2-.3 0-.3s.2.3 0 .4ZM104.2 159.9c0 .2-.1.3-.3.2 0-.1 0-.4.3-.2ZM108 160c0-.3.4-.2.3 0 0 .2-.2.2-.3 0ZM106.2 160l-.1.2h-.2v-.3c.2-.1.3 0 .3.1ZM114 160c-.2.2-.4.2-.4 0s.4-.2.3 0ZM102.2 160.1c-.2 0 0-.3.1-.2l-.1.2ZM98.9 160.2c0-.2.1-.4.2-.2.2.1 0 .3-.2.2ZM103.4 160.2c-.2.1-.2-.3 0-.3.1 0 .2.2 0 .3ZM110.3 160c0 .2-.1.3-.2.2-.1-.2 0-.4.2-.2ZM101.4 160.2c0 .2 0 .4-.3.2-.2-.2.1-.4.3-.2ZM107.3 160.5l-.2-.3H107.4c0 .2 0 .3-.2.3ZM113.1 160.2c.2 0 .2.3 0 .3s-.2-.3 0-.3ZM106.7 160.2c.1.1 0 .4-.2.4s-.1-.5.2-.4ZM101.8 160.5v.3h-.2c-.2-.2 0-.2 0-.3l.1-.2.2-.1.1.2-.2.1M110.9 160.5v-.2h.3v.3h-.3ZM99.4 160.4c.2 0 .3.2.1.2-.2 0-.2-.2 0-.2ZM113.6 160.4v.3c-.3 0 0-.3 0-.3ZM99 160.8c-.1 0-.4-.1-.2-.3.2-.2.3.1.2.3ZM108.1 160.5c.2 0 .2.3 0 .3s-.2-.3 0-.3Z"/><path fill="#000" d="M107.2 160.5c.4-.1.3.4.1.4-.2 0-.2-.3 0-.4ZM109.8 160.5c0 .2 0 .3-.2.3-.2-.1 0-.3.2-.3ZM101.3 161.2l-.2-.1v-.3h.2c.1.2 0 .3 0 .4ZM110.7 160.8c.2.2 0 .4-.2.3v-.2c0-.1.2 0 .2 0M99 161c.2-.1.3.2 0 .2v-.3ZM107.9 161.3c-.1 0-.3 0-.3-.2v-.2c.3 0 .5.3.3.4M108.6 161.2h-.2l.1-.3c.2 0 .2.3.1.3ZM107.1 161c.1.2 0 .4-.2.4 0 0-.1-.1 0-.2l.2-.1ZM109.8 161.2v.2H109.5l.3-.2ZM101.7 161.3c.2 0 .2.2 0 .3-.2 0-.2-.3 0-.3ZM99.5 161.4c.2-.1.3.2 0 .2-.1 0-.2-.2 0-.2ZM107.5 161.4v.2c0 .1-.1 0-.2 0-.2 0 0-.3.2-.2ZM108.5 161.6s0-.3.2-.2c.2 0 0 .4-.2.2ZM110.9 161.5c0 .1-.1.2-.2.1-.2 0 0-.3.2-.1ZM109.2 161.5c0 .2-.1.3-.2.2 0-.1 0-.2.2-.2ZM107 161.8c.1 0 .3 0 .3.2 0 .3-.3.1-.3 0v.3l-.2.1h-.1V161.7c0-.2.2-.2.3 0M110 161.8c0 .2-.3.2-.3 0h.3ZM111 161.7c.2.1.1.3 0 .3l-.2-.1c0-.1.1-.2.3-.2ZM101.7 161.9v.3h-.2v-.3h.2ZM109.3 162c0 .1-.2.1-.2 0 0 0 .1-.2.2 0ZM99.5 162.2v-.3h.2v.3h-.2ZM111.1 162.5c-.1-.2.2-.4.3-.2 0 .2-.2.3-.3.2ZM109 162.6v.3l-.2.1v-.4l.1-.3.2.1v.2h-.2M101.5 162.4h.3c.2.3-.4.3-.3 0ZM99.2 162.6l.1-.2.2.1c0 .2-.2.2-.3.1M109.7 162.4h.1v.2c-.2.2-.3-.2-.1-.2ZM111 163c0-.2.2-.3.4-.2.1.1-.2.3-.3.1ZM99.4 163c0-.2 0-.3.2-.3v.4c-.1 0-.2 0-.2-.2ZM101.7 163.3s.2.1.1.2c0 .1-.1.1-.2 0v-.4c0-.2.2-.3.3-.2.2.2-.1.3-.2.4ZM109.5 163c.1 0 0 .2-.1.1-.2 0 0-.2 0-.2ZM99.5 163.4c0-.3.4-.2.4 0 0 .1-.3.1-.4 0ZM111 163.3c.2 0 .3.2 0 .2-.1.1-.2-.2 0-.2ZM109.7 163.4l-.1.1h-.2c0-.2.2-.2.3-.1ZM111 163.6c.3 0 .3.3.1.3-.1 0-.2-.2 0-.3ZM99.6 163.8c.2 0 .2.3 0 .3-.1 0-.2-.3 0-.3ZM111.1 164.2c.3-.1.2.3 0 .2-.1 0-.1-.2 0-.2ZM99.6 164.6c-.2 0-.2-.4 0-.4s.2.3 0 .4ZM105.7 164.5c.2 0 .4.2.2.4s-.5-.2-.2-.4ZM107.2 164.9c.2-.4.5.2.1.2l-.1-.2ZM104 164.8c.3 0 .3.4 0 .4-.2 0-.2-.3 0-.4ZM102.6 165c.1 0 .2.3 0 .3s-.2-.3 0-.3ZM108.6 165.3c0-.2.1-.2.2-.1 0 .1-.1.2-.2.1ZM105.7 165.4l.3.3-.3.3c-.4 0-.4-.6 0-.6ZM110.4 165.5c.1.3-.2.4-.3.2 0-.3.2-.3.3-.2ZM103.8 165.6c0 .1.2.2 0 .4 0 .1-.2.2-.3.1-.2 0-.2-.2-.2-.4.2 0 .3-.2.5-.1ZM102 165.6l.4.1c0 .2-.2.3-.3.3-.1 0-.3 0-.3-.2l.3-.2ZM99 165.8s0-.2.2-.2l.2.1s0 .2-.2.2H99ZM100.4 165.6c.3 0 .3.3 0 .4l-.2-.2.2-.2ZM109.2 165.6v.3l-.2.1s-.2-.1-.1-.2l.3-.2ZM107.4 165.8c0-.1.2-.2.4-.1.1 0 .2.2 0 .4-.2.1-.5 0-.4-.3ZM105.5 171.7l-.2.1H105v-.2h.5ZM111.3 152.7l-.1-.2.1-.2c.2 0 .2.3 0 .4ZM108.1 145.9c.2 0 .2.3 0 .3s-.2-.3 0-.3ZM108 146.4c0 .1 0 .3-.2.3l.1-.3ZM106.6 146.8c-.1-.2 0-.3.1-.3.2 0 0 .4-.1.3ZM108.9 147.1l-.3-.1.1-.2h.2v.3M107.2 147.5l.2.2-.2.2c-.2 0-.2-.3 0-.4ZM104.2 148.2v-.3h.3v.3H104.2ZM104.6 149c0-.3.3-.3.2 0h-.2ZM110.5 150.3v-.4l.3.1c0 .2-.1.4-.3.3ZM100.3 151.3c0 .2 0 .2-.2.2-.1-.1 0-.3.2-.2ZM109.3 151.8c0-.1 0-.2.2-.3 0 0 .2 0 .2.2l-.2.2-.2-.1ZM105.5 152l-.2-.1.2-.2h.1l-.1.3M104.8 153v-.2c.3 0 .2.3 0 .2ZM97.5 153.4c0 .2 0 .2-.2.3-.3-.1 0-.5.2-.3ZM103.7 153.6c.2 0 .2.2 0 .3-.2 0-.2-.3 0-.3ZM104 154.8c0-.1 0-.3.2-.3.1 0 0 .4-.2.3ZM107 155c-.2 0-.3-.3 0-.4l.1.2-.1.2ZM113.5 155.2v-.3h.3c.2.1-.1.5-.3.3ZM112.7 155.2v-.2s.2-.1.2 0c.1.1 0 .3-.2.2ZM104 155.3c0-.2.2-.3.3-.1 0 0-.1.2-.3.1ZM113.3 155.5s-.2.5-.4.3c0-.2.2-.5.4-.3ZM101 156.3c.2 0 0 .4-.2.3v-.2c0-.2.1-.2.2-.1ZM108.6 156.7s-.1 0 0-.2c.2 0 .1.2 0 .2ZM113 158.7h-.3l.1.2v.1c-.2.2-.3-.1-.2-.3v-.2l.3-.2.1.1v.3ZM96.3 159.5l-.1.3c-.3 0-.2-.6 0-.3ZM112.7 159.9c.3-.1.3.2 0 .3v-.3ZM109.5 159.8v.3c-.2-.1 0-.3 0-.3ZM109.2 160.3l-.1.3c-.3 0-.1-.5 0-.3Z"/><path fill="#000" d="M109.4 171.8c-1 .5 1.2 0 .2 0zm-.8 0c-1.1-.3-.2.6.1 0zm-7.9-.2c-1.2 0 .9.7.3 0h-.2zm1.4 0c-1.1-.2 0 .6.2 0zm7 0c.7.3 1.2-.6 0 0zm-1.9 0c-.7-.7-.4.6.2.1h-.2m1.4-.3c.6-.3-1 0 0 0zm-5.6-.1c-.4.5.8-.2 0 0zm-3.3.1c-1.2-.6.6 1 0 0zm8 0c-1.4-.6.3.6 0 0zm-5.7-.2c.7.4.9-.5 0 0zm-.5 0c-.4-.5-1.2.1-.3 0 .1 0 .6.2.3 0zm8-.1c-1 .4 1.3-.2 0 0zm1.6-.1c-.6.3-.8 1 0 .3v-.3zm1.8.4c.4.7.2-1.1 0 0zm-12.7-.3c-.8-.7-.6.5.1.1zm10.2-.2c-.5.6.7-.3 0 0m-7-.1c-.8.3.6.1 0 0zm-4.6 0c-.7 0 .6.7 0 0zm14.8 0c-.2 1 .8.3 0 0zm-7.5-.2c-.5.4 1 .5.1.1h-.1m-9.5 0c-.2.8.6.4 0 0zm7.7-.1c-.8.5.9.2.2-.1zm7.6-.1c-.7.4-.1 1.2 0 .2v-.2m-6.3.5c-.1-1-1-.4-1 .3-.5 1-1.8 1.3-2.7 1.9 1.5.4 3.2.2 4.7.1.5 0 2.6-.4 1.1-.4-1-.1-2-.9-2.1-1.9m-6.6-.7c-1 0 1 .7 0 0zm12.6-.1c-.6.3 0 .3.1 0zm1.7-.3c-.5.5.3 1.3.2.2 0 0 0-.2-.2-.2m-16.5.2c0 1.1 1 .1.3-.4l-.3.4zm1.2-.4c.2.5.7.2 0 0m15.7.5c.5 1 .2-1.3 0-.2v.2m-.9-.5c-.3 1 .8 0 0-.2v.2m-15-.4c.3 0-.1-.2 0 0zm14.3 0c-1 .9.5 0 0 0zm-15.6-.2c-.5.5 0 1.8 0 .5v-.5m16 .2c-.7.2-.2 1.4 0 .3.2-.2.4-.8 0-.3zm-14.9-.3c0 .4.3-.1 0 0zm-.5 0c-.6-1-.2 1.4 0 .2zm15.4 0c.6-.2.1-.8 0 0zm1.5.1c0-.6-.6-.7-.3 0 0 .2.4.4.3 0m-.5 0c0-1.5-.9.4 0 .5v-.5zm-1-.9c-1.7 1-3.4 1.9-5.4 2-1.5.3.7 1.4 1.2.8 1.5 0 3-.5 3.6-1.9 0-.2 1-.9.6-.9zm-16 .4c.3-1.2-.8.5-.2.2zm16.5-.6c-.2.8.7-.3 0 0zm-15.6.3c-.3-1.5-.2 1.2 0 0zm-.5-.1c.5-1-.7-.3 0 .2zm.6-.7a3 3 0 0 0 1.8 2.7c.8.9 2.1.7 3.2.7.6-.1 2.2-.4.8-.7-.9-.1-1.8-.2-2.7-.6-1.2-.5-2-1.3-3-2m15.9-.2c-.7.5.7.8 0 0m-17 0c.4-.1 0-.4 0 0zm16.7-.2c.2.2.2-.2 0 0zm-16-.3c-.7.1.6.8 0 0m-.6-.2c-.4.8.8-.5 0 0zm8 .5c-1.6.1-3.2-.3-4.9-.3-.7.1-2-.6-2.4-.2a8.2 8.2 0 0 0 6 3.3c1.5.2 3 .3 4.4 0 1.7-.3 3.3-1.2 4.8-2 .8-.5 1-2-.3-1.5-1.6.3-3.2.6-4.8.6-.9.2-1.8.1-2.7.1m7.6-1.3c-.4-.6-1.2-.8-.4 0 .1.1.9.5.4 0m-13.5-.7c-.4 0-1.5 1-.6.8 0-.1 1.3-1 .6-.8zm12.5 0c0-.3-.4-.1 0 0zm-1.2-.3c.4.3 1.6 2 1.5.9-.4-.5-.9-.8-1.5-1m.8 0c-1-.4-.4 0 0 0m-10.4-.1c-.7.2-2.7 1.3-1.2 1.6.2-.6 1.5-1.3 1.4-1.7h-.2zm13 1.7c.2-.5.6-2.1-.1-1.7-.2.4-.3 1.6.1 1.7m-16.5-2c-.6.4.2 2.3.3 1 0-.4 0-.8-.3-1zm13.7 1.4c-.6-.7-1.3-1.3-2.2-1.5l1.6 1.8c.1.1 1.2 0 .6-.3m-8.7-1.6c-.7.5-1.6 1-2.1 1.7-.2.8 1.1.6 1.2-.2 0-.4 2-1.6 1-1.5zm5.3-.1c.7.6 1 1.6 1.6 2.3.5 0 1.2-.2.5-.7a5 5 0 0 0-2.1-1.6zm-3.8-.1c-1 .4-2 1.3-2.3 2.2.7 0 1.3.8 1.4-.3.2-.6 1.5-1.6 1-2m4.9 2.4c-.4-.9-1-1.7-1.8-2.3-.9-.1.4 1.2.3 1.8 0 1.3.8.5 1.5.5m-1.7 0c0-.9-1-3.5-1.9-1.7 0 .5-.8 2-.3 2 .7-.5 1.7 0 2.3 0v-.2m-2.2-2.4c-1 .1-1.5 1.5-2 2.3.7-.3 1.7 1 1.5-.2 0-.7.8-1.7.5-2.1m9.4 1.3c.7-1-1-2-1.1-.5 0 1.4.2-1.3 1-.3.1.1-.1 1.4 0 .8m-16.3-.5c.2-1.1-1.6-1-1.2.1.2.8 0-1.5.8-.7 0 0 .2 1.2.3.6m9.5-1.4c-.9 0-2-.4-1.5-1.4-.5-1-1.2.1-.8.8 0 .8-1.6.5-1.5 1l3.3-.1c.3.2 1.3.2.5-.3m.8.4c1 .1 2 .3 3 .8.7.3 1.3 1.1 2 1.1-.5-.8.1-2.5 1.2-2 .7.8.3 2-.3 2.8-.2 1.5.9 3 .3 4.5.1.8-.6 1.4-.6.3-.2-.5-.4 1.6-.7.4 0-.5-.1-2.2-.7-1 0 1.2-1.1.8-1.8 1.3-.9.5-2 .2-3 0-.7.4-1.2-1.4-1.5-.8.4 1 1.6 1.6 2.6 1.4 1.2.8-1 .8-1.5 1-1.7.1-3.4.2-5-.1-1.3-.7 1-.9 1.5-1.3.8-.2 1.3-1.5.3-1-.7 1-2.1.7-3.2.8-1 .1-2-.7-2.5-1.5-.2-.3-.8-1.9-.5-.7.2.7-1 2.8-1.1 1.2-.8-.9-.6-2.5-.2-3.6-.2-.8 1-1.4.2-2.1-.4-.8.3-2.4 1.2-1.5.5.8 0 2 1.2 1.1.9-.5 2.3-.4 2.8-1 .4.5 1.3-.3 1.8-.6.9 0 1.4-.7 1-1.5.5-1 2.1-.3 1.5.8.3.7 1.8 0 2 1.2"/><path fill="#1D1D1D" d="M167.6 166.4ZM168 166c0-.1-.1-.3-.3-.2l.2.2c0 .1-.1.2-.2.1v.2c.2 0 .2-.2.2-.3ZM170.6 158.4ZM172.1 153.6ZM172.5 152.9ZM170.6 158.4v-.2.2ZM168 164.8v.1ZM170 160.5ZM169.5 162.1l-.1-.1v.1ZM170.4 159.3ZM183.9 114.1ZM185 112.4ZM173.1 151.4ZM177.3 137.8s0-.3-.2-.1c0 0 .1.2.2 0ZM168 164.8ZM177.1 137.7ZM174.1 148ZM173.2 150.5ZM174.4 146.6ZM174.8 145.2v.1ZM182.6 118.3h.1s0-.2 0 0ZM168 164.9v-.1ZM173.7 146.3v-.2.2ZM179.5 128.2ZM174 145.4Z"/><path fill="#1d1d1d" d="M183 116.8c-4.6 15.8-10.2 31.3-14.4 47.2 5.7-16.7 11.2-33.5 16.2-50.5-.3-2.3-1.3 3-1.9 3.3zm-1.3 5v-.1zm-.1.4c-.4-.4.4 0 0 0zm1-.7-.1.1z"/><path fill="#1D1D1D" d="M182.4 121.4ZM170.5 158.4ZM179.6 127.8ZM169.5 160.6ZM169.1 161.5v.2-.2ZM168.9 162.3ZM172.5 150.3ZM171.6 154v-.2.1ZM173.7 146.3ZM171.7 153.7v.1-.1ZM167.8 165.5ZM167.8 165.5ZM167.8 165.7v-.1ZM168.1 164.5ZM168.2 164.2l-.1.3s.2-.2.1-.3ZM169 163.1v.2c.3-.2 0 .1 0-.2ZM169.4 162.3c0 .2 0 0 0 0ZM171.2 156.7ZM171 155.5v.1-.1ZM171.9 155v-.1.1ZM174.9 145.5h-.2s.1.1.2 0ZM176 141.4c.1 0 .2-.2.1-.3v.3ZM180.1 129.1v.1-.1ZM167.2 179.1h.1v-.1l-.1.1ZM167.6 178.6l-.2-.2.1.3-.1.1v.2l.1-.4ZM170.2 170.9ZM171.8 166v.1ZM172.2 165.3ZM170.2 170.9l.1-.1ZM167.6 177.5ZM169.7 173v.1ZM169.2 174.7l-.2-.1s.1.1.2 0ZM170 171.9ZM183.9 125.8ZM185 124v.1ZM172.8 163.8ZM177.2 149.9c-.2.1 0-.3-.2 0 0-.1 0 .2.2 0ZM167.7 177.4ZM177 149.8ZM173.9 160.3ZM173 162.9v-.1ZM174.2 159v-.2.1ZM174.6 157.5ZM182.6 130.1s0-.2 0 0ZM167.7 177.5ZM173.4 158.6l.1-.2v.2ZM179.4 140.2ZM173.7 157.7h.1v-.1.1Z"/><path fill="#1d1d1d" d="M183 128.5c-3.8 13.5-8.8 26.6-12.4 40-.6 2.2-3 8.9-2.3 8.1 4.2-11.9 7.8-24 11.8-36 1.7-5 3-10.2 4.7-15.2 0-3.6-1 2-1.9 3.1zm-1.4 5zm-.1.5c-.3-.4.4 0 0 0zm1-.7c0 .4-.2 0 0 0z"/><path fill="#1D1D1D" d="M182.4 133.2ZM170.2 171ZM179.5 139.7ZM169.1 173.1ZM168.8 174.1v.1ZM168.5 174.9ZM172.3 162.7c0-.1 0 0 0 0ZM171.3 166.4v-.2.2ZM173.4 158.6ZM171.4 166v.3-.2ZM167.4 178.2ZM167.4 178.2ZM167.4 178.3ZM167.8 177.2ZM167.9 176.9l-.2.2.2-.2ZM168.7 175.7l-.1.3s.1-.1.1 0c.2-.3-.1 0 0-.3ZM169 175c0-.1 0-.2 0 0ZM170.9 169.2c0-.1 0 0 0 0ZM170.8 168h-.1ZM171.6 167.5v-.2.2ZM174.6 157.8s0 .1 0 0ZM175.8 153.6l.2-.3-.2.3ZM180 141v.2-.2ZM167.1 191.3h.1v-.2.2ZM167.5 190.8c0-.1 0-.3-.2-.2l.1.2c0 .1 0 .2-.1.1v.2c.1 0 .2-.2.1-.3h.1ZM170.2 183ZM171.8 178.2ZM172.2 177.4ZM170.2 183c0-.1 0 0 0 0ZM167.6 189.6v.1ZM169.6 185.2ZM169 186.8ZM170 184ZM183.8 138ZM184.9 136.2ZM172.8 176ZM177.1 162c-.1.2 0-.3-.2 0 0 0 0 .2.2 0ZM167.6 189.6ZM176.9 162ZM173.8 172.4ZM172.9 175ZM174.1 171ZM174.5 169.6v.1ZM182.5 142.3h.1s0-.3-.1 0ZM167.6 189.6ZM173.4 170.7v-.2.2ZM179.3 152.3ZM173.6 169.9l.1-.1Z"/><path fill="#1d1d1d" d="M182.8 140.7c-3.6 13.2-8.5 26-12 39.4-.7 2.4-3.2 9.2-2.6 8.7 4.2-12 7.8-24 11.9-36 1.5-5.2 3.2-10.4 4.6-15.7-.5-1.9-1.2 3.3-1.9 3.6zm-1.2 5zm-.2.4c-.3-.3.4 0 0 0zm1-.6c0 .3-.2-.1 0 0z"/><path fill="#1D1D1D" d="M182.3 145.3ZM170.1 183ZM179.4 151.8ZM169 185.3ZM168.7 186.3ZM168.4 187ZM172.2 174.8ZM171.3 178.5v-.1.1ZM173.4 170.8ZM171.3 178.2v.2-.2ZM167.4 190.3ZM167.4 190.3ZM167.3 190.5v-.1ZM167.7 189.3ZM167.8 189l-.1.3.1-.3ZM168.6 187.9v.2c.2-.2 0 0 0-.2ZM169 187v.1c0-.1 0-.1 0 0ZM170.8 181.3ZM170.7 180l-.1.2v-.1ZM171.5 179.6v-.1.1ZM174.6 170h-.2.2ZM175.8 165.7s.1-.1 0-.2v.2ZM180 153.2v.1-.1ZM167 204h.2l-.1-.2v.2ZM167.4 203.5c0-.1 0-.3-.2-.2l.2.2c0 .1-.1.2-.2.1v.2c.2 0 .2-.2.2-.3ZM170.1 195.7ZM171.7 190.8ZM172.1 190ZM170.1 195.7v-.2.2ZM167.5 202.3ZM169.5 197.8v.1ZM169 199.5l-.1-.1.1.1ZM170 196.7ZM183.8 150.3ZM184.9 148.5ZM172.7 188.5ZM177 174.5c0 .1 0-.3-.1 0 0 0 0 .2.2 0ZM167.5 202.3ZM176.9 174.4ZM173.8 185ZM172.8 187.6ZM174 183.6l.1-.1ZM174.5 182.2ZM182.5 154.6h.1s0-.3-.1 0ZM167.6 202.3ZM173.3 183.3l.1-.2v.2ZM179.3 164.7ZM173.6 182.4l.1-.1-.1.1Z"/><path fill="#1d1d1d" d="M182.8 153c-.7 3.8-2.1 7.4-3.3 11.1-3 9.3-6 18.6-8.6 28-.8 3-3 8.5-3 10.3l5-15c2-7.6 5-15 7.3-22.7 1.5-4.5 2.6-9.1 4.1-13.6 1.4-1.8-.2-3.4-.5-.7-.2.9-.4 1.8-1 2.6zm-1.3 5zm0 .5c-.3-.4.3 0 0 0zm.9-.7c0 .4-.2 0 0 0z"/><path fill="#1D1D1D" d="M182.3 157.7ZM170 195.7ZM179.4 164.2ZM169 198ZM168.7 199h-.1ZM168.4 199.7ZM172.1 187.4ZM171.2 191.1v-.1.1ZM173.3 183.3ZM171.3 190.8l-.1.2v-.2ZM167.3 203ZM167.3 203ZM167.3 203.2v-.1ZM167.7 202ZM167.7 201.7l-.1.2s.2-.1.1-.2ZM168.6 200.5l-.1.3s0-.1 0 0c.3-.3 0 0 0-.3ZM168.9 199.7c0 .2 0 0 0 0ZM170.7 194h.1c0-.1 0 0 0 0ZM170.6 192.7v.1-.1ZM171.5 192.2v-.1.1ZM174.5 182.5h-.1.1ZM175.7 178.2c.1 0 .2-.1.1-.2v.2ZM180 165.6v.1-.1ZM167.3 216.1h.1v-.1.1ZM167.7 215.6s0-.2-.2-.2l.1.3s0 .1 0 0c0 .1-.2.2 0 .3v-.4h.1ZM170.4 207.8ZM172 203ZM172.4 202.2ZM170.4 207.8h.1c0-.1 0 0 0 0ZM167.8 214.5ZM169.8 210ZM169.3 211.7l-.1-.1h.1ZM170.2 208.8ZM184.3 162.6ZM185.4 160.9ZM173 200.7ZM177.5 186.8c-.2 0 0-.3-.2-.1 0 0 0 .2.2 0ZM167.8 214.4ZM177.3 186.7ZM174.1 197.2ZM173.1 199.8ZM174.4 195.8ZM174.9 194.4ZM183 166.9s0-.3 0 0ZM167.8 214.5ZM173.7 195.5v-.2.2ZM179.7 177ZM174 194.6v-.1.1Z"/><path fill="#1d1d1d" d="M183.3 165.3c-4.2 14.4-9.3 28.6-13.4 43-.7 1.2-1.8 6.2-.5 2.3 4.8-14 9.3-28.1 13.8-42.3.3-1.6 2.5-6.5 1.2-6-.4 1-.5 2.1-1 3zm-1.3 5zm-.1.5c-.5-.3.5 0 0 0zm1-.7c.3.2-.3.2 0 0z"/><path fill="#1D1D1D" d="M182.7 170ZM170.4 207.9ZM179.8 176.5ZM169.3 210v.1ZM169 211l-.1.2v-.1ZM168.7 211.8ZM172.5 199.6ZM171.5 203.3v-.1.1ZM173.7 195.5ZM171.6 203v.2-.2ZM167.6 215.1ZM167.6 215.2ZM167.6 215.3ZM168 214.1ZM168 213.8l-.1.3s.2-.2.1-.3ZM168.9 212.7l-.1.2c.3-.2 0 .1 0-.2ZM169.2 211.9c0 .1 0 0 0 0s0-.1 0 0ZM171 206.1h.1ZM171 204.9h-.1v.1-.1ZM171.8 204.4v-.1.1ZM174.9 194.7h-.1s0 .1 0 0ZM176.1 190.4s.2 0 .1-.2v.2ZM180.3 178v-.1ZM174.3 209l.1-.1ZM174.6 208.7c0-.1 0-.2-.2-.2l.1.2s-.1.1 0 .2v-.3h.1ZM176.2 204.3ZM177.2 201.6ZM177.4 201.2ZM176.2 204.3ZM174.5 208ZM176 205.6ZM175.6 206.5v-.1ZM175 207.9ZM176.2 204.9ZM183.7 178.8ZM184.5 177.9h.1ZM177.8 200.4ZM180.3 192.5c-.1 0-.1-.2-.2 0h.2ZM174.6 208ZM180 192.4ZM178.4 198.4ZM177.8 199.8ZM178.5 197.6ZM178.8 196.8ZM183 181.2h.1s0-.1-.1 0ZM174.6 208ZM177.8 197.3v-.1ZM181.2 187v-.1ZM178 196.8Z"/><path fill="#1d1d1d" d="M183.1 180.3c-.7 3.8-2.3 7.4-3.4 11.1-2 5.4-3.1 11.1-5 16.5 1.4-2.2 1.8-4.8 2.9-7.2.9-3.6 2.2-7.2 3.5-10.7 1.2-3.9 2.4-7.7 3.4-11.6 0-1.5-.9.9-1 1.4l-.4.5zm-.6 2.9zm0 .2c-.1-.2.2 0 0 0zm.8-.2c0 .1-.1-.2 0 0z"/><path fill="#1D1D1D" d="M183.2 183ZM176.2 204.3ZM181.2 186.6ZM175.4 205.5ZM175.2 206v.2-.1ZM175 206.5ZM177.1 199.6ZM176.7 201.7ZM177.8 197.3ZM176.7 201.6ZM174.4 208.4ZM174.4 208.4ZM174.4 208.5ZM174.6 207.8ZM174.7 207.6l-.1.2s.1-.1 0-.2ZM175.3 207v.2c.2-.1 0 0 0-.2ZM175.5 206.6h.1ZM176.6 203.4ZM176.3 202.6ZM177 202.4ZM178.8 197h-.1.1ZM179.4 194.6c.1 0 .2-.1.1-.2v.2ZM181.9 187.5ZM167.4 155.9h.1v-.2l-.1.2ZM167.8 155.4l-.2-.2v.5l.1-.3ZM170.4 147.7ZM172 143ZM172.4 142.2ZM170.4 147.7ZM167.8 154.3ZM169.8 149.9ZM169.3 151.5v-.1.1ZM170.2 148.7ZM183.8 103.3ZM184.9 101.5v.1ZM173 140.8ZM177.2 127c-.1.2 0-.3-.2 0 0 0 .1.2.2 0ZM167.9 154.2ZM177 127ZM174 137.3ZM173 139.8ZM174.3 136v-.2.1ZM174.7 134.5v.1ZM182.5 107.5h.1s0-.3 0 0ZM167.9 154.3ZM173.5 135.6l.1-.2v.2ZM179.4 117.4ZM173.8 134.8l.1-.2v.2Z"/><path fill="#1d1d1d" d="M182.9 106c-3.6 13.2-8.6 26-12 39.3-.7 2.2-2.8 8-2.4 8.1l5.2-15.3c2.9-10.2 6.7-20 9.5-30.3.7-1.6 2.5-8.8.4-3.7-.1.7-.3 1.4-.7 1.8zm-1.3 5v-.2zm-.1.3c-.3-.3.4 0 0 0zm1-.6c0 .3-.3-.1 0 0z"/><path fill="#1D1D1D" d="M182.3 110.5ZM170.4 147.8ZM179.5 117ZM169.3 150ZM169 151ZM168.7 151.7ZM172.4 139.7c0-.1 0 0 0 0ZM171.5 143.3v-.1.1ZM173.5 135.6ZM171.5 143v.2-.2ZM167.6 155ZM167.6 155ZM167.6 155.1ZM168 154ZM168 153.6v.3-.3ZM168.9 152.5l-.1.3s.1-.1 0 0c.3-.3 0 0 .1-.3ZM169.2 151.7c0 .2 0 0 0 0ZM171 146c.1 0 0 0 0 0ZM170.9 144.8v.1ZM171.7 144.4v-.2.2ZM174.7 134.8h-.1s.1.1.1 0ZM176 130.7v-.3.3ZM180 118.3v.1-.1ZM167.6 144.5v-.2.2ZM168 144c0-.1-.1-.2-.3-.2l.2.3h-.2v.2c.2 0 .2-.2.2-.3ZM170.5 136.3ZM172 131.6h.1ZM172.5 130.8ZM170.5 136.3h.1c0-.1 0 0 0 0ZM168 142.9ZM170 138.5ZM169.5 140.1l-.1-.1v.1ZM170.3 137.3ZM183.8 91.8ZM184.8 90.1ZM173 129.3ZM177.3 115.6c-.2.1 0-.3-.2 0 0-.1 0 .2.2 0ZM168 142.8ZM177 115.5ZM174 125.9ZM173.1 128.4ZM174.4 124.5ZM174.8 123.1ZM182.5 96h.1s0-.2-.1 0ZM168 142.9ZM173.6 124.2l.1-.2v.2ZM179.4 106ZM173.9 123.3v-.1.1Z"/><path fill="#1d1d1d" d="M182.8 94.5c-3.5 13-8.3 25.6-11.6 38.7-.8 2.6-3.2 9.7-2.7 9.3 4.2-12 7.7-24 11.6-36 1.4-5.3 3.5-10.6 4.5-16-.8.2-1 3-1.8 4zm-1.2 5v-.1zm-.1.4c-.3-.4.4 0 0 0zm.9-.7c0 .4-.2 0 0 0z"/><path fill="#1D1D1D" d="M182.3 99v.1ZM170.5 136.4ZM179.5 105.5ZM169.5 138.6ZM169.1 139.5v.2-.2ZM168.8 140.3ZM172.5 128.3c0-.2 0-.1 0 0ZM171.6 131.9v-.1ZM173.6 124.2ZM171.6 131.6v.2-.2ZM167.8 143.5ZM167.8 143.6ZM167.8 143.7ZM168.1 142.5ZM168.2 142.2l-.1.3s.2-.2.1-.3ZM169 141.1v.2c.2-.2 0 .1 0-.2ZM169.3 140.3c0 .2.1 0 .1 0ZM171.1 134.6h.1ZM171 133.4v.2-.2ZM171.8 133v-.2.2ZM174.8 123.4h-.1s0 .1.1 0ZM176 119.2s.1-.1 0-.2v.2ZM180 107v-.2.1ZM167 134.2h.2-.1ZM167.4 133.9l-.2-.2.1.2v.1s-.1 0 0 .1v-.2h.1ZM169.3 128.4ZM170.5 125ZM170.8 124.4ZM169.3 128.4l.1-.1ZM167.4 133v.1ZM169 130ZM168.6 131.1h-.1.1ZM169.2 129ZM179 96ZM179.8 94.9ZM171.3 123.3ZM174.4 113.4c-.2 0 0-.3-.2-.1 0 0 0 .2.2 0ZM167.4 133ZM174.2 113.3ZM172 120.8ZM171.3 122.6ZM172.2 119.8ZM172.5 118.8ZM178 99.1s0-.1 0 0ZM167.4 133ZM171.4 119.5l.1-.1v.1ZM175.7 106.3ZM171.6 118.9h.1v-.1Z"/><path fill="#1d1d1d" d="M178.2 98c-1.1 5.3-3.3 10.4-4.8 15.6-2.2 6.6-3.9 13.2-6 19.7 1.9-3.7 2.8-7.8 4.2-11.7 1.8-6.4 4.4-12.5 6-19 .3-2.2 2.5-5.4 1.6-7-.6.7-.3 1.8-1 2.4zm-.8 3.6zm-.1.3c-.2-.2.2 0 0 0zm.8-.4c.2.2-.1 0 0 0z"/><path fill="#1D1D1D" d="M178 101.4ZM169.3 128.4ZM175.8 106ZM168.5 130ZM168.2 130.6v.1ZM168 131.2ZM170.6 122.5c0-.1 0 0 0 0ZM170 125.1ZM171.4 119.5ZM170 124.9v.1-.1ZM167.2 133.5ZM167.2 133.6ZM167.2 133.7v-.1ZM167.5 132.8ZM167.5 132.6v.2-.2ZM168.3 131.8l-.1.2c.3-.2 0 0 0-.2ZM168.5 131.3s0-.1 0 0ZM169.8 127.1c.1 0 0 0 0 0ZM169.6 126.2v.1-.1ZM170.4 126v-.2.1ZM172.5 119s0 .1 0 0ZM173.4 116s.1-.1 0-.2v.2ZM176.4 107v.1ZM167.2 121.7h.1ZM167.5 121.6l-.2-.2.1.2s-.1 0 0 0h.1ZM168.5 119ZM169.1 117.3ZM169.3 117ZM168.5 119v-.1ZM167.3 121.1ZM168.4 119.7ZM168.2 120.3l-.1-.1h.1ZM167.8 121.1ZM168.5 119.3ZM172.8 103.3ZM173.5 102.8ZM169.6 116.6ZM171 111.8s0-.2-.1-.1c0 0 0 .1.2 0ZM167.4 121ZM170.9 111.7ZM170 115.3h-.1ZM169.5 116.2ZM170 114.8ZM170.1 114.3ZM172.4 104.8s0-.1 0 0ZM167.4 121.1ZM169.2 114.6v-.1ZM171.3 108.3ZM169.3 114.3Z"/><path fill="#1d1d1d" d="M172.4 104.2c-.2 2.4-1.4 4.5-2 6.7-1 3-1.6 6.2-2.6 9.3-.2 1.6 1-2 1.2-2.5l3-9c.1-1.8 1.7-4 1.1-5.7-.6-.1 0 1.2-.7 1.2zm-.2 1.8zm0 .2c0-.2 0 0 0 0zm.7-.1c0 .1 0-.2 0 0z"/><path fill="#1D1D1D" d="M172.8 106ZM168.5 119ZM171.3 108ZM167.8 120ZM167.7 120.2ZM168.9 116ZM168.7 117.3ZM169.2 114.6ZM168.7 117.2ZM167.3 121.3ZM167.3 121.3ZM167.3 121.4ZM167.4 121ZM167.4 120.9ZM168 120.6v.1c.2 0 0 0 0-.1ZM168.2 120.3ZM168.8 118.3ZM168.4 117.8ZM169.1 117.8ZM170.2 114.5h-.1ZM170.5 113s.1 0 0 0Z"/><path fill="#1d1d1d" d="M172 108.7z"/><path fill="#1D1D1D" d="M219.5 186.8v-.1.1ZM219 186.7v.3l.1-.2h.1l.1-.1-.3.1ZM213 189ZM209.3 190.5ZM208.7 190.6ZM213 189ZM218.3 187.3ZM214.6 188.3v-.1ZM215.8 187.7v.2-.1ZM217.9 187ZM213.7 188.6ZM179.3 203.8ZM177.7 204v-.1ZM207.5 191ZM197 195.5c.1 0-.2.1 0 .2 0 0 .1-.3 0-.2ZM218.3 187.3ZM197 195.7ZM204.8 192.2ZM206.9 191.5ZM203.9 192.7h-.1ZM202.8 193.2ZM182.5 202.4s-.2 0 0 0ZM218.3 187.3ZM204.1 193.5h-.1.1ZM190.1 199.2ZM203.5 193.7h-.2.2Z"/><path fill="#1d1d1d" d="M181.4 203c2.6-1.5 5.6-2.4 8.3-3.6 6.3-2.6 12.6-5 18.7-8 2.2-1.2 4.7-1.8 7-3 1.6-.5 4.7-2 1.3-.8-4.8 1.9-9.8 3.7-14.5 6-3.6 1.5-7.4 2.6-11 4.3-3.7 1.4-7.3 3.3-11 4.8-1.4 0-3.5 2.2-1 1.1.7-.3 1.4-.8 2.2-.8zm3.6-1.8zm.4-.2c-.2.3-.2-.1 0 0zm-1-.3c.2-.2 0 .2 0 0z"/><path fill="#1D1D1D" d="M184.4 200.8ZM213 189ZM189.8 199.4ZM215 188.6ZM215.7 188.3h.1ZM216.3 188.1ZM207.2 192c-.1.1 0 .1 0 0ZM209.8 190.7ZM204.2 193.5ZM209.6 190.8h.1ZM218.8 187.1ZM218.9 187.1ZM219 187h-.1ZM218 187.4ZM217.8 187.5h.3-.3ZM216.7 187.5h.2s-.1-.1 0-.2c-.3 0 0 .1-.2.2ZM216 187.7c.1 0 0 0 0 0ZM211.7 189.5c-.1 0 0 0 0 0ZM211 190.3h.1ZM210.3 189.9h-.1ZM203 193ZM199.8 194.4h-.1.1ZM190.3 198.2ZM222.4 181.7h-.1v.1ZM221.9 181.7v.3-.3H222.3h-.3ZM215.8 184ZM212.1 185.5ZM211.4 185.7ZM215.8 184ZM221.2 182.3ZM217.4 183.3v-.1ZM218.7 182.7v.2-.1ZM220.7 182ZM216.5 183.6ZM181.8 199ZM180.2 199ZM210.2 186ZM199.6 190.5c.2 0-.1.2.1.2 0 0 .1-.2 0-.2ZM221.1 182.3ZM199.7 190.7ZM207.6 187.2ZM209.6 186.5ZM206.6 187.7ZM205.5 188.2h.1ZM185 197.5s-.1.1 0 0ZM221.2 182.3ZM206.9 188.5h-.2.2ZM192.7 194.3ZM206.2 188.8h-.1.1Z"/><path fill="#1d1d1d" d="M184 198.1c2.6-1.6 5.7-2.5 8.6-3.7 6.5-2.9 13.2-5.3 19.5-8.4l9-3.8c-1.7 0-5.5 2.2-8 2.9-2.9 1-5.6 2.3-8.4 3.6-7.4 2.7-14.7 5.8-21.9 9-1.9.2-3.5 2.4-.7 1.1.6-.2 1.2-.8 1.8-.7zm3.6-1.8zm.3-.2c-.1.3-.1 0 0 0zm-1-.3c.3-.2 0 .2 0 0z"/><path fill="#1D1D1D" d="M187 196ZM215.9 184ZM192.4 194.5ZM217.8 183.6ZM218.6 183.3ZM219.2 183.1ZM210 187v.1c-.1 0-.1 0 0 0ZM212.6 185.7v.1ZM206.9 188.5ZM212.4 185.9h.1-.1ZM221.7 182.1ZM221.7 182ZM221.8 182ZM221 182.4ZM220.7 182.5h.2-.2ZM219.5 182.5h.2v-.2c-.3 0 0 0-.2.2ZM218.9 182.7c.1 0 0 0 0 0ZM214.5 184.5c-.1 0 0 0 0 0ZM213.8 185.3h.1ZM213 185l.1-.1h-.1ZM205.7 188v.1c.1 0 0-.1 0 0ZM202.6 189.5h-.2.2ZM192.9 193.3ZM224.9 176.8v-.1.1ZM224.4 176.7v.3-.2H224.8h-.3ZM218.3 179ZM214.6 180.6ZM213.9 180.7ZM218.3 179c0 .1 0 0 0 0ZM223.7 177.3ZM220 178.3ZM221.2 177.8v.1-.1ZM223.2 177ZM219 178.7ZM184.1 194ZM182.5 194.2ZM212.7 181ZM202 185.6c.2 0-.1.2.1.2 0 0 .1-.2 0-.2ZM223.7 177.3h-.1ZM210 182.2ZM212 181.5ZM209 182.8ZM208 183.3ZM187.4 192.6h-.1s-.1.1 0 0ZM223.7 177.3ZM209.3 183.6h-.2.2ZM195.1 189.4ZM208.6 183.8h-.1.1Z"/><path fill="#1d1d1d" d="M186.3 193.3c2.7-1.6 5.7-2.6 8.7-3.9 6.5-2.8 13.3-5.2 19.7-8.4 2.5-1.2 8-3.1 8.6-3.9l-11.3 4.4c-4.7 2.3-9.7 3.9-14.5 6-4 1.6-8 3.4-11.9 5.2-1.2 0-4.7 2.2-1.5 1.3.7-.3 1.4-.8 2.2-.7zm3.6-1.9zm.4-.1c-.2.2-.2-.2 0 0zm-1-.4c.2-.2 0 .2 0 0z"/><path fill="#1D1D1D" d="M189.3 191ZM218.4 179ZM194.8 189.6ZM220.3 178.6ZM221 178.3h.2-.2ZM221.7 178.2ZM212.4 182.2ZM215 180.8ZM209.3 183.6ZM214.9 181v-.1ZM224.2 177.1ZM224.2 177.1ZM224.3 177ZM223.4 177.4ZM223.2 177.5h.2-.2ZM222 177.5h.2v-.1c-.3 0 0 0-.2.1ZM221.4 177.7s-.1 0 0 0ZM217 179.6v-.1c-.1 0 0 0 0 0ZM216.3 180.4h.1v-.1ZM215.6 180h-.1ZM208.1 183.1h.1ZM205 184.5h-.2.2ZM195.3 188.4ZM227.3 171.7h-.1v.1ZM226.8 171.7v.3-.3h.2-.2ZM220.7 174ZM216.9 175.6ZM216.2 175.7ZM220.7 174h-.2c0 .1.1 0 .2 0ZM226 172.3ZM222.3 173.3ZM223.5 172.7v.2-.1ZM225.6 172ZM221.4 173.6ZM186.3 189.1ZM184.7 189.3ZM215 176ZM204.3 180.6c.2 0-.1.2 0 .2 0 0 .2-.2 0-.2ZM226 172.3ZM204.4 180.8ZM212.3 177.3ZM214.4 176.6ZM211.3 177.8ZM210.3 178.3ZM189.6 187.7s-.2.1 0 0ZM226 172.3ZM211.6 178.6h-.2.2ZM197.3 184.4ZM211 178.9h-.2.1Z"/><path fill="#1d1d1d" d="M188.5 188.3c2.5-1.5 5.5-2.3 8.3-3.7 3.3-1.1 6.5-2.8 9.8-4 5.4-2.2 10.6-4.8 16-7 1.1-.3 5.3-2.3 2.1-1.2-5 2-10.1 3.8-15 6.2-4.3 1.7-8.6 3.3-12.9 5.2l-11.7 5.1c-.7 1.7 2.6-1 3.4-.6zm3.7-1.8h-.1zm.3-.2c-.2.2-.2-.1 0 0zm-1-.3c.3-.2 0 .1 0 0z"/><path fill="#1D1D1D" d="M191.5 186.1ZM220.7 174ZM197 184.6ZM222.6 173.6ZM223.4 173.3h.1-.1ZM224 173.1ZM214.7 177.2ZM217.4 175.8ZM211.6 178.6ZM217.2 176l.1-.1h-.1ZM226.6 172.1ZM226.6 172ZM226.7 172ZM225.8 172.4ZM225.5 172.5h.3-.3ZM224.4 172.5h.2s-.1-.1 0-.2c-.3 0 0 .1-.2.2ZM223.7 172.7c.1 0 0 0 0 0ZM219.3 174.6v-.1c-.1 0 0 0 0 0ZM218.6 175.4h.1v-.1ZM217.9 175h-.1ZM210.4 178.1v.1c.1 0 .1-.2 0 0ZM207.2 179.6h-.1.1ZM197.5 183.4ZM229.6 166.2v.1ZM229 166.2v.3l.2-.2h.1l.1-.1-.3.1ZM222.7 168.7ZM218.8 170.3ZM218 170.4ZM222.7 168.7h-.1.1ZM228.3 166.9v-.1ZM224.4 167.9ZM225.7 167.3v.2-.1ZM227.9 166.6ZM223.4 168.3ZM186.7 184.4ZM185 184.6ZM216.8 170.8ZM205.6 175.6c.1 0-.2.2 0 .2 0 0 .2-.2 0-.2ZM228.3 166.9ZM214 172ZM216.1 171.3ZM213 172.6h-.1ZM211.8 173.1ZM190.1 183v-.1s-.2.2 0 0ZM228.3 166.8ZM213.2 173.4h-.2.2ZM198.3 179.5ZM212.5 173.7h-.1.1Z"/><path fill="#1d1d1d" d="M189 183.6c1.6-1.4 3.9-1.5 5.7-2.6 3-1.3 6-2.3 8.9-3.7 5-2 9.9-4 14.7-6.3l6-2.6c1.3-.7 2.9-1 4.2-1.8-.6 0-2.5.7-3.6 1.2-2 1-4.1 1.5-6.1 2.4-1.9.4-3.4 1.6-5.2 2.2-3 1.4-6 2.5-9 3.6l-9.6 4c-1.7 1-3.8 1.5-5.5 2.6-1.5.7-3.2 1-4.4 2 1.2.7 2.6-1.1 3.9-1zm3.8-2v.1zm.4 0c-.2.2-.2-.3 0 0zm-1-.4c.2-.2 0 .2 0 0z"/><path fill="#1D1D1D" d="M192.2 181.3ZM222.8 168.7ZM198 179.7h-.1ZM224.7 168.2ZM225.6 168v-.1ZM226.2 167.7ZM216.4 172ZM219.3 170.5h-.1ZM213.2 173.4ZM219 170.6h.2-.1ZM228.9 166.6ZM229 166.6ZM229 166.5ZM228 167ZM227.8 167h.3-.3ZM226.6 167h.2s-.1 0 0-.1c-.3 0 0 0-.2.2ZM226 167.3l-.1-.1ZM221.3 169.2c-.1 0 0 0 0 0ZM220.6 170ZM219.8 169.7h-.1ZM212 173c.1 0 0-.1 0 0ZM208.7 174.5h-.3.3ZM198.5 178.5h-.1ZM223.4 155.1s0-.1 0 0ZM223 155v.3-.2h.2c0-.1-.1 0-.2 0ZM217.5 157.1ZM214.1 158.5ZM213.5 158.6ZM217.5 157.1ZM222.3 155.6ZM219 156.4ZM220 156h.1ZM222 155.4ZM218.1 156.7ZM186.8 170.6ZM185.3 170.7ZM212.4 158.9ZM202.9 163c.1 0-.2.1 0 .2 0 0 .1-.2 0-.2ZM222.3 155.6ZM203 163.2ZM210 160ZM211.9 159.3ZM209.2 160.5h-.1ZM208.2 160.9ZM189.7 169.4v-.1s-.1.1 0 0ZM222.3 155.6ZM209.4 161.2h-.1.1ZM196.7 166.4ZM208.8 161.5Z"/><path fill="#1d1d1d" d="M188.7 170c2.3-1.5 5-2.3 7.5-3.4 3.4-1.3 6.6-2.8 10-4l12-5.4c1.1-.6 6.2-2.4 2.8-1.4-2.9 1.2-5.9 2.1-8.7 3.3a108 108 0 0 1-11 4.5c-3.9 1.7-7.8 3.2-11.6 5-1 .9-4.4 1.2-4 2.3 1.1-.2 2-1 3-1zm3.3-1.8zm.3-.1c-.1.2-.1-.1 0 0zm-.9-.4c.2-.2 0 .2 0 0z"/><path fill="#1D1D1D" d="M191.4 167.9ZM217.6 157.1ZM196.4 166.6ZM219.3 156.8ZM220 156.5ZM220.5 156.3ZM212.2 160ZM214.6 158.7ZM209.5 161.2ZM214.4 158.8h.1ZM222.8 155.4ZM222.8 155.4ZM223 155.3h-.1ZM222.1 155.7ZM221.9 155.8h.2-.2ZM220.8 155.7h.2v-.1c-.3 0 0 0-.2.1ZM220.3 156v-.2c-.1 0-.1.1 0 .1ZM216.3 157.6v-.1c-.1 0 0 0 0 0ZM215.7 158.3h.1ZM215 158v-.1ZM208.3 160.7l.1.1s0-.1 0 0ZM205.5 162h-.2.2ZM196.8 165.5ZM232 160.5v.1ZM231.5 160.5v.3-.2h.2l.1-.1-.3.1ZM224.7 163.1ZM220.6 164.8ZM219.8 165ZM224.7 163.1h-.1.1ZM230.7 161.2ZM226.5 162.3v-.1ZM227.9 161.7v.1-.1ZM230.2 161v-.1ZM225.5 162.7ZM186.6 179.6ZM184.8 179.8v-.1ZM218.5 165.4ZM206.6 170.3c.2 0-.2.2 0 .2 0 0 .2-.2 0-.2ZM230.6 161.2ZM206.7 170.5ZM215.5 166.6ZM217.8 165.9ZM214.4 167.2ZM213.2 167.7ZM190.3 178h-.1s-.1 0 0 0ZM230.6 161.1ZM214.7 168h-.2.2ZM198.9 174.4ZM214 168.3h-.2.1Z"/><path fill="#1d1d1d" d="M189 178.7c3-1.7 6.2-2.7 9.3-4 7.9-3.3 15.9-6.4 23.6-10 2.5-1.2 7.5-2.8 8.6-3.8-4.3 1.5-8.5 3.3-12.8 5-8 3.7-16.5 6.3-24.5 10.1-2.6 1.4-6 2-8.1 3.8 1.4.2 2.5-1 4-1.1zm4.1-2zm.4-.2c-.2.3-.2-.2 0 0zm-1-.3c.2-.2 0 .1 0 0z"/><path fill="#1D1D1D" d="M192.4 176.3ZM224.8 163.1ZM198.5 174.6ZM226.9 162.6ZM227.7 162.3h.2-.2ZM228.4 162ZM218 166.5ZM221 165s.1 0 0 0ZM214.7 168ZM220.9 165.1h.1-.1ZM231.2 161ZM231.3 161v-.1ZM231.4 160.8ZM230.4 161.3ZM230.1 161.4h.3v-.1h-.3ZM228.8 161.4h.3s-.2-.1 0-.2c-.4 0 0 .1-.3.2ZM228.1 161.6c.1 0 0 0 0 0ZM223.2 163.7v-.1c-.1 0 0 0 0 0ZM222.5 164.5ZM221.6 164.1ZM213.4 167.6c.1 0 0-.1 0 0ZM209.9 169.2h-.3.3ZM199 173.4h.1ZM234.3 155.1s0-.1 0 0ZM233.8 155c-.1.2-.2.3 0 .4v-.3H234.1h-.3ZM226.7 157.8ZM222.4 159.5ZM221.6 159.7ZM226.7 157.8h-.1.1ZM232.9 155.8v-.1ZM228.6 157v-.1ZM230 156.3v.2-.1ZM232.4 155.5ZM227.5 157.3ZM186.9 175v-.1ZM185 175.2v-.1ZM220.2 160.1ZM207.8 165.3c.2 0-.2.2 0 .2 0 0 .2-.2 0-.2ZM232.9 155.8h-.1ZM217 161.5h.1ZM219.4 160.7ZM216 162.1h-.2.1ZM214.7 162.6ZM190.7 173.3h-.1s-.2.1 0 0ZM232.9 155.7ZM216.2 162.9h-.2.2ZM199.7 169.6ZM215.4 163.2h-.2.2Z"/><path fill="#1d1d1d" d="M189.3 174c2-1.5 4.7-1.8 6.9-3l6.6-2.7c5.2-2.2 10.5-4.2 15.6-6.5 2.4-1 4.8-2.3 7.4-3.2 2.4-1.2 5-1.9 7.3-3.1-2 .2-3.8 1.5-5.8 2-2.2 1-4.5 2-6.8 2.5-1.8 1-3.7 1.7-5.6 2.6-2.4 1-4.8 2-7.2 2.8l-12 4.9c-2 1.1-4.2 1.6-6.2 2.8-1.2.6-4 1.1-4.2 2.1 1.5.2 2.6-1.2 4-1.2zm4.4-2.1h-.1zm.3-.2c-.1.4-.2-.2 0 0zm-1-.3c.2-.2 0 .2 0 0z"/><path fill="#1D1D1D" d="M193 171.6h-.1ZM226.8 157.8ZM199.3 169.8ZM229 157.3ZM229.8 157h.2-.2ZM219.7 161.3ZM222.9 159.7l-.1.1s.1 0 0 0ZM216.2 162.9ZM222.6 159.9h.2-.2ZM233.5 155.5ZM233.5 155.5ZM233.6 155.4ZM232.6 155.8ZM232.3 156h.3v-.1h-.3ZM231 156h.2v-.1c-.3 0 .1 0-.2.1ZM230.3 156.3v-.1c-.1 0-.1 0 0 0ZM225.1 158.4v-.1ZM224.3 159.2h.1ZM223.5 158.9h-.1ZM214.9 162.5s0-.1 0 0ZM211.2 164.1h-.3.3ZM199.9 168.5ZM213 154.9s0-.1 0 0ZM212.7 154.8v.3-.3l.2.1c0-.1-.1-.1-.2 0v-.1ZM206.3 157.2ZM205.8 157.3ZM208.7 156.3ZM212.3 155.3ZM209.8 155.7ZM210.6 155.4v.1-.1ZM212 155ZM209.2 156ZM186.5 166.2ZM185.3 166.2v-.1ZM205 157.5ZM198 160.4c.2 0 0 .2.1.2v-.2ZM212.3 155.3ZM198.1 160.6ZM203.3 158.2ZM204.6 157.8ZM202.7 158.7ZM202 159ZM188.6 165.3s-.1 0 0 0ZM212.3 155.2ZM203 159.4h-.2.1ZM193.7 163.2ZM202.5 159.6h-.1Z"/><path fill="#1d1d1d" d="M187.9 165.7c1.2-1 3.1-1.3 4.7-2.1l6.4-2.6c3.6-1.3 7-3.3 10.6-4.6.8-.5 4.4-1.8 1.7-1.2-2.1 1-4.3 1.7-6.5 2.5-2.5 1.2-5 2.3-7.6 3-2.3 1.2-4.7 2-7 3.2-1.4.8-4 1.2-4.7 2.4 1 .3 1.6-.7 2.4-.6zm2.4-1.3zm.2 0c-.2 0-.1-.2 0 0zm-.7-.5c0-.1 0 .1 0 0z"/><path fill="#1D1D1D" d="M189.8 164ZM208.8 156.3ZM193.4 163.3ZM210 156.1ZM211 155.8ZM205 158.4c-.1 0 0 0 0 0ZM206.6 157.5ZM203 159.4ZM206.5 157.6h.1ZM212.6 155.2ZM212.7 155.1ZM212.7 155v.1ZM212.1 155.3ZM212 155.4h.1-.1ZM211.1 155.2h.2s-.1 0 0 0c-.3-.1 0 0-.2 0ZM210.7 155.4v-.1ZM207.8 156.6v-.1ZM207.5 157.2ZM206.9 156.8ZM202 158.8l.1.1s0-.1 0 0ZM200 159.8h-.1.1ZM193.6 162.2ZM203 154.8ZM202.8 154.7v.3c0-.1.1-.1 0-.2h.1s.1 0 0 0c0-.1 0-.1 0 0v-.1ZM200.3 155.6ZM198.7 156.1ZM198.4 156.1ZM200.3 155.6ZM202.6 155.1ZM201 155.2ZM201.4 155ZM202.3 154.8ZM200.6 155.3ZM186.4 162ZM185.6 161.8ZM193.6 158v.3-.2ZM202.6 155.1ZM193.6 158.3ZM196.8 156.7ZM196.5 157ZM196 157.2ZM187.7 161.4ZM202.6 155v.1ZM196.7 157.8ZM190.9 160v.1ZM196.5 157.9h-.1Z"/><path fill="#1d1d1d" d="M187.3 161.8c.7-.9 2.3-1.1 3.4-1.7 1.4-.4 2.7-1.2 4-1.5 1.4-.7 2.9-1.2 4.1-2 1.4-.5 2.6-1.2 4-1.6-1.7-.1-3.1 1-4.8 1.3a22 22 0 0 1-5 2c-1.7.8-3.5 1.4-5 2.3-.7.3-3 .9-2 1.5.5 0 1-.7 1.3-.3zm1.4-1zm.2 0c-.1 0 0-.2 0 0zm-.6-.6c.2 0 0 .2 0 0z"/><path fill="#1D1D1D" d="M188.3 160.4ZM200.3 155.6ZM190.8 160.2ZM201.2 155.6ZM201.5 155.5ZM201.8 155.4ZM198 157.1ZM199 156.4ZM196.8 157.8ZM199 156.5ZM202.8 155ZM202.8 155ZM202.9 155ZM202.5 155.1ZM202.4 155.2h.1s-.1-.1-.1 0ZM201.8 155h.1v-.2c-.2 0 0 0 0 .1ZM201.5 155v-.1ZM199.7 155.7ZM199.6 156.3ZM199.1 155.8ZM196 157l.1.2v-.1ZM194.8 157.7h-.1ZM190.8 159.2ZM193.6 154.8s0-.1 0 0ZM193.4 154.6l.1.3v-.2ZM192.1 155ZM191.3 155.2ZM191.2 155.2ZM192.1 155ZM193.4 155ZM192.4 154.7ZM192.7 154.6ZM192.2 154.8ZM185.3 158.5ZM184.8 158.2ZM188.7 156.1v.2-.2ZM193.4 155ZM188.8 156.3ZM190.3 155.4ZM190.8 155.4ZM190.2 155.7ZM190 155.7ZM186 158.2h-.1ZM193.4 154.9ZM190.5 156.4ZM190.3 156.4Z"/><path fill="#1d1d1d" d="M185.7 158.5c0-.4.1 0 .1-.3 0-.5.2.3.3-.1 0 0 .2-.2.6-.2.3-.5.9-.3.8-.4l.7-.2c.3-.4.8-.3 1.3-.5l1.2-.6.2-.1c.3 0 0-.5.3-.2 0-.2.4 0 .4-.4.2.1.5-.1.8-.3.4 0 .1-.3.5 0-.1-.4.3.1.3-.4 0 0 .4.2.2-.1-.1 0-.4-.2-.4 0-.2.1-.8-.1-.6.4-.2-.6-.5.3-.9-.1 0 .3-.2-.1-.1.3 0-.4-.3.2-.5-.2.1.4-.1-.2 0 .2 0 .3-.5-.2-.3.1.1.4-.1-.2-.2.2 0-.3-.1.3-.2 0 0 .3-.4.4-.5.2-.1.5-.2.1-.3.3 0 .3-.2-.2-.2.1-.2 0-.5-.2-.4.1-.3-.4-.4 0-.7.1 0 .4-.3-.2-.4.2-.4 0-.3.3-.8.2.2.4-.5 0-.4.5-.2.2-.3-.2-.5 0 .3.5-.1-.2-.1.3-.3 0-.7.4-1 .4 0 .2-.3-.2-.2.2.1.4.4.4.4.3.2 0 .2.1.4 0 0-.2.2-.2.2 0zm.8-.7c-.1 0 0-.1 0 0zm-.4-.6s-.1.2 0 0z"/><path fill="#1D1D1D" d="M186 157.4h.1ZM192.1 155ZM187.5 157.6ZM192.6 155.1ZM192.8 155.1ZM193 155.1ZM191.6 155.6ZM190.5 156.4ZM191.5 155.6ZM193.5 155ZM193.5 154.9ZM193.3 155ZM193.3 155ZM192.9 154.6c0-.1 0 0 0 0ZM192.7 154.6ZM191.8 155ZM191.8 155.5ZM191.5 155ZM190 155.6v.1ZM189.3 156ZM187.3 156.7ZM217.9 191h-.1v.1ZM217.4 191v.3-.2h.2l.1-.1h-.3ZM211.3 193.4ZM207.6 194.8ZM206.9 195ZM211.3 193.4ZM216.7 191.6ZM213 192.6ZM214.2 192v.2-.1ZM216.2 191.4ZM212 193ZM177.2 208.3ZM175.5 208.5ZM205.7 195.4ZM195 199.9c.2 0 0 .2.1.2 0 0 .1-.2 0-.2ZM216.6 191.6ZM203 196.5ZM205 195.8ZM202 197.1ZM201 197.5ZM180.4 207v-.1s-.2.1 0 0ZM216.7 191.6ZM202.3 197.8l-.2.1h.2ZM188.1 203.7ZM201.6 198.1Z"/><path fill="#1d1d1d" d="M179.3 207.6c2.7-1.7 5.8-2.6 8.7-3.9 6.6-2.8 13.3-5.2 19.7-8.4 2.5-1.2 8-3.1 8.6-3.9l-11.3 4.4c-4.7 2.4-9.7 3.9-14.5 6-4 1.6-7.9 3.4-11.8 5.2-1.2 0-4.7 2.2-1.6 1.3.7-.3 1.4-.8 2.2-.7zm3.7-2v.1zm.3 0c-.2.2-.2-.2 0 0zm-1-.4c.3-.2 0 .2 0 0z"/><path fill="#1D1D1D" d="M182.3 205.3ZM211.4 193.3ZM187.8 203.9ZM213.3 193ZM214 192.6h.2-.2ZM214.6 192.4ZM205.4 196.4ZM208 195v.1ZM202.3 197.8ZM207.9 195.2h.1-.1ZM217.2 191.4ZM217.2 191.4ZM217.3 191.3ZM216.4 191.7ZM216.2 191.8h.2-.2ZM215 191.8h.2v-.2c-.3 0 0 .1-.2.2ZM214.4 192s-.1 0 0 0ZM210 193.9v-.1c-.1 0 0 0 0 0ZM209.3 194.6h.1-.1ZM208.6 194.3h-.1ZM201.1 197.4h.1ZM198 198.8h-.2.2ZM188.3 202.7ZM215.2 195.9l-.1-.1v.1ZM214.7 195.8v.3-.2h.2v-.1l-.2.1ZM208.4 198.2ZM204.6 199.8ZM203.9 200ZM208.4 198.2ZM214 196.5v-.1ZM210 197.4h.1ZM211.4 196.9v.1-.1ZM213.5 196.2ZM209.1 197.8ZM173.4 213.6ZM171.7 213.8ZM202.7 200.3ZM191.8 205c.1 0-.2.1 0 .2v-.3ZM213.9 196.5ZM191.8 205.2ZM200 201.5ZM202 200.8ZM199 202l-.1.1ZM197.8 202.5ZM176.7 212.2v-.1s-.2.1 0 0ZM213.9 196.4ZM199.2 202.8l-.2.1h.2ZM184.6 208.8ZM198.5 203.1h-.1.1Z"/><path fill="#1d1d1d" d="M175.6 212.8c1.4-1.3 2.7-1.2 4.7-2.2 2-1.1 4.3-1.6 6.3-2.6 1.8-.6 3.7-1.8 5.7-2.3 3-1.2 5.8-2.4 8.7-3.8 1-.4 3.7-1.8 5.4-2.4l5.2-2.3c.7.1 2.8-1.1 2.6-1.1-1.9.4-3.7 1.4-5.3 1.9-1.6.9-3.6 1.3-4.8 2-1.2.1-2.6 1-3 1.2l-5.2 2.3c-1.8.8-2.1.5-4 1.6-2.5.5-4.8 2-7.2 2.8-1.7.4-4.3 2.2-5.2 2.2-1.6.9-4 1.9-6.2 2.8-1 0-2.3 1.4-.7 1 .9-.3 2.4-1.2 3-1.1zm3.8-2-.1.1zm.3 0c-.2.2-.2-.3 0 0zm-1-.4c.2-.1 0 .2 0 0z"/><path fill="#1D1D1D" d="M178.7 210.6ZM208.5 198.2ZM184.3 209ZM210.4 197.8ZM211.2 197.5h.1ZM211.8 197.3ZM202.3 201.4ZM205 200s.1 0 0 0ZM199.2 202.8ZM204.9 200.1h.1-.1ZM214.5 196.2ZM214.5 196.2ZM214.6 196.1ZM213.7 196.5ZM213.4 196.6h.3-.3ZM212.2 196.6h.2v-.1c-.3 0 .1 0-.2.1ZM211.6 196.9v-.1c-.1 0-.1 0 0 0ZM207 198.8v-.1ZM206.4 199.6v-.1ZM205.6 199.2h-.1ZM198 202.4c.1 0 0 0 0 0ZM194.7 203.9h-.2.2ZM184.8 207.8ZM211.9 201h-.1v.1ZM211.4 201v.3-.3h.2-.2ZM205.4 203.3ZM201.7 204.8ZM201 205ZM205.4 203.3h-.2.2ZM210.7 201.6ZM207 202.5ZM208.2 202v.2-.1ZM210.2 201.4ZM206 202.9ZM171.5 218.1ZM169.9 218.3ZM199.8 205.3ZM189.2 209.8c.2 0-.1.2.1.2 0 0 .1-.2 0-.2ZM210.6 201.6ZM189.3 210ZM197.1 206.5ZM199.2 205.8ZM196.2 207h-.1ZM195.1 207.5ZM174.7 216.7s-.2.1 0 0ZM210.6 201.6ZM196.4 207.8h-.1.1ZM182.4 213.5ZM195.8 208h-.2.2Z"/><path fill="#1d1d1d" d="M173.6 217.4c2.6-1.6 5.7-2.6 8.5-3.7 6.5-2.8 13.1-5.2 19.4-8.4 2.8-1.2 7.6-3 9-4-3.3 1.1-6.6 2.7-10 3.9-4 1.7-8 3.6-12.2 5a354 354 0 0 0-15.3 6.6c-1.3 0-4.6 2.4-1.6 1.3.7-.2 1.4-.8 2.2-.7zm3.7-1.9h-.1zm.3-.1c-.2.2-.2-.2 0 0zm-1-.4c.3-.2 0 .2 0 0z"/><path fill="#1D1D1D" d="M176.6 215.2ZM205.4 203.3ZM182 213.7ZM207.3 203ZM208 202.6h.2-.1ZM208.7 202.4ZM199.5 206.4ZM202.1 205ZM196.5 207.8ZM202 205.1ZM211.2 201.4ZM211.2 201.4ZM211.3 201.3ZM210.4 201.7ZM210.2 201.8h.2-.2ZM209 201.8h.2v-.2c-.3 0 0 0-.2.2ZM208.4 202c.1 0 0 0 0 0ZM204 203.8ZM203.4 204.6ZM202.6 204.2ZM195.3 207.3ZM192.1 208.7h-.2.2ZM182.5 212.5ZM208.5 206.4s0-.1-.1 0ZM208 206.3v.3-.2H208.4h-.3ZM202 208.6ZM198.3 210.1ZM197.7 210.2ZM202 208.6h-.1.1ZM207.3 207v-.1ZM203.6 207.9ZM204.8 207.3v.2-.1ZM206.8 206.7ZM202.7 208.2ZM168.4 223.4ZM166.8 223.5ZM196.5 210.6ZM186 215c.2 0-.1.2.1.3 0 0 .1-.3 0-.2ZM207.2 207ZM186.1 215.3ZM193.9 211.8ZM195.9 211ZM193 212.3h-.2.1ZM191.8 212.8h.1ZM171.6 222s-.2 0 0 0ZM207.3 206.9ZM193.2 213l-.2.1h.2ZM179.2 218.8ZM192.5 213.4h-.1.1Z"/><path fill="#1d1d1d" d="M170.5 222.6c2.6-1.5 5.6-2.4 8.3-3.6 6.9-3 13.8-5.5 20.5-8.9 2.6-.9 5-2.2 7.6-3 .5-.9-4 1.3-5.4 1.7-5.5 1.9-10.6 4.8-16.2 6.5-3.3 1.6-7 2.7-10.2 4.6-2.8 1-5.6 2.2-8.1 3.5 1 .8 2.4-1 3.5-.8zm3.7-1.8h-.1zm.3-.2c-.2.2-.2-.1 0 0zm-1-.3c.2-.2 0 .1 0 0z"/><path fill="#1D1D1D" d="M173.5 220.4ZM202 208.6ZM178.9 219ZM204 208.2ZM204.7 208h.1-.1ZM205.3 207.7ZM196.2 211.7ZM198.8 210.3v.1ZM193.2 213ZM198.6 210.5h.1ZM207.8 206.7ZM207.8 206.7ZM207.9 206.6v.1ZM207 207ZM206.8 207.1h.2-.2ZM205.6 207.1h.3s-.2 0 0-.1c-.4 0 0 0-.3.1ZM205 207.3c.1 0 0 0 0 0ZM200.7 209.1c-.1 0 0 0 0 0ZM200 210h.1v-.2.1ZM199.3 209.5h-.1ZM192 212.6c.1 0 0 0 0 0ZM188.9 214h-.2.2ZM179.4 217.8Z"/><path fill="#000" d="M102.4 299.6c-28-2.3-57.8-11.4-74.9-35.3C5.1 235.3 2.2 197 .3 161.7c-1-38.6.3-79.2 18-114.5a85.4 85.4 0 0 1 61-43.6C108.5-2 139-1 167.7 6a84.6 84.6 0 0 1 58.5 51.3c15 36.1 14.2 76 13.4 114.5-1.7 32.3-7 66.4-26.5 93-19.7 26-53.7 34.5-84.8 34.9-6.6 1.2-14-1.7-3.1-1.9 30.1-.1 63-6.9 83.8-30.6 22-27.5 27.2-64 29-98.2.6-41.3 1.2-85.2-19.2-122.5C204.3 19.6 174 6 144.5 3.8 110.6.8 73.5.2 44.3 20.3 21.3 35.9 11 63.6 6.8 90 1.2 116.6 2 144 2.6 171.2c2.6 35 7.3 73.8 33.5 100 20.3 20.8 50.6 26.2 78.5 26.9 12.6 1.9-11.2 2.2-12.2 1.5z"/></g></g><defs><clipPath id="a"><use xlink:href="#reuse-0"/></clipPath><clipPath id="b"><use xlink:href="#reuse-0"/></clipPath></defs></svg>