<svg xmlns="http://www.w3.org/2000/svg" xmlns:xlink="http://www.w3.org/1999/xlink" width="240" height="301" fill="none"><defs><path id="reuse-0" fill="#fff" d="M118.5 300.5C35.8 300.5 2 257 2 150.8 2 43.3 33.1 3.4 116.8 3.4 192 3.4 238.5 28 238.5 150.8c0 55.1-9.2 93.2-28.1 116.4-18.5 22.7-47.7 33.3-91.9 33.3Z"/></defs><use xlink:href="#reuse-0"/><mask id="a" width="237" height="298" x="2" y="3" maskUnits="userSpaceOnUse" style="mask-type:luminance"><use xlink:href="#reuse-0"/></mask><g mask="url(#a)"><path fill="#000" d="M161.7 188.6s-.1-.1-.2 0h-.1c0-.1 0 0 0 0h-.2s0 .1-.1 0h-.2c-.2.1-.3 0-.4 0 0-.2-.1 0-.2-.2v.1h-.2s0-.2-.1 0h-.2c0 .1 0 0 0 0H159.4v.1h-.2v-.2h-.4l-.1-.1c0-.1 0 .1 0 0-.1-.1-.1 0-.2 0l-.1-.1-.1.1h-.1v.1l-.2-.1.2-.1h.5v.2h.1c0 .1 0 0 .1 0l.2.1s.1 0 0 0h.1l.2.2v.2c.1 0 .1.1.2 0 0 0 0 .1.1 0 .1 0 .1.1.2 0 0 0 0 .1.1 0 0 0 0 .1 0 0h.1l.1.2h.2s0 .1 0 0h.3v.1c.1 0 0 .2.1 0h.1s.1 0 0 .2h.1c0-.1 0 0 .1 0h.2v.2h.1v.6l-.1.1-.2.3s0-.2-.2-.2v-.1s0-.2-.1-.1h-.2v-.1h-.1v-.1h-.5c0-.1 0-.1-.1 0 0-.2 0-.1-.1-.1v-.1h-.4c0-.1-.1 0-.1 0h-.1v-.1l-.1-.1c-.1 0-.2 0-.1-.1h-.1v-.1h-.2v-.1h-.2v-.1h-.1c0-.1-.2 0-.2 0v-.1h-.4c.1-.2 0 0 0 0v-.1l-.4-.2c0-.2 0-.1-.2-.2v-.1l-.1-.3.1-.2.2-.2.3-.2c0-.2 0-.3.1-.1 0-.2 0-.1.1-.1l.3-.2c.1.2.1 0 .1 0h.1c0 .2 0 .1.1 0 .1.2.2.1.2.1h.2s0 .1 0 0h.1l.1-.1c0 .2.1.3.2.3H160.4c0-.1 0 0 .1 0h.1l.2.1h.6v-.1c.1.3.2-.2.2 0H161.9c0-.1 0-.1 0 0V188.6h-.1Z"/><path fill="#fff" d="m106.3 80.4 66.1 5.7v108.7h-66.1V80.4Z"/><path fill="#000" d="M112.3 80.5c20.2 1.7 40.5 3 60.7 5.1-.2 18.6.4 37.3-.1 56-.2 17.6 0 35.3 0 53-3 2-8.6 0-12.6.7-18.2.1-36.4 0-54.6.2 0-12.9.4-25.7 0-38.6.3-25.4-.2-50.8.4-76.2 1.5 5.7.1 11.7.5 17.5-.1 20.7.2 41.4.1 62 .2 11.6 0 23 0 34.6 4.4-.9 9.5 0 14.2-.3l47.7-.3c5 1.9 3-3.7 3.4-6.6-.3-18.8 0-37.7-.2-56.5.5-10.7 0-21.4.2-32.1-.4-4 .5-10.1-.6-12.6-4.8 0-9.5-1-14.3-1.3l-47.4-4c-2.1 0-4.6-1.2-.9-1l3.5.4z"/><path fill="#000" d="M115.5 147v-26l2.5 7.3s6.9 1 7.1 5.7c.3 4.8 0 3.3 0 3.3s.4 1.8-3.7 1.5c-4-.3-5.9 8.1-5.9 8.1Z"/><path fill="#000" d="M115.4 146.3v-1.1a155.3 155.3 0 0 1 0-1.6v-1.9l-.1-1.6-.1-2.4v-5.1c-.1-.3 0-.5-.2-.7 0 0 .1-.3 0-.4V127.5l.1-1.2V124c.1 0 0-.1 0-.2.1-.2 0-.3 0-.4V122l.1-.5v-.6c0-.2.1-.3.3-.3.2 0 .3 0 .3.2l.1.2c.1.2.1.5.3.6l.1.4v.3l.3.5c.1.2 0 .4.2.5v.1l.2.5c.2.2.2.4.2.6l.2.6s.2 0 .2.3v.3l.2.4c0 .6.4 1.2.5 1.8v.2l-.3-.3c.3 0 .5 0 .7.2H119.6l2.1.8 1.3.7.3.3.4.2h.1c0 .4.4.5.6.7.4.4.6 1 .8 1.4 0 .1 0 .3.2.3l.1.3s.1.3 0 .4v.4l.1.4v2.3c-.1 0 0 .1 0 .2 0 .3-.1.6 0 .8v.2l-.3.3c-.1.1-.4 0-.4-.1V137.4c-.1-.2 0-.4.2-.4.1 0 .3 0 .4.2v.9c-.3.4-.8.6-1.1.9h-.5c-.1 0-.3 0-.3.2h-2.3c-.2-.1-.3 0-.4 0-.3-.1-.4.1-.6.2-.3 0-.5.1-.6.3l-.8.8-.2.2-.1.1-.1.2c0 .2-.4.2-.3.4l-.3.5-.3.5-.1.3-.2.2-.1.5-.5 1.3-.3.5c0 .2 0 .4-.2.6v.3l-.2.3v.2l-.3.3c-.2.2-.2 0-.2-.1 0 0-.1-.2-.2 0-.3-.2-.2-.3-.2-.7l.5-1.4c.3-.2.3-.6.4-.9.2-.3.4-.5.5-.9l.3-1 .5-.5c0-.3.2-.5.4-.7 0-.1.3-.2.3-.4l.6-.8 1.1-.9c.3 0 .5-.2.8-.3H122.2c.1 0 .3.2.4.1h.7c.2-.2.3-.2.5-.2l.8-.5v-.3l1-.2v.1s.1 0 0-.2c-.3-.2-.6-.1-.8.1v.2c-.2 0-.1-.4-.1-.6v-.5l.1-.5V133.4l-.2-.6-.1-.4-.3-.3c0-.1 0-.2-.2-.3l-.2-.4-.3-.3-.3-.3-.4-.3c-.3-.3-.7-.4-1-.6l-.4-.2h-.3l-.1-.1c-.1 0-.2-.2-.3-.1l-.3-.1c-.2 0-.3-.2-.4 0-.1-.3-.4-.1-.6-.3h-.1l-.1-.1-1.3-.2a.5.5 0 0 1-.4-.3l-.1-.4-.1-.2c0-.4-.1-.4-.3-.6v-.2l-.3-.6v-.6c0-.2 0-.4-.2-.6l-.4-1.4-.1-.2c-.2-.1-.3-.2-.1-.4-.2-.1-.2-.3-.3-.5l-.6-1.5v-.1l1.1-.2v4.2c0 .1-.1.3 0 .4V127c-.1.2-.3.5-.2.8v4.1a51.6 51.6 0 0 1 0 .9V135.4l-.1.8v1.4l-.1 1.3v6.8l-.1 1v.4-.1l-.1-.2v-.5Z"/><path fill="#000" d="M111.8 81v12l12 97.2v-108l-12-1.3Z"/><path fill="#000" d="M113.4 86c-.9 6.2 1.8 12.1 1.8 18.3 1 6.7 2 13.3 2.2 20 .8 8.5 2.7 16.8 3.7 25.2 0 9.4 1.5 18.8 2.4 28.3.7 4 2.7 8.3 1.1 12.4-4.7-.7-2.4-6.6-2.2-9.8.3-3.6-.4-7.2-.4-10.9a515 515 0 0 1 0-31.6c.6-5 1-10 .2-15-.4-7.8.6-15.6-.1-23.3-.2-5.7 0-11.3 0-17-.1 2.5-5.8-.2-7.9-.6-3.6-.3-1.6-4.1 1.3-2.6 3.4 1.2 9-.3 9.8 4.5.5 4.3-.8 8.5-.3 12.8.4 6.4.8 12.8.2 19.2 0 6.5 1.1 13 0 19.4-.3 12.9-.3 25.8.4 38.6-.1 5 .9 10 0 15-.6 3.5-4.5 2-3.7-1.1-2-11.3-3.1-22.7-4.4-34.1-.1-4-.4-8-1.2-12-.6-5.3-1.1-10.7-2.2-16-.5-12-3.2-23.9-4-36 .3-2.6-1-8.2 1.5-9a9.5 9.5 0 0 1 1.8 5.3z"/><path fill="#000" d="M118 128.3a72.9 72.9 0 0 1-5.4-29c0-3.6-.4-7.4 1-10.8 1-2 3.3-2 5.2-1.7 2.8.2 5.7.3 8.5.8 2.7 1.4 2.6 4.9 2.3 7.5-.8 7.1-2.4 14.2-3.8 21.3l-2.8 13.8-5-1.9z"/><path fill="#000" d="M116.5 126.9c-4-9.5-4.8-19.8-5-30 .5-3.6 0-9.6 4.5-10.7 4.8.3 11.8-1.7 14 4.1 2 6.6-1.4 13.3-2.4 19.8-.8 6.7-2.7 13.1-3.5 19.8-1.9 3.8-8.2-3.7-3-1.1 3.6.7 1.8-7.1 3.5-9.5 1.2-8.3 3.5-16.4 4.6-24.6 1-6.8-6.7-7.6-11.6-7-5.7.3-4 7.4-4.4 11.2.2 8.8.7 18 4.5 26 .4 1.3.8 5.5-1.2 2zM113.5 175.1v21l11.7-.3v-20.2l-11.7-.5Z"/><path fill="#000" d="M113.7 176.6v1a135.8 135.8 0 0 0 0 1.7l.1.6v12.4l.1.7v2.4l-.1.6-.4-.3h3.1c.1 0 .3-.1.4 0h1l.3-.1h.5l.3.1h.5l.7-.1H121.5l.5-.1h1.9c.2 0 .2-.2.4 0h.4s.2-.1.4 0l-.3.3V194l.1-.8v-.6l-.1-.4v-7.5c-.1 0-.1-.3 0-.4v-2.4l.1-.3V180.9c0-.3.1-.6 0-.8v-1l-.1-1.1V175.6l.4.4h-.8l-.4-.1h-2.8l-.3-.1h-.4c-.1 0-.4-.2-.5 0h-1.2l-.4-.1h-.7l-1.4-.1-.7-.1H114.7l-.4-.1h-.3l-.6-.3v-.1c0-.2 0-.2.5-.2l1.5.1 1 .1h2.1l.8.1h.8c.2.1.4.2.5.1h4.1l.5.1c.1 0 .3.1.3.3v4.3l.1.7v.5l-.1.5V185l-.1.4V190.7c.1.1 0 .2 0 .4l.1.3v3c.1 0 .1 0 0 0v.7l.1.2v.5c0 .2 0 .4-.3.4h-.1l-.1.1h-.7c-.2-.1-.4-.2-.6-.1H122.1c-.2.1-.3.2-.5 0h-.5l-1.6.2h-.8c-.3-.1-.6-.1-.8 0H113.5a.4.4 0 0 1-.5-.3v-.6l.2-.8v-1.1c-.1-.1 0-.3 0-.4V188.8c-.1 0 0 0 0-.1l-.1-.6v-2.4l.1-1.3v-8.8l.1-.6.2.2.1.3.1.5v.6Z"/><path fill="#000" d="M119.6 139s-7.4 14-7.6 26.4c-.2 12.4-.3 14.6 6.7 16.8 7 2 8.6 2.5 9.2-7.2.6-9.7-.2-19.6-2-26.3-1.7-6.6-2.4-10.3-2.4-10.3s-3-1-3.9.6Z"/><path fill="#000" d="M119.5 141c-2.8 6-4.7 12.2-6.1 18.5-.7 5.5-.6 11.1-.5 16.7.5 3 3.6 4.8 6.4 5.5 1.7.4 3.4.6 5.1.6 2.5-1.3 2.8-4.4 2.7-6.9-.1-2.4-.3-4.8.1-7.2.5-8.5-1-17-3.5-25 .3-2.1-1-4.6-3.3-4.9-1.7 0 1.5-1.8 2.3-1 2.1 1.1 2.7 3.8 2.6 6 1.1 4.8 2.6 9.6 3 14.5.9 7.6.2 15.3-.2 23-.6 3.5-5.4 4.6-8 2.5-3.2-.6-7-1.8-8.2-5.1-1.6-5.7-.4-11.6-.3-17.3 1-6.8 3.6-13.2 5.8-19.6.4-1 3.2-3.8 2.1-.2zM153.3 158.3l.1-.2a7.3 7.3 0 0 1 .1-.2l.4-.5.3-.5.3-.7v-.2a11.5 11.5 0 0 0 .5-1l.6-2.1.1-.3.1-.4v-.3l.2-.5v-.5l.2-.7.1-1.2.1-1v-1.1l.1-.3v-1.1l.1-.7v-1.1c.2-.3 0-1.2 0-1.6v-.2l.1-.9V133.6l-.1-.6v-.7l-.1-1v-.3l-.1-.6v-.2l-.2-1.3v-.4l-.1-.6v-.4l-.1-.1v-.2l-.3-.9-.4-1.6-.1-.5v-.1l-.2-.4-.6-1.5c-.4-.7-.8-1.6-1.3-2l-.1-.2-.2-.2-.2-.2v-.2h-.2v-.2l-.2-.1-.2-.2v-.1l-.5-.4-.1-.1-.2-.2-.5-.5c-.2 0-.4-.2-.6-.4h-.2l-.2-.2-.8-.4-.8-.4h-.1l-.1-.1h-.1l-.1-.1-.4-.1-.8-.3-.6-.1-.3-.1h-.4l-.2-.1H144.7l-.3-.1-.8-.1h-1.1a9 9 0 0 0-.6 0h-1.1l-.4.1h-.3l-.2.1h-.2v.1h-.4l-.3.2h-.2l-.2.1-.4.2-.6.3-.2.1-.5.4h-.2c0 .2-.3.4-.5.5l-.7.6-.6.8-.3.3-.7 1.1v.1l-.4.7-.1.2-.1.2v.2l-.2.1v.2l-.1.2v.2l-.1.2-.1.2-.1.3-.1.3-.1.3v.1l-.1.2v.3l-.2.7-.1.2v.3l-.2.7-.2.7v.3l-.2 1.6v.3l-.1.5v.3l-.1.3v.3l-.1.7v1.2l-.2.9V136.9c0 .5-.2 1.2-.1 1.7V143.7l.1.8v1l.1.4v1l.1.2V148l.2.5v1.1l.2.3v.8h.1v.5l.2.5.2.8v.2l.1.2V153.3l.3.5V154l.2.4v.2l.1.2.2.4c0 .3.2.5.3.7l.2.4.3.6v.2h.1l.1.2.2.2.2.4.3.3.3.5h.1v.1l.3.3.2.2.5.5.2.2.3.2.2.2.7.5.3.2.1.2.5.2.6.4.4.1.3.2h.2l.3.1.5.2h.1l.2.1h.4v.1H142l.1.1h.2l.3.1h.6l.4.1h2.6l.3-.1h.2l.6-.2.4-.1h.2l.3-.2.6-.2.2-.1h.1l.1-.1.1-.1h.1v-.1h.1l.4-.2.1-.1.2-.1.7-.5.4-.3.9-.8c.3-.3.8-.8.9-1.1v-.2h.1v-.1h.1v-.1m-18.9-40.6h.1l.3-.4.1-.1v-.1h.1l.5-.5.2-.2.2-.2h.2c0-.2.4-.4.5-.5h.1l.7-.5h.2l.4-.2.3-.1.5-.2.3-.1.7-.2.5-.1H140.6l.3-.1h3.4l.7.2h.5l.5.2h.5l.4.2h.2l.3.1.6.3h.2c.1.2.3.2.4.3l1 .5h.1l.3.2.3.2.5.4.4.3.7.6.5.4.3.3v.2h.1l.4.4.8 1v.2l.4.5v.2l.2.3h.1l.2.5.1.2V122.3l.1.1.1.1v.1l.2.5.2.5.1.2v.3l.2.3.1.5.2.6.1.7.2.7v.4l.1.4.2.9v.2l.2 1.3v1l.1.4v.5c.1 0 0 .2 0 .2l.1.1v1.8l.1.4v11.1l-.1.2v1.1l-.2 2.6v.3l-.1.2v.5l-.1.2V151.2l-.2.2v.4l-.1.5-.1.4-.1.4-.1.5-.2.6-.1.4-.2.4v.4l-.5.9-.3.8-.1.2-.5.9-.1.2-.4.6-.2.2-.1.2-.1.2-.1.2c-.2 0-.2.2-.3.3h-.1v.2h-.2v.2l-.4.3-1 .9-1 .7h-.2l-.4.3-.2.1-.2.2H149l-.1.1-.3.1-.4.1-.2.1-.3.1h-.1l-.4.1h-.2l-.2.1h-.5l-.4.1H143.4c0 .1-.1 0-.2 0l-.3.1h-.6v-.1h-.2l-.5-.1h-.1c-.1-.1-.2 0-.2 0l-.3-.2h-.2l-1.1-.4-1-.4-.6-.3-.3-.2-.2-.1-.3-.1v-.2l-.4-.2-.1-.1-.2-.2h-.1l-.1-.1-.1-.1h-.2l-.3-.4-.2-.3-.7-.5-.6-.8-.7-1c-.1-.4-.5-.8-.7-1.2l-.8-2.1-.4-1-.3-1.3-.2-.7v-.3l-.3-1.1v-.8l-.2-.7v-.6l-.1-.7v-.4l-.1-.8v-1.1l-.1-.5v-.5l-.1-2.3v-8.5l.1-.8V131.4l.1-.4v-.2l.1-1v-.6l.1-.1v-.5l.1-.8.1-.5a11 11 0 0 1 .2-1v-.4l.1-.4v-.3l.1-.1V124.8l.2-.5v-.2l.2-.7v-.2l.3-1.1.4-1 .3-.7.2-.3v-.2h.1v-.3l.2-.2.2-.3.4-.6.1-.2.1-.1.1-.2.2-.3"/><path stroke="#000" stroke-linecap="round" stroke-linejoin="round" stroke-width=".1" d="m153.3 158.3.1-.2a7.3 7.3 0 0 1 .1-.2l.4-.5.3-.5.3-.7s0 0 0 0v-.2a11.5 11.5 0 0 0 .5-1l.6-2.1.1-.3.1-.4v-.3l.2-.5s0 0 0 0 0 0 0 0v-.5l.2-.7.1-1.2.1-1v-.2s0 0 0 0V146.8s0 0 0 0l.1-.3v-1.1l.1-.7v-1.1s0 0 0 0c.2-.3 0-1.2 0-1.6v-.2l.1-.9V133.6l-.1-.6s0 0 0 0v-.1s0 0 0 0v-.6l-.1-1v-.3l-.1-.6v-.1s0 0 0 0v-.1l-.2-1.3v-.4l-.1-.6v-.4l-.1-.1s0 0 0 0v-.2l-.3-.9-.4-1.6-.1-.5v-.1l-.2-.4-.6-1.5c-.4-.7-.8-1.6-1.3-2l-.1-.2-.2-.2s0 0 0 0l-.2-.2v-.2h-.2v-.2l-.2-.1-.2-.2v-.1l-.5-.4s0 0 0 0l-.1-.1-.2-.2s0 0 0 0l-.5-.5c-.2 0-.4-.2-.6-.4h-.2l-.2-.2-.8-.4-.8-.4h-.1l-.1-.1h-.1l-.1-.1s0 0 0 0l-.4-.1-.8-.3s0 0 0 0l-.6-.1-.3-.1h-.4l-.2-.1H144.7l-.3-.1-.8-.1h-1.1a9 9 0 0 0-.6 0h-.5s0 0 0 0h-.6l-.4.1h-.3l-.2.1h-.2v.1h-.4l-.3.2h-.2l-.2.1s0 0 0 0l-.4.2-.6.3-.2.1-.5.4h-.2c0 .2-.3.4-.5.5l-.7.6-.6.8-.3.3-.7 1.1v.1l-.4.7-.1.2s0 0 0 0l-.1.2s0 0 0 0 0 0 0 0v.2l-.2.1s0 0 0 0v.2l-.1.2v.2l-.1.2-.1.2-.1.3-.1.3-.1.3v.1l-.1.2v.3l-.2.7-.1.2v.3l-.2.7-.2.7v.3s0 0 0 0l-.2 1.6v.3l-.1.5v.3l-.1.3v.3l-.1.7v.1s0 0 0 0v.1s0 0 0 0v1l-.2.9s0 0 0 0V136.9c0 .5-.2 1.2-.1 1.7v1.2s0 0 0 0v3.9l.1.8v1l.1.4v1s0 0 0 0l.1.2V147.7s0 0 0 0v.3l.2.5s0 0 0 0v1.1l.2.3v.8h.1v.2s0 0 0 0v.3l.2.5.2.8v.2s0 0 0 0l.1.2s0 0 0 0V153.3l.3.5V154l.2.4v.2l.1.2.2.4v0c0 .3.2.5.3.7l.2.4.3.6v.2h.1l.1.2.2.2s0 0 0 0 0 0 0 0l.2.4.3.3.3.5h.1v.1l.3.3.2.2.5.5.2.2s0 0 0 0l.3.2.2.2.7.5.3.2.1.2.5.2.6.4.4.1s0 0 0 0l.3.2h.2s0 0 0 0l.3.1.5.2s0 0 0 0h.1l.2.1h.2s0 0 0 0h.2v.1h.2s0 0 0 0h.4l.1.1h.2l.3.1h.6l.4.1h1.6s0 0 0 0h1l.3-.1h.2l.6-.2.4-.1s0 0 0 0h.1s0 0 0 0h.1l.3-.2.6-.2.2-.1h.1l.1-.1.1-.1h.1v-.1h.1l.4-.2.1-.1s0 0 0 0l.2-.1.7-.5s0 0 0 0l.4-.3.9-.8c.3-.3.8-.8.9-1.1v-.1s0 0 0 0v-.1h.1v-.1h.1v-.1m-18.9-40.6s0 0 0 0h.1l.3-.4s0 0 0 0l.1-.1v-.1h.1s0 0 0 0l.5-.5s0 0 0 0l.2-.2s0 0 0 0l.2-.2h.2c0-.2.4-.4.5-.5h.1l.7-.5h.2l.4-.2.3-.1.5-.2.3-.1.7-.2.5-.1H140.6l.3-.1h.1s0 0 0 0h3.3l.7.2h.1s0 0 0 0h.4l.5.2h.5l.4.2h.2l.3.1s0 0 0 0 0 0 0 0 0 0 0 0l.6.3h.2c.1.2.3.2.4.3l1 .5h.1l.3.2s0 0 0 0l.3.2.5.4.4.3.7.6s0 0 0 0l.5.4.3.3v.2h.1s0 0 0 0l.4.4.8 1v.2l.4.5v.2l.2.3s0 0 0 0h.1l.2.5.1.2s0 0 0 0V122.3l.1.1.1.1v.1l.2.5s0 0 0 0l.2.5.1.2v.3l.2.3.1.5.2.6.1.7.2.7v.4l.1.4.2.9v.2l.2 1.3v1l.1.4v.4s0 0 0 0 0 0 0 0v.1c.1 0 0 .2 0 .2l.1.1v1.8l.1.4v11.1l-.1.2s0 0 0 0v1.1l-.2 2.6s0 0 0 0v.3s0 0 0 0l-.1.2v.4s0 0 0 0v.1l-.1.2V151.2l-.2.2s0 0 0 0v.4l-.1.5-.1.4-.1.4-.1.5-.2.6-.1.4-.2.4v.1s0 0 0 0v.3l-.5.9-.3.8s0 0 0 0l-.1.2-.5.9-.1.2-.4.6-.2.2-.1.2-.1.2-.1.2s0 0 0 0c-.2 0-.2.2-.3.3 0 0 0 0 0 0h-.1v.2h-.2s0 0 0 0v.2l-.4.3-1 .9-1 .7h-.2l-.4.3s0 0 0 0 0 0 0 0l-.2.1s0 0 0 0 0 0 0 0l-.2.2H149s0 0 0 0l-.1.1s0 0 0 0l-.3.1s0 0 0 0l-.4.1-.2.1s0 0 0 0l-.3.1h-.1l-.4.1h-.2l-.2.1h-.5l-.4.1s0 0 0 0H143.4c0 .1-.1 0-.2 0 0 0 0 0 0 0l-.3.1s0 0 0 0h-.3s0 0 0 0h-.3v-.1s0 0 0 0h-.2l-.5-.1h-.1s0 0 0 0c-.1-.1-.2 0-.2 0l-.3-.2h-.2s0 0 0 0 0 0 0 0l-1.1-.4-1-.4-.6-.3-.3-.2s0 0 0 0l-.2-.1-.3-.1v-.2l-.4-.2-.1-.1s0 0 0 0l-.2-.2h-.1l-.1-.1-.1-.1h-.2l-.3-.4-.2-.3-.7-.5-.6-.8-.7-1s0 0 0 0c-.1-.4-.5-.8-.7-1.2l-.8-2.1v0l-.4-1-.3-1.3-.2-.7v-.3l-.3-1.1v-.8l-.2-.7v-.6l-.1-.7v-.4l-.1-.8v-1.1l-.1-.5v-.5l-.1-2.3v-4.1s0 0 0 0v-4.4l.1-.8V131.4l.1-.4v-.2l.1-1v-.6l.1-.1v-.5l.1-.8.1-.5a11 11 0 0 1 .2-1v-.4l.1-.4v-.3l.1-.1V124.8l.2-.5v-.2l.2-.7v-.2l.3-1.1.4-1 .3-.7.2-.3v-.2h.1v-.3l.2-.2.2-.3s0 0 0 0l.4-.6s0 0 0 0 0 0 0 0l.1-.2s0 0 0 0 0 0 0 0l.1-.1.1-.2s0 0 0 0 0 0 0 0l.2-.3s0 0 0 0 0 0 0 0"/><path fill="#000" d="M142.5 112.5h-1.2l-.4.1-1 .2h-.5l-2 .8h-.2l-.2.2h-.1l-.8.5-1 .8-.2.2-.8.7-.5.7-.3.3-.5.8-.2.2-.3.7-.2.3-.2.5-.2.5-.3.8-.3.7-.2.7-.3.9-.2.9v.2l-.1.3-.2.5v.2l-.1.7v.2l-.1.3v.2l-.2 1.3v.1l-.1.9v.8h-.1v1.2l-.1.6v1.1l-.1 1.3a45 45 0 0 0 0 4.5V142.6l.1.5V144.8c.1.1 0 .2 0 .2l.1.1V147l.1.3.1 1.1v.4l.1.9v.4l.1.1v.5l.1.2v.4h.1v.5l.1.3.1.4.3 1.2v.2l.1.4v.3l.2.3.2.7v.1l.2.6.2.5.2.2v.4l.1.1.2.2v.3l.1.1.2.4.1.1v.1l.2.2v.2h.1v.2h.1l.1.1v.1l.2.2.3.4.1.2.4.5.1.1.2.2.2.3h.1l.3.4 1 .9c.2 0 .4.3.5.4l.3.1.2.2h.1c.1.2.4.3.6.4l.4.2c.2 0 .4.2.5.3h.1l.2.1.4.1.3.1.6.2.3.2h.3l.4.1h.5l.2.1.5.1h1.2l.5.1H145.8c.2 0 .3-.1.4 0h.1v-.1H147.1l.5-.1 1-.3a8.2 8.2 0 0 1 2.4-1l.5-.4.5-.3.6-.5.8-.8.1-.2.2-.2.2-.2.2-.4.3-.4.2-.2.5-.8.3-.5.2-.5.3-.5.3-.6.3-.8.3-.6.1-.5v-.2l.1-.2.1-.2V154.5l.2-.6.3-1.1.2-.7.1-.8.1-.8v-.1l.1-.3V149.8l.1-.3v-.8l.1-.3v-.8l.1-.4V145.5l.1-.6v-3.7l.1-1.6v-4l-.1-.5v-2.2l-.1-.2v-.8l-.1-.3v-.8l-.1-.3V129.6l-.1-.2v-.5l-.1-.2v-.5l-.1-.3v-.3h-.1V127.2l-.1-.5-.1-.4a27 27 0 0 0-.8-3l-.4-1v-.2l-.3-.5-.1-.5-.1-.1v-.1l-.1-.2-.2-.4-.1-.1v-.2l-.2-.3-.2-.3v-.1l-.3-.5-.3-.4c0-.2-.2-.2-.2-.3l-.2-.2-.7-1-.2-.1-.1-.2-.2-.1-.3-.4-1.5-1.1-.5-.4h-.2l-.4-.3-.4-.2h-.1l-.3-.2a4.5 4.5 0 0 0-1.5-.6l-.4-.1-.2-.1-.5-.1-.4-.1h-.2l-.3-.1-.3-.1h-.7v-.1h-.2c-.3 0-.7-.2-.8-.1h-.1l-.8-.1h-.3m2.6.1.5.1h.5v.1h.3l.2.1.4.1.5.2h.2l.2.2h.4l.3.2h.1l.3.2h.3l.1.2.4.1.4.2c.2.1.4.4.6.4l.4.3.4.3.7.5.3.3.2.2.3.2.2.3c.4.3.7.8 1 1.3l.3.3.4.8.2.3.4.8.4.8.2.4.3.9.4 1v.2l.1.3.1.2v.2l.2.3.1.6.2.6v.5l.1.2.2 1.1v.3l.1.2v.3l.1.7.1.5v.7l.2.7V133.2l.1.6v1.9h.1V145.7l-.1 1v1.7l-.1.5v.2l-.2 1v.3l-.1.6V151.2l-.1.3v.1l-.1.5V152.4l-.1.1-.1.5-.1.2V153.5l-.4 1.3-.1.3v.2l-.2.4-.5 1.4-.2.5v.1l-.2.2-.2.4-.1.3-.2.2v.2l-.2.3v.2l-.9 1v.1l-.3.4-.5.6-.2.3-.1.1-.2.3h-.1l-.3.3c0 .1-.2.3-.4.3l-.1.2-.2.1a5 5 0 0 1-.7.5h-.2l-.2.2-.4.3H150.2v.2h-.2l-.3.2h-.2l-.5.2-.7.2h-.3l-.2.2h-.8l-.4.1H145l-.9.1H142l-.1-.1H141.3l-.2-.1h-.2l-.3-.1h-.1l-.2-.1h-.2l-.1-.1h-.2l-.2-.1-.8-.3-.6-.3-.5-.2-.2-.1-.7-.5-.7-.5-.4-.3-.3-.2-.3-.3-1-1-.2-.3a9.2 9.2 0 0 1-1.6-2.3l-.2-.3v-.2l-.1-.1-.1-.2-.3-.5v-.2l-.1-.2-.3-.6v-.2l-.1-.3-.1-.3-.1-.2v-.1l-.2-.4v-.3l-.1-.3-.2-.7v-.4l-.1-.3-.2-.8v-.2l-.1-.4-.1-.8v-.1l-.1-.6-.1-1v-.4l-.1-.6-.1-1.1v-1.2l-.1-.3V143.1l-.1-.9V141l-.1-.5V132.2l.1-1v-.8l.1-.4a11.7 11.7 0 0 1 .1-1l.1-1.3v-.4l.1-.4.2-1.3.3-1.3.1-.3v-.4l.2-.6.3-.9.1-.4v-.2l.2-.1v-.4l.4-.9v-.1a3.6 3.6 0 0 1 .4-.7v-.3l.2-.2.2-.3.1-.3.2-.3.5-.8.4-.5.2-.3.3-.2.1-.3h.2l.1-.3.2-.1.3-.4.3-.1v-.1c.1 0 .2 0 .2-.2l.3-.1v-.1l.6-.4.2-.1h.1l.2-.2.4-.2.3-.1.3-.2h.2l.2-.1 1.2-.4h.6l.5-.2h.7l.4-.1h2.4l.3.1.8.1"/><path d="M142.5 112.5h-1.2l-.4.1-1 .2h-.5l-2 .8h-.2l-.2.2h-.1l-.8.5-1 .8-.2.2-.8.7-.5.7-.3.3-.5.8-.2.2-.3.7-.2.3-.2.5-.2.5-.3.8-.3.7-.2.7-.3.9-.2.9v.2l-.1.3-.2.5v.2l-.1.7v.2l-.1.3v.2l-.2 1.3v.1l-.1.9v.8h-.1v1.2l-.1.6v1.1l-.1 1.3a45 45 0 0 0 0 4.5V142.6l.1.5V144.8c.1.1 0 .2 0 .2l.1.1V147l.1.3.1 1.1v.4l.1.9v.4l.1.1v.5l.1.2v.4h.1v.5l.1.3.1.4.3 1.2v.2l.1.4v.3l.2.3.2.7v.1l.2.6.2.5.2.2v.4l.1.1.2.2v.3l.1.1.2.4.1.1v.1l.2.2v.2h.1v.2h.1l.1.1v.1l.2.2.3.4.1.2.4.5.1.1.2.2.2.3h.1l.3.4 1 .9c.2 0 .4.3.5.4l.3.1.2.2h.1c.1.2.4.3.6.4l.4.2c.2 0 .4.2.5.3h.1l.2.1.4.1.3.1.6.2.3.2h.3l.4.1h.5l.2.1.5.1h1.2l.5.1H145.8c.2 0 .3-.1.4 0h.1v-.1H147.1l.5-.1 1-.3a8.2 8.2 0 0 1 2.4-1l.5-.4.5-.3.6-.5.8-.8.1-.2.2-.2.2-.2.2-.4.3-.4.2-.2.5-.8.3-.5.2-.5.3-.5.3-.6.3-.8.3-.6.1-.5v-.2l.1-.2.1-.2V154.5l.2-.6.3-1.1.2-.7.1-.8.1-.8v-.1l.1-.3V149.8l.1-.3v-.8l.1-.3v-.8l.1-.4V145.5l.1-.6v-3.7l.1-1.6v-4l-.1-.5v-2.2l-.1-.2v-.8l-.1-.3v-.8l-.1-.3V129.6l-.1-.2v-.5l-.1-.2v-.5l-.1-.3v-.3h-.1V127.2l-.1-.5-.1-.4a27 27 0 0 0-.8-3l-.4-1v-.2l-.3-.5-.1-.5-.1-.1v-.1l-.1-.2-.2-.4-.1-.1v-.2l-.2-.3-.2-.3v-.1l-.3-.5-.3-.4c0-.2-.2-.2-.2-.3l-.2-.2-.7-1-.2-.1-.1-.2-.2-.1-.3-.4-1.5-1.1-.5-.4h-.2l-.4-.3-.4-.2h-.1l-.3-.2a4.5 4.5 0 0 0-1.5-.6l-.4-.1-.2-.1-.5-.1-.4-.1h-.2l-.3-.1-.3-.1h-.7v-.1h-.2c-.3 0-.7-.2-.8-.1h-.1l-.8-.1h-.3m2.6.1.5.1h.5v.1h.3l.2.1.4.1.5.2h.2l.2.2h.4l.3.2h.1l.3.2h.3l.1.2.4.1.4.2c.2.1.4.4.6.4l.4.3.4.3.7.5.3.3.2.2.3.2.2.3c.4.3.7.8 1 1.3l.3.3.4.8.2.3.4.8.4.8.2.4.3.9.4 1v.2l.1.3.1.2v.2l.2.3.1.6.2.6v.5l.1.2.2 1.1v.3l.1.2v.3l.1.7.1.5v.7l.2.7V133.2l.1.6v1.9h.1V145.7l-.1 1v1.7l-.1.5v.2l-.2 1v.3l-.1.6V151.2l-.1.3v.1l-.1.5V152.4l-.1.1-.1.5-.1.2V153.5l-.4 1.3-.1.3v.2l-.2.4-.5 1.4-.2.5v.1l-.2.2-.2.4-.1.3-.2.2v.2l-.2.3v.2l-.9 1v.1l-.3.4-.5.6-.2.3-.1.1-.2.3h-.1l-.3.3c0 .1-.2.3-.4.3l-.1.2-.2.1a5 5 0 0 1-.7.5h-.2l-.2.2-.4.3H150.2v.2h-.2l-.3.2h-.2l-.5.2-.7.2h-.3l-.2.2h-.8l-.4.1H145l-.9.1H142l-.1-.1H141.3l-.2-.1h-.2l-.3-.1h-.1l-.2-.1h-.2l-.1-.1h-.2l-.2-.1-.8-.3-.6-.3-.5-.2-.2-.1-.7-.5-.7-.5-.4-.3-.3-.2-.3-.3-1-1-.2-.3a9.2 9.2 0 0 1-1.6-2.3l-.2-.3v-.2l-.1-.1-.1-.2-.3-.5v-.2l-.1-.2-.3-.6v-.2l-.1-.3-.1-.3-.1-.2v-.1l-.2-.4v-.3l-.1-.3-.2-.7v-.4l-.1-.3-.2-.8v-.2l-.1-.4-.1-.8v-.1l-.1-.6-.1-1v-.4l-.1-.6-.1-1.1v-1.2l-.1-.3V143.1l-.1-.9V141l-.1-.5V132.2l.1-1v-.8l.1-.4a11.7 11.7 0 0 1 .1-1l.1-1.3v-.4l.1-.4.2-1.3.3-1.3.1-.3v-.4l.2-.6.3-.9.1-.4v-.2l.2-.1v-.4l.4-.9v-.1a3.6 3.6 0 0 1 .4-.7v-.3l.2-.2.2-.3.1-.3.2-.3.5-.8.4-.5.2-.3.3-.2.1-.3h.2l.1-.3.2-.1.3-.4.3-.1v-.1c.1 0 .2 0 .2-.2l.3-.1v-.1l.6-.4.2-.1h.1l.2-.2.4-.2.3-.1.3-.2h.2l.2-.1 1.2-.4h.6l.5-.2h.7l.4-.1h2.4l.3.1.8.1"/><path fill="#000" d="M146.4 151.5a3 3 0 0 0 .1 2.4c.6.9 1.6 0 1.5-.9 0-.6 0-1.6-.7-2-.3 0-.7.2-.9.5m1 3c.3.5 1 .7 1.4 1-.6.3-1.3-.3-1.6-.7-.5-.5-1.2-.8-1.3-1.5-.2-.9 0-2.1 1-2.5.8-.2 1.4.7 1.5 1.5.1.8-.1 1.8-1 2.1zM141 150.7h2c.3-.1.3 1.1 0 1 .3-.8-1-1-.9-.2l.1 2.5c.2.1.7.4.2.4-.3 0-1.4 0-.7-.3.4-.4 0-1.3.1-1.9 0-.6.2-1.5-.7-1.2 0 .3-.2 1-.3.4.1-.1 0-.8.2-.7M144 151c.2.5.4 1.4.7 1.4.1-.5.8-1.2.3-1.5.3-.2 1.2 0 .5.2-.2.8-.8 1.5-.8 2.3 0 .4 0 .9.4.8 0 .5-.8.1-1 .2-.2-.4.5-.1.3-.7.1-.8-.4-1.5-.7-2.3 0-.3-.7-.8 0-.6.4-.1 1 0 .3.3M138.1 150.6c.5.3-.5.2-.2.7v2.7c.7 0 .2.4-.2.2-.4.1-.7-.2-.2-.2.2-.8 0-1.5 0-2.3.1-.4.2-.9-.3-1 .2-.2.7 0 1 0M150.8 151.3c-.6-.1-.2-.4.2-.3.4-.1.4.3 0 .3v2.7c-.4 1-2.1.7-2-.3l-.1-2.5c-.8-.2.1-.3.4-.2.5 0 .2.2 0 .3v2.5c.2.9 1.7.6 1.5-.3v-2.2"/><path fill="#000" d="M152.1 151.4c0 .5-.3 1.5.7 1.2 0-.4.3-.7.2-.1 0 .2 0 1.4-.2.6-.1-.5-1-.3-.7.3 0 .5 0 1 .6 1 .6.2.5-1.3.6-.5.2.8-.4.8-1 .7-.3 0-1.4 0-.6-.3v-3c-.2 0-.5-.3 0-.3.4.2 1.5-.3 1.5.4.1.4-.2 1-.2.3 0-.6-.6-.3-.9-.3M135 150.8v3c.7.4 1.5 0 1.5-.8.1-.7.1-1.7-.6-2.1h-.9zm-.7-.1c.3-.3 1.1-.1 1.6-.1 1 .4 1.3 1.7 1 2.6-.2.6-.8 1.2-1.5 1-.2-.1-1.4.1-1-.3.5-.4.1-1.3.2-2 0-.3.3-1.2-.3-1.2M140 152.3c.3-.4.1-1.5-.6-1.3v1.4h.5zm-.6.4c0 .5-.3 1.4.4 1.5-.2.2-1 .1-1.1 0 .5-.1.3-.8.3-1.3v-2c-.8-.3.5-.3.8-.2 1 .1 1 2-.1 2H139.4M142.6 158.5c.5.3 0-1 0-.2zm.2-1c.2.6.3 1.4.6 1.9-.2 0-.7 0-.3-.2 0-.8-1-.5-.6 0 .2.3-.7.2-.3 0 .3-.5.3-1.4.6-1.7M145.6 157.7h-.1v1.5c0 .2 0 0 .1.1v.1h-.5v-.1h.1v-1.5l-.1-.1c0-.2.1 0 .2 0 0 0 .3-.2.3 0M146.7 157.6c0 .4 0 .7-.2.2-.7-.1-.3.7.1.8.7.6-.8 1.4-.7.4 0-.5.3.8.6.2.1-.6-1.2-1-.3-1.6h.5M144.3 158.4c.4-.4-.5-1-.4-.3 0 .3 0 .5.4.3m0 .1c0 .4.9 1.2.2.8-.1-.2-.5-1.2-.5-.4-.1.4.4.6-.2.5-.4 0 .1-.4 0-.8v-.9c-.5-.3 1-.2.8.4 0 .2-.1.4-.3.4M141.8 158c-.1-.6-.4-.2-.3.3 0 .3.5 0 .3-.3zm-.7-.5c.9-.4 1.4 1 .4 1 0 .4 0 .7.2.8-.3.1-.8 0-.4-.2v-1.4c-.1 0-.2 0-.2-.2M144.5 117.5c.1-.1.2.3 0 .3v-.3ZM144.9 117.7v.3-.3ZM144 117.8c.2 0 .2.3.1.4 0 0-.2-.3 0-.4ZM143.5 118c.1.2 0 .4 0 .4-.2 0-.2-.4 0-.3ZM144.7 118.3c.2 0 .2.3 0 .3v-.3ZM145.7 118.7c0 .2-.3 0-.2-.2l.2-.1v.3ZM144.2 118.6c-.1 0-.2 0-.2-.2.1-.2.3 0 .2.2ZM143 118.4c.1 0 .1.4 0 .4-.2 0-.2-.4 0-.4ZM145.2 118.7v.3c-.2 0-.2-.4 0-.3ZM143.6 118.9v-.3c.1 0 .2 0 .1.2h-.1M144.4 119c0 .2-.3 0-.2-.2 0 0 .2 0 .2.2ZM145.7 119.1v-.2h.2c0 .2-.1.4-.2.2ZM144.7 118.8c.1.1.1.4 0 .4s-.2-.4 0-.4ZM143.7 119c.1 0 .2.4 0 .4-.1 0-.2-.3 0-.4ZM144.4 119.4c-.1-.1 0-.4 0-.2.1.1 0 .3 0 .2ZM142.7 119.1h.2v.2c0 .2-.2 0-.2-.2ZM145.4 119.2v.3-.3ZM146 119.4c.2 0 .1.2 0 .2v-.2ZM145.8 119.5v.3-.3ZM144 119.5c.2 0 .2.4 0 .4 0 0-.1-.4 0-.4ZM145 119.6c.2 0 .1.3 0 .3-.2 0-.1-.3 0-.3ZM143 119.7c.1 0 .1.3 0 .4-.2 0-.2-.4 0-.4ZM145.7 120v.3c-.2 0-.1-.4 0-.3ZM142.3 120c0 .3-.3.1-.2-.1 0-.1.2 0 .2.2ZM145 120.1l.1.1-.1.3c-.1 0-.2-.3 0-.4ZM141.6 120c.2 0 .2.4.1.4s-.2-.3 0-.3ZM146.5 120.5c.1.2 0 .5-.2.3 0-.1 0-.4.2-.3ZM145.9 120.5c0 .1 0 .4-.1.3v-.3ZM142 120.3v.3c-.1 0-.2-.3 0-.3ZM142.9 120.8c-.1-.1 0-.5.1-.3s0 .5-.1.3ZM141.2 120.5c.2-.2.3 0 .3.2 0 0-.2.1-.2 0v-.2ZM145.7 121c0 .2-.2.3-.2.1 0-.1 0-.2.2 0ZM146.2 121.1c0 .2-.2.2-.1 0h.1ZM142.7 121v.3c-.2 0-.2-.3 0-.4ZM142.3 120.9v.3l-.1-.2.1-.1ZM144 121.4l-.1-.2c0-.2.3-.1.1.2ZM146.9 121.4l-.1.2-.2-.1c0-.2.2-.3.3-.1M141.5 121c0 .2-.2.4-.3.2 0-.1.1-.3.3-.2ZM146.5 121.8c-.2.1-.3-.2-.1-.3h.1v.3ZM142 121.4c0-.1.2 0 .1.2 0 .1-.2 0-.1-.2ZM141.6 121.4s.2 0 .1.2c0 .1 0 .1-.1 0-.1 0 0 0 0-.2ZM144.3 122v-.4c.2 0 .2.5 0 .3ZM146.4 122l.1-.2.1.1v.3c-.1 0-.2.1-.2 0v-.3M140.8 121.9v-.4c.3 0 .2.5 0 .4ZM146.9 122c.1 0 .2.3 0 .4 0 .3-.3-.2 0-.3ZM141.4 122c-.1 0-.2-.1 0-.2v.3ZM143.2 122c.2 0 .2.3 0 .3v-.3ZM146 122.2c.1 0 .2.2.1.3h-.2c0-.2 0-.3.2-.3ZM140.7 122l-.1.2-.2-.1c0-.3.2-.3.3-.1ZM142.2 122.4c-.2-.2 0-.5.1-.4v.3c0 .1 0 0-.1 0M144.4 122.5c-.2 0-.3-.2-.2-.3h.2v.3ZM145.6 122.5l-.2.1v-.3c.1-.1.2 0 .2.2ZM142.8 122.4l.1.3c0 .1-.3-.2-.1-.3ZM146.7 123v.1h-.1c0 .1-.1 0-.2 0 0 0 0-.3.2-.3h.1c0-.2.1-.2.2 0v.1c0 .2-.1.1-.2.1M141.3 122.4v.3h-.2c-.1 0 0-.4.2-.3ZM142.3 122.6l-.1.3c-.2 0-.1-.5.1-.3ZM145 123c-.2-.3.2-.4.2-.1 0 .1 0 .2-.2.1ZM146 122.8c.1.2-.1.5-.2.3 0-.2 0-.4.2-.3ZM140.7 122.6v.2h-.2c0-.3.1-.4.2-.2M147.2 123.2v-.2l.2.1c0 .2-.2.3-.2 0ZM143.6 122.9c0 .1 0 .2-.1.1v-.2l.1.1ZM146.3 123v.4h-.2c0-.2 0-.4.2-.3ZM142.8 123.2c-.1-.3.2-.2.1 0h-.1ZM141.8 123c.2 0 .2.4 0 .4 0 0-.1-.3 0-.4ZM147.7 123.4l-.1.4c-.2-.1 0-.5 0-.4ZM147 123.6c0 .2-.3 0-.2-.1l.1-.1.1.2ZM145 123.3c.2 0 .3.3.1.4h-.1c-.1-.2 0-.3 0-.4ZM141.3 123.4v-.3l.2.1c0 .3-.1.4-.2.2ZM143.4 123.6l-.2-.2c.2-.2.2 0 .2.2M140.8 123.5v-.2l.2-.1v.2l-.2.1ZM142.4 123.6v-.3l.1.2c0 .1 0 .1-.1 0ZM145.8 123.5c.2 0 .2.4 0 .4-.1 0-.1-.3 0-.4ZM143.1 123.4c0 .4-.3.1-.1 0h.1ZM146.4 124v-.3h.2v.2c.1.2-.1.2-.2 0ZM140 123.8l-.2-.1v-.3c.2-.1.2.3.1.4ZM145.4 124c0-.1 0-.3.1-.2.1.2 0 .3-.1.2ZM147.2 124.3V124s0-.1.1 0v.3M140.3 123.9v-.4c.1.1.1.3 0 .4ZM147.8 124c.1.2 0 .5-.1.4-.2 0 0-.4.1-.4ZM140.8 124c-.2 0-.3-.3-.2-.4.1 0 .3.2.2.4ZM146.1 124c.2.2-.1.4-.2.2 0-.2.1-.2.2-.2ZM143.6 124c0 .1-.2.3-.2 0 0-.1.1-.2.2 0ZM144 124.2c-.1.2-.2 0-.2-.2 0 0 .1-.1.2 0v.2ZM146.7 124.5c0-.1-.2-.2 0-.3h.1c.1.1 0 .3-.1.3ZM142.6 124v.2c-.2 0-.2-.5 0-.2ZM141.6 124.2c0-.2 0-.3.1-.2.1 0 0 .3-.1.2ZM139.6 124.2l-.2-.2.1-.2.2.1v.3ZM148.2 124.5c.1 0 .2.2 0 .3 0 .2-.2-.3 0-.3ZM142 124.3s0-.1.1 0v.2l-.1-.2ZM140.5 124.2c.2 0 .2.3 0 .3v-.3ZM142.7 124.4c0 .2-.1.3-.2.1 0-.2.2-.2.2 0ZM146 124.6c0 .2 0 .3-.2.3s0-.5.2-.3ZM143.7 124.7v-.2h.1c.1.2 0 .3 0 .2ZM139.6 124.3c.2 0 .2.2.1.3h-.1v-.3M140.2 124.6h-.1v-.3h.1v.3ZM141.5 124.5c0 .1 0 .2-.2.1v-.2l.2.1ZM146.9 125.2c-.1 0-.2-.3-.1-.4h.1v.4M148 125l-.1.3-.3-.1c0-.3.2-.3.3-.2ZM142.1 124.6v.3c-.2 0-.2-.3 0-.3ZM146.2 125.2v-.2c0-.1.1-.2.2-.1.2.1 0 .6-.2.3ZM142.5 125h-.2c0-.1 0-.3.1-.2.1 0 .2.2 0 .3ZM143.4 125c.2 0 .1.3 0 .3v-.3ZM141.3 125.1h-.1v-.2h.1v.2ZM140.2 125c.1-.1.2.2.1.2-.1.1-.2-.2 0-.3ZM138.5 125s.1-.2.2 0v.2l-.2-.1M148.2 125.8l-.2-.1.1-.2c.2-.1.2.2.1.3ZM144.2 125.3v.2c-.2 0-.1-.4 0-.2ZM148.5 125.6c.2-.1.3.3 0 .4v-.4ZM143.7 125.3v.3-.3ZM140 125.4s-.1.1-.2 0v-.3l.2.2M138.1 125.4s-.2-.1-.1-.2v-.2l.2.2-.1.2ZM139 125.2v.2c-.1-.1 0-.4 0-.2ZM139.6 125.2c0 .2 0 .4-.2.3 0-.2 0-.4.2-.3ZM140.7 125.6v-.3c.1 0 .2.4 0 .3ZM141.4 125.4c.1-.1.2.2 0 .2 0 0-.1-.2 0-.2ZM148 126.3c-.1 0-.2 0-.2-.2l.1-.2c.1 0 .2.3 0 .4ZM140.5 126c-.2 0-.2-.5 0-.5v.4ZM147.5 126c.2 0 .3.5 0 .5 0 0-.1-.4 0-.4ZM139.1 125.7V126l-.1-.3h.1ZM141 126.2v-.4c.2 0 .2.3 0 .4ZM139.7 126c0-.2.1-.3.2-.2 0 0-.1.4-.2.2ZM141.5 126.2v-.3l.1.2c0 .2 0 0-.1 0M137.9 126c0-.2 0-.3.2-.2.1.1-.1.4-.2.2ZM144.6 126.2v.3h-.2c0-.2.1-.4.2-.3ZM140.2 126v.2l.1.2c0 .1 0 .3-.1.1v-.2h-.1v-.3c0-.1 0 0 .1 0ZM149.5 126.5c.1.1 0 .4 0 .4-.2 0-.2-.5 0-.4ZM148.3 126.6c0 .2 0 .5-.2.4-.1-.1 0-.4.2-.4ZM141 126.3l.1.2c0 .1 0 .1-.1 0l-.1-.2h.2ZM149.8 126.8c.2 0 .2.2 0 .3 0 .1 0 .1-.1 0l.1-.3ZM141.6 126.6c0 .1-.2-.2-.1-.3 0 0 .2.1.1.3ZM149.1 126.8c.2.1 0 .4-.1.2l.1-.2ZM140.6 126.4c.2 0 .2.3 0 .3v-.3ZM138.2 126.4c.2-.1.2.4 0 .3v-.3ZM143.5 127v-.3c.2-.1.2.5 0 .3ZM146.8 127.4c-.2 0-.3-.2-.2-.4h.2v.4ZM148.7 127.3v-.2l.2.1-.1.2-.2-.1ZM141.3 127s-.2-.1-.1-.2v-.1c.2 0 .2.1.1.2M145.8 127c.2-.1.3.3 0 .3v-.4ZM139.8 127l.1-.4.2.3s-.2.2-.3.1ZM150.3 127.3v.3s-.1.1-.2 0V127.4h.2ZM145.2 127.4V127s0-.1.1 0l.1.2c0 .1-.1.1-.2 0ZM147.1 127.5c0-.2 0-.5.2-.3v.3c0 .1-.1 0-.2 0ZM139.2 126.8c0-.2.2.3 0 .3v-.3ZM148 127.3v.3h-.2c-.1-.2 0-.4.2-.3ZM141 127.1c0 .1-.2 0 0-.1v.1ZM150.4 128l-.1-.2v-.2h.2c.2 0 0 .4 0 .4M149.8 127.5c.2 0 .2.5 0 .5v-.5ZM140.5 127.4v-.3h.2c0 .2 0 .4-.2.3ZM146.4 127.8h-.1v-.3c0-.2.2 0 .1.3M141.2 127.2c.1 0 .2.2 0 .3v-.3Z"/><path fill="#000" d="M147.4 127.6v.4c-.2 0-.2-.6 0-.4ZM148.6 128s-.2-.2-.1-.3h.1c.2 0 .1.3 0 .3ZM142.5 127.7c-.1 0-.2-.3-.1-.4 0 0 .2.2 0 .4ZM139.9 127.7c0-.1-.1-.3 0-.4 0-.1 0-.1 0 0 .2 0 0 .4 0 .4ZM141.7 127.4c0 .2-.1.2-.2 0 0 0 .1-.2.2 0ZM145.8 127.9v-.3h.1s.1.2 0 .2c0 .1 0 .1 0 0ZM149.3 127.9v.3h-.3v-.4h.3ZM139.4 127.3c.2 0 0 .4 0 .2-.1 0 0-.2 0-.2ZM148.3 127.8c0 .2 0 .5-.1.4v-.3s0-.1.1 0ZM142 127.6v.3c-.2 0-.1-.3 0-.3ZM145 128v-.2h.2v.3c-.1.1-.2 0-.2 0ZM149.7 128.3l-.2.1V128.1c.2 0 .2.1.2.2ZM140.4 127.8c0 .2-.3.2-.3 0v-.2c.2 0 .3.1.3.2ZM142.7 127.8v.3c-.1 0-.2-.4 0-.3ZM141.1 128v-.3c.1-.1.3.4 0 .3ZM138.9 127.7c0-.2.2-.1.2 0 0 .3-.3.3-.2 0ZM145.5 128.3v-.3h.2c.1.2 0 .4-.2.3ZM150.5 128.4s.1-.1.1 0v.3c0 .2-.3-.2-.1-.3ZM147.2 128.4c-.1-.3.2-.3.2 0 0 0-.2.1-.2 0ZM146.3 128.4s0 .2-.1 0v-.2c0-.2.2 0 .1.2ZM148.7 128.4v.3h-.1v-.3h.1ZM143.2 128.4v-.3s.1 0 0 .2M149.7 128.5c.2 0 .2.3 0 .3-.1 0-.2-.3 0-.3ZM142.7 128.2c.2 0 .2.3 0 .3v-.3ZM140.8 128.4v-.2c0-.1 0-.1.1 0 0 0 .1 0 0 .1v.1ZM141.7 128.5v-.3c.2 0 .2.2 0 .3ZM145.1 128.4l.1.3c-.1.1-.2-.2 0-.3ZM147 128.6c.2 0 .1.4 0 .4s-.2-.4 0-.4ZM142 128.7c0-.2.2-.3.2-.1 0 .1 0 .2-.2.1ZM149 129c.2-.1.3.2.2.3-.2.2-.3-.3-.1-.4ZM144.8 128.7c.2 0 0 .4 0 .3v-.3ZM141.4 128.6c.1-.1.2.2 0 .3V128.6ZM147.8 129c.2-.1.2.3 0 .3-.1 0-.1-.4 0-.4ZM146.3 129.2c0-.1-.1-.4 0-.4.2 0 .2.4 0 .4ZM148.7 129v.3c-.1 0-.2-.4 0-.3ZM141 128.6v.3c0 .2-.2-.3 0-.3ZM142.7 128.7v.2s-.1.1-.2 0c-.1 0 0-.3.2-.2ZM139.7 128.6v.3h-.1l.1-.3ZM145.9 129c.1 0 .2.4 0 .4s-.2-.3 0-.4ZM145.2 129.4s-.2-.1-.1-.3c.1-.1.2.1.1.3ZM146.7 129.5s-.1 0 0-.2v-.1l.1.1v.2ZM140.2 129s0 .2-.2.1v-.2h.2ZM142.2 129c.2 0 .1.4 0 .3v-.3ZM139.3 129v.2l-.2-.1v-.3c.1 0 .2.1.2.3M144.4 129.1s.1.2 0 .2c-.2 0 0-.3 0-.2M148.3 129.5c0-.2.1-.3.2 0v.1c-.2.1-.2 0-.2-.1ZM149.3 129.7v-.3h.2c0 .3 0 .4-.2.3M144 129.4l-.1-.1v-.2l.2.1-.1.2ZM148 129.5l-.1.4c-.2 0-.2-.5 0-.4ZM147 129.5c.2 0 0 .3 0 .2v-.2ZM141.9 129.2c.2 0 .1.3 0 .3v-.3ZM145.4 129.5c.1 0 .1.2 0 .2s-.2-.2 0-.2ZM141.5 129.6s-.2-.1-.2-.3c.1 0 .3 0 .2.3ZM144 129.6c.2 0 .3.2.2.4h-.2c-.1-.2 0-.4 0-.4ZM145 129.7c0 .3-.2.3-.2.1 0-.1.1-.2.2 0ZM138.6 129.6c-.1.2-.3-.1-.2-.2.1-.2.2 0 .2.2ZM146.5 130l-.2.1s-.1 0 0-.1v-.2h.1v.1M148.6 129.9c.1 0 .2.3 0 .3-.1 0-.2-.2 0-.3ZM139.3 129.6v.1l-.2-.1v-.2c.1 0 .2 0 .2.2ZM142.6 129.9v-.3h.2c.1.2 0 .4-.2.3ZM146.7 129.9h.2l-.1.2c-.2.1-.2-.2 0-.2ZM140 129.8c-.1.1-.3-.2-.1-.3v.3M149.4 130.4l-.2-.1v-.3l.3.1-.1.3ZM145.6 129.8c.1 0 .2.4 0 .4-.1 0-.2-.3 0-.4ZM144.4 129.8c.2-.2.3.3.1.3v-.3ZM138.2 129.6v.2c-.1.1-.2-.4 0-.2ZM138.9 129.9l-.1-.1c0-.3.3 0 0 .1ZM142.2 130.2c-.2 0-.3-.2-.2-.3.2-.2.3.1.2.3ZM139.4 129.7c.2 0 .2.3 0 .3v-.3ZM143 130.2v-.2c.2 0 .2.2.1.2h-.2ZM145 130c.3 0 .3.4.1.4 0 0-.2-.3 0-.3ZM146.3 130.7l-.2-.1.1-.3.2.1v.3ZM145.6 130.6c0-.1 0-.4.2-.3v.3h-.2ZM149 130.5c.3 0 .2.4 0 .4-.1 0 0-.4 0-.4ZM139.8 130.3v.4c-.2 0-.1-.3-.1-.4v-.3h.1V130.4ZM138 130.3h-.2v-.3h.3v.3ZM139.2 130.3l-.2-.1c0-.2.2-.2.2 0ZM147.6 130.5c.1 0 .1.3 0 .4 0 .1-.3-.3 0-.4ZM140.1 130.2c.1 0 .2.2.1.3-.1.1-.2-.3 0-.3ZM143 130.6c-.1 0 0-.2 0-.2v.2ZM142.5 130.7l.1-.3.1.1v.2c0 .1-.1 0-.2 0M144.8 130.7c.1-.2.3-.1.3 0 0 .2 0 .3-.2.2v-.2ZM148 130.9v.2c-.2 0-.2 0-.2-.2s.2-.2.2 0ZM142.1 130.8s-.2-.2-.1-.3h.1v.3M140.4 130.7v-.3l.1.2-.1.1ZM145.4 131v-.3l.2.2-.2.1ZM146.5 130.9c0 .1 0 .4-.2.2v-.3h.2ZM138.8 130.4v.3s-.2-.4 0-.3ZM147.3 131.2h-.2v-.3h.2v.3ZM141.5 130.8c0 .3-.3.2-.2 0 0-.2.2-.1.2 0ZM146.7 131c.3 0 0 .6 0 .3v-.3ZM138 130.6c.2 0 0 .4 0 .4-.2-.1-.1-.4 0-.4ZM138.5 131c-.2 0-.2-.2-.1-.3 0-.2.2.2 0 .3ZM143.2 131s0 .3-.1.2v-.3ZM142.9 131v.2l-.2-.1c0-.2.1-.2.2-.1M143.4 131.2v-.2h.1v.2c0 .1 0 0-.1 0ZM140.8 130.9v.3c-.2 0-.2-.4 0-.3ZM148.5 131.3h.2v.3c-.2.2-.3-.1-.2-.3ZM144.8 131.1c.1 0 .2.3 0 .4-.1 0-.2-.3 0-.4ZM148 131.7v-.3c.1 0 .2 0 .1.2 0 0 0 .1-.1 0M145.7 131.3c.2 0 .2.5 0 .4-.1 0-.1-.4 0-.4ZM141.7 131c.1 0 .1.4 0 .4v-.3ZM145.2 131.6v-.3h.2v.3c0 .1-.2 0-.2 0ZM150.2 131.9v-.3h.2v.4l-.2-.1M139 131v.3l-.2-.2.2-.1ZM139.3 131v.3-.3ZM142.4 131.3c0 .2-.3.2-.2 0 0-.2.2-.2.2 0ZM139.8 131c.1 0 .2.3.1.4 0 0-.2-.2-.1-.3ZM147.3 131.5v.2c0 .1-.2-.3 0-.2ZM150.7 132.2c0-.1-.1-.2 0-.4h.1l.1.2c0 .2-.1.2-.2.2ZM138.6 131.5l-.2-.1v-.3c.1 0 .2 0 .2.2v.2ZM142 131.4c.1 0 0 .4-.1.3v-.3ZM142.7 131.7c-.2 0-.2-.3 0-.3v.3ZM149.8 131.8c.3 0 .2.6 0 .4-.2 0-.2-.4 0-.4ZM143.4 131.5l.2.1c0 .3-.2.3-.2 0ZM146 131.6c.3 0 .2.4 0 .4v-.4ZM140.3 131.6h-.2v-.2c.1 0 .2 0 .2.2ZM147.7 132.1c-.2.1-.3-.2-.1-.3.1 0 .2.2 0 .3ZM147 131.8v.3c-.2 0-.2-.3 0-.3ZM148.5 132c0 .2 0 .3-.2.2v-.3l.2.1ZM144.9 131.7v.3h-.2c-.2 0 0-.4.2-.3ZM139.6 131.5v.3c-.2 0-.2-.4 0-.3ZM139.3 131.5v.3-.3ZM149.3 132.1c.1 0 .2.3 0 .4h-.1v-.3ZM143 132c0-.2.2-.2.3 0l-.1.2-.1-.2ZM138 132c0-.1-.1-.3 0-.4 0 0 .2.4 0 .3ZM145.2 132.1s.1-.1.2 0v.2c-.2 0-.2-.1-.2-.2ZM151 132.4c.2 0 .2.4 0 .4l-.2-.2c0-.2.1-.2.2-.2ZM141 131.9c.2 0 .3.2.2.3-.2 0-.2-.2-.1-.3ZM142.9 132v.2l-.2-.1c0-.1 0-.2.2-.2ZM145.7 132.2v.3c-.2 0-.2-.5 0-.3ZM146.2 132.5h-.2v-.3h.2v.3ZM147.2 132.2c.1 0 .2 0 .2.2l-.1.2c-.1 0-.1-.3 0-.4ZM146.5 132.4l.2-.2c.2.1 0 .4-.2.2ZM150.4 132.5v.3l-.2-.1c-.1-.2 0-.4.2-.2ZM144.9 132.2c0-.1.2 0 .2.2 0 0 0 .2-.2 0v-.2ZM137.6 132.2c0-.1 0-.4.1-.3l.1.3h-.2ZM148 132.7v-.3s.2 0 .2.2-.2.2-.2 0ZM143.7 132.5c0 .2-.2 0-.2-.2s.3 0 .2.2ZM140 132c0 .3-.2.5-.3.3 0-.2.1-.3.2-.2ZM140.6 132.3v.2s-.2 0-.2-.2c0-.1.2-.2.2 0ZM143.2 132.7v-.3c.1 0 .2 0 .2.2h-.2M150.4 132.9c.1-.2.3-.1.2.1 0 .3-.3 0-.2-.1ZM140.3 132.3v.2s0 .1 0 0c-.2 0-.2-.2 0-.2ZM149 133l.1-.3.2.1c0 .2-.2.3-.3.2ZM139.1 132.2c.1.1 0 .4 0 .4-.2-.1-.1-.4 0-.4ZM147 132.7c0-.2.3.1.2.2 0 .2-.2 0-.2-.2ZM141 132.4v.3l-.3-.1c0-.2.2-.3.2-.1M142.8 132.5c.1 0 .2.3 0 .3v-.3ZM146 132.7l-.2.4c-.1-.1 0-.6.1-.4ZM145.5 132.8c0 .2 0 .4-.2.3 0-.2 0-.5.2-.3ZM146.5 132.9c0-.2.2 0 .2 0 0 .2-.2.2-.2 0ZM138.4 132.5c0 .1 0 .3-.1.2 0 0-.1-.1 0-.2h.1ZM143.8 132.7c.1 0 0 .4-.1.3l-.1-.2c0-.1.1-.1.2 0ZM151.2 133v.4h-.2v-.2l.2-.1ZM147.3 133.3V133c.2 0 .1.2 0 .3ZM148.3 133c.1 0 0 .5-.1.3-.1-.1 0-.3.1-.3ZM138.8 132.9l-.2-.1v-.2c.2 0 .2.2.2.3ZM137.6 132.6c.2-.1.2.3 0 .3v-.3ZM147.7 133c.1.2 0 .4 0 .4-.2 0-.2-.4 0-.3ZM150.1 133.6v.1l-.2-.1v-.2h.2c0-.2.2-.3.2 0v.2h-.2M142.2 133v.3c-.1 0-.2-.5 0-.3ZM142.7 133.3l-.1-.1v-.2c.2 0 .2.2.1.3ZM149.3 133.4c0 .2-.2.2-.2 0h.2ZM145 133.5v-.3l.2.1c0 .2-.1.2-.2.2ZM148.8 133.8c-.2 0-.3-.4-.1-.4h.1c.1.2 0 .3 0 .4ZM140.1 133.2v-.2h.2c0 .2-.1.3-.2.2ZM145.6 133.3v.3l-.1-.2c0-.2 0-.2.1-.1ZM147 133.5h-.2c-.1-.1.2-.3.1 0ZM150.8 133.5v.3c-.1 0-.2-.1-.1-.2 0-.1 0-.1.2 0ZM148 133.5l-.1.3s0-.5.1-.3ZM141 133.5c-.2 0-.3-.2-.2-.3 0-.1.3.1.2.3ZM144 133.6c-.2.2-.4 0-.3-.3.1 0 .3 0 .2.3ZM147.3 133.5v.2c-.1-.1 0-.2 0-.2ZM139 133.4v-.2c0-.1.1 0 .2 0 0 0 0 .3-.2.2ZM150.4 134v-.3h.2v.3h-.2ZM138.3 133.1v.3l-.1-.2s0-.1.1 0ZM149.4 133.7c.1 0 0 .3 0 .2-.2 0-.1-.3 0-.2ZM146 133.6c.2 0 .2.4 0 .4-.1 0-.1-.3 0-.4ZM141.7 133.7v-.3c.2 0 .1.3 0 .3ZM138.7 133.3c.2 0 .1.5 0 .4-.1 0-.1-.4 0-.4ZM142.7 133.5c.2 0 .1.3 0 .3v-.3ZM140.3 133.5h.2c0 .3-.2.3-.2 0ZM148.9 134.2c-.1 0-.3-.2-.2-.3.1-.1.2.1.2.3ZM145.3 134v-.3c.2 0 .1.3 0 .4ZM143.6 133.8c0 .2 0 .4-.2.2 0-.1 0-.4.2-.2ZM146.3 134.1c0-.4.3-.2.2 0 0 .1-.1.2-.2 0ZM145 134v.2l-.2-.1v-.3c.1 0 .2 0 .3.2ZM150.5 134.3c0 .2-.2.1-.2 0 0-.3.2-.3.2 0ZM142.2 134v-.3.3ZM139.8 133.9c0-.2.1-.4.2-.2s0 .3-.2.2ZM143 134c-.1.2-.1-.2 0-.2v.3ZM148 134.1c0 .2-.2.3-.2.2-.1-.1 0-.4.1-.2ZM141.6 134c0 .2 0 .4-.2.2-.1-.2.1-.4.2-.2ZM145.8 134.5l-.1-.3h.1l.1.1-.1.2ZM150 134.4v.3c-.2 0-.2-.3 0-.3ZM145.4 134.2l-.1.4c-.2 0-.2-.5 0-.4ZM142 134.4l-.1.2h-.2l.1-.3v-.2h.1l.1.1v.2ZM148.3 134.7l.1-.3h.2v.3h-.3ZM140.2 134.1c.1 0 .2.3 0 .3v-.3ZM150.3 134.6v.3c-.2 0 0-.3 0-.3ZM140 134.5c-.2 0-.3-.1-.2-.3 0-.1.2.2.1.3ZM146.4 134.5c.1.1 0 .4 0 .4-.2 0-.2-.4 0-.4ZM145.8 134.5c.2 0 .2.4 0 .4-.1 0-.1-.2 0-.4ZM147.6 134.6c0 .2-.1.4-.2.3 0 0 0-.3.2-.3ZM141.5 135h-.1c-.1-.2 0-.3 0-.4h.2v.4ZM148.3 135c0 .2-.2.3-.2.2v-.2h.2ZM140 134.7v.3c-.2 0-.2-.3 0-.3ZM146.2 135.3l-.2-.1v-.2c.2-.1.3.2.2.3ZM146.8 135.3l-.2-.1v-.2c.2 0 .2.3.2.3ZM145.7 135.1c0 .2 0 .4-.2.3v-.2c0-.1.1-.1.2 0ZM147.6 135.3v.2s-.1.1-.1 0h-.1c0-.1 0-.2.2-.2ZM141.8 135.1c.2 0 .2.3 0 .3v-.3ZM140.3 135.1v.3c-.1 0-.2-.2 0-.3ZM146 135.4v.3h-.2c-.1-.1 0-.4.2-.3ZM146.7 135.7l.1-.3c.1 0 0 .5-.1.3ZM148.3 135.6l-.1.2c-.1 0 0-.3.1-.2ZM147.1 135.6c.1.2 0 .3-.1.2l.1-.2ZM145.6 135.8c.1 0 .2.1.2.3 0 .3-.2 0-.2 0v.3h-.2v-.5c0-.3.1-.2.2 0ZM147.7 136s-.2.1-.2 0c0-.2.2-.2.2 0ZM148.5 135.9v.3c-.1 0-.2 0-.2-.2l.2-.1ZM141.8 135.8c.1 0 0 .2 0 .2s0 .1-.1 0v-.2h.1ZM147.2 136v.2h-.1c0-.1 0-.3.1-.2ZM140.3 136v-.3h.1v.2c0 .1 0 0-.1 0ZM148.5 136.7c0-.3.2-.4.2-.2s0 .3-.2.2ZM147 136.7v.4l-.2-.1.1-.3v-.3l.2.1v.2h-.1M141.7 136.3c0-.1.2-.1.2 0 .1.3-.3.3-.2 0ZM140 136.4l.1-.2.2.1c0 .2-.2.2-.2.1ZM147.5 136.5l.1.1v.2c-.1.1-.3-.3-.1-.3M148.5 137.1c0-.1.1-.2.2-.1.1 0 0 .3-.2.1ZM140.2 136.7l.1-.2v.4l-.1-.2ZM141.8 137.1c0 .1.2.2.1.3h-.1s-.1 0 0-.1V137c-.1-.2 0-.3.2-.2.1.2-.1.2-.2.3ZM147.4 137l-.1.3v-.3ZM140.2 137.2c0-.3.3-.2.3 0s-.2.1-.3 0ZM148.4 137.5c.2 0 .2.1.1.2-.1 0-.2-.2 0-.2ZM147.5 137.5v.2l-.2-.1c0-.2.1-.2.2-.1ZM148.5 137.8c.2 0 .2.3 0 .3v-.3ZM140.3 137.6c.2 0 .1.3 0 .3v-.3ZM148.5 138.4c.2 0 .2.3 0 .2v-.2ZM140.4 138.4c-.2 0-.2-.4 0-.4v.4ZM144.7 138.6c.1 0 .2.1.1.3-.1.2-.3-.2-.1-.3ZM145.7 139c.2-.4.4.2.1.2v-.3ZM143.5 138.8c.2 0 .1.4 0 .4-.2 0-.2-.4 0-.4ZM142.5 139s.1.2 0 .2-.2-.3 0-.3ZM146.7 139.4c0-.1.1-.2.2-.1 0 .1-.1.3-.2.1ZM144.7 139.4l.2.3c0 .2-.1.4-.3.4-.2 0-.2-.7 0-.7ZM148 139.7c.1.3-.2.3-.2.2 0-.3.2-.3.2-.2ZM143.3 139.6c0 .1.1.2 0 .4 0 .1-.1.2-.2 0a.4.4 0 0 1-.1-.3s.2-.2.3-.1ZM142.1 139.5s.2 0 .2.2c0 .1 0 .3-.2.3 0 0-.2 0-.2-.2s.1-.3.2-.3ZM140 139.7v-.3s.2 0 .2.2l-.1.2-.2-.1ZM141 139.5c.1 0 .1.3 0 .4-.1 0-.2 0-.2-.2l.1-.2ZM147.1 139.8l.1.2c0 .2 0 .2-.2.2v-.3l.1-.1ZM145.9 139.9c0-.1.1-.2.2-.1.1 0 .2.3 0 .4 0 .2-.3 0-.2-.3ZM144.5 145.8s0 .2-.1.1H144.1v-.1h.4M148.7 126.7l-.1-.2v-.1c.2 0 .2.3 0 .3ZM146.4 119.7c.2 0 .1.3 0 .3v-.3ZM146.3 120.2l-.1.3v-.3ZM145.3 120.6v-.3c.2 0 .1.5 0 .3ZM147 121c-.2 0-.3 0-.3-.2l.1-.1h.2v.3ZM145.7 121.4c.1 0 .2 0 .2.2l-.1.1c-.2.1-.2-.3 0-.3ZM143.6 121.9v-.3l.2.1v.2h-.1M143.9 122.7c0-.3.2-.3.2 0 0 0-.2.1-.2 0ZM148 124.3v-.2l.1-.2.2.1c0 .2 0 .4-.2.3ZM140.8 125l-.1.1c-.1 0 0-.4.1-.2ZM147.2 125.7s0-.2.2-.2l.1.2-.1.2-.2-.2ZM144.5 125.8V125.5l.1.1v.2ZM144 126.8v-.2c.2 0 .2.4 0 .2ZM138.8 127l-.1.2c-.1 0 0-.5.1-.3ZM143.2 127.4c.2 0 .2.2 0 .2-.1 0-.1-.2 0-.2ZM143.5 128.6v-.3c.2 0 .2.4 0 .3ZM145.6 129c-.2-.1-.2-.4 0-.4v.1c.1.1 0 .2 0 .2ZM150.2 129.4v-.3c0-.1.2-.1.2 0 .2.2 0 .5-.2.3ZM149.6 129.3v-.2h.2c0 .2 0 .4-.2.2M143.5 129.2c-.1-.3.1-.4.2-.2l-.2.2ZM150 129.6c0 .2 0 .6-.2.3 0-.1.1-.5.2-.3ZM141.3 130v.3l-.2-.2c0-.2.2-.1.2-.1ZM146.7 130.7v-.2c.2 0 .1.2 0 .2ZM149.8 132.9h-.1V133.2c-.2.2-.2-.1-.2-.3v-.2l.3-.2v.4ZM138 133.1v.3c-.3.1-.2-.6 0-.3ZM149.7 134.1v.3-.3ZM147.4 134v.2-.3ZM147.1 134.4v.3-.3Z"/><path fill="#000" d="M147.3 146c-.7.4.5.4.3 0a1 1 0 0 0-.3 0m-.6 0c-.2-.3-.7.2-.2.2.2 0 .5-.1.2-.2zm-5.6-.4c-.7-.2.2.7.3.1h-.3zm1 0c-.4-.3-.5.4 0 .2 0 0 .3-.2 0-.2zm5 .2c.2.3 1-.3.2-.1l-.2.1zm-1.3 0c-.2-.3-.7-.3-.3 0 .1.3.6.2.3 0m1-.2c.4 0-.6-.2-.2 0zm-4-.2c-.4.5.6-.1 0 0zm-2.4 0c-.5-.6-.3.4.1.4v-.4zm5.7.1c-.3-.3-.6 0-.2.2.3 0 .3 0 .2-.2zm-4-.2c.2.3.7-.1.1-.1h-.1zm-.4-.1c-.3-.4-1 0-.2 0 0 .1.4.3.2 0zm5.7.1c-.6.3.7 0 .2 0zm1.1 0c0 .1-.8.7-.2.5 0 0 .4-.4.2-.6m1.3.5c.3.8.2-1.1 0-.1zm-9-.6c0-.4-.9-.2-.3 0 0 .1.5.3.3 0zm7.2 0c-.2.5.2.2.2 0h-.2m-5-.2c-.7.5.6 0 0 0zm-3.3-.1c-.4-.2.3.7.1 0zm10.6.3c-.1.3.2 1 .2.3 0-.1 0-.3-.2-.3zm-5.3-.4c-.5.2.7.8.1.2zm-6.8-.2c-.1.3.2 1 .1.2l-.1-.2zm5.5.2c-.5.2 0 .6.2 0 .1-.2 0-.2-.2 0m5.4 0c-.4.3-.3 1.3 0 .5v-.5zm-4.5.4c0-.3-.4-1-.5-.3-.1.9-.8 1.7-1.6 2-.3.2-.9.5-.2.6a6 6 0 0 0 1.8.2l1.6-.1c.2 0 1.4-.3.6-.4-.6 0-1.1-.5-1.4-1-.2-.3-.3-.6-.3-1zm-4.7-.8c-.7-.2.5.7.2.1l-.2-.1m9 .2c-.4.3 0 .2 0 0zm1.2-.3c-.1.2-.2 1.2 0 .7 0-.2.2-.6 0-.7zm-11.8-.3c0 .4.3 1 .4.4 0-.3 0-1-.3-.4zm1-.4c0 .3.3.6 0 .1zm11 1c.3 1 .4-.7 0-.5v.5zm-.6-.5c-.1.3.1.8.3.2 0-.1-.2-.8-.3-.2m-10.7-.8c.2 0 0-.2 0 0zm10.2.4c-.3.2-.2.6 0 .1 0 0 .1-.3 0-.1zM138 143c-.1.3-.3 1 0 1.1V143zm11.4.5c-.3.1-.3 1.4 0 .6 0-.1.4-1 0-.6M139 143c.1.5.2-.2 0 0zm-.3 0c-.1-.4-.5-.3-.3 0 0 .5.3.7.3.2v-.2m10.9.3c.5-.2.1-.7 0 0zm1 .3c.2-.3-.3-1-.1-.4-.1.2.2.9.2.4zm-.3-.1c0-.4-.2-1-.2-.3-.2.3.2 1.2.2.5v-.2m-.7-1c-.5.5-1 1-1.7 1.3-.5.3-1 .6-1.7.7-.3 0-1.2.1-.7.5.1.3.6.3.8.5.2-.4.6 0 .9-.2.3-.4.8 0 1-.4.7-.1.5-.9.9-1.3.2-.2.7-.9.5-1m-11.4-.1c.2-.3 0-.8-.2-.2 0 .3 0 1 .2.2m11.7-.2c-.1.7.5 0 0 0zm-11 0c0-.4-.2-.7-.2-.2 0 .4.2.8.2.2zm-.4-.2c.2-.3 0-1-.1-.3-.1.2.2.9.1.3zm.5-.6c.1.6 0 1.2.4 1.8.3.6.8 1 1.2 1.4.4.4 1 0 1.3.4.5-.2.9 0 1.2-.4.6.2.4-.2 0-.3-.5-.2-1.1-.2-1.6-.6-.6-.4-1.1-.7-1.6-1.2-.3-.3-.7-1-1-1.2m11.4.4c-.4.2.3.9.1.2 0 0 0-.3-.1-.2zm-12-.5c.2-.2 0-.5 0 0zm11.8.3c.2.2.1-.2 0 0zm-11.4-.8c-.4 0 .3.8 0 .1v-.1m-.4-.2c-.4.6.5-.1.1-.2zm5.7.7-1.6-.1-1.3-.2-1.6-.3c-.3 0-1-.6-.6 0 .2.7.8 1.2 1.1 1.7.4.4.8.8 1.3 1 .5.4 1 .7 1.7.7.4.2 1 .4 1.2.1.4.2.8.3 1.4.2.5-.2 1.2-.2 1.7-.6.6-.2 1.1-.6 1.7-1 .5-.4 1-.8 1-1.5.4-.8-.6-.4-1-.4l-1.9.4-2 .1h-1m5.4-1.2c0-.2-1-1-.5-.4 0 .2.8 1.2.5.4zm-9.6-1c-.3.2-1.1.5-.5.8.1-.3.6-.8.6-1l-.1.1m8.9.4c-.1-.2-.4-.4 0 0zm-.9-.4c.5.3.5 1.4 1 1.4.4-.4-.4-1-.7-1.3-.1 0-.3-.2-.3 0m.6 0c-.2-.3-.8-.5-.2-.2 0 0 .3.3.2.1m-7.5-.5c-.5.2-1 .7-1.2 1.2-.3.2.3.2.3.5.3-.4.6-1 1-1.3 0-.2.5-.6 0-.4m9.2 2.1c.1-.6.4-1.2.1-1.8-.5 0-.2 1-.3 1.5 0 .1 0 .6.2.3zm-11.7-2.5c-.2.4-.2 1.3 0 1.6.4-.4.2-1.2 0-1.6m9.7 1.9c-.2-.5-.5-.9-.9-1.2-.1-.3-1-.7-.5-.1.5.4.7 1.2 1 1.7.3-.2.8 0 .4-.4M142 138c-.3.5-1 .7-1.2 1.2-.2.3-.6.7 0 .8.3.8.5-.6.8-.9.2-.4.7-.7.8-1-.1-.1-.2 0-.4 0m3.8 0c.3.5.7 1.1.9 1.8 0 .3.1.8.5.4.8 0 0-.7-.2-1-.3-.5-.7-1-1.2-1.3m-2.7-.2c-.5.1-.7.7-1 1l-.7 1.2c.4-.2.7.4.9.4l.8-2c0-.2.5-.6 0-.6zm3.5 2.5c-.1-.5-.4-1-.7-1.6-.1-.2-.6-1.2-.8-.7.4.7.4 1.4.5 2.1 0 .7.3.5.6.3.2-.1.6.3.4 0m-1.1 0c-.2-.8-.2-1.5-.6-2.2 0-.7-.9-.4-.7.2-.3.8-.4 1.5-.5 2.3.4-.5 1.3-.5 1.7 0 .2 0 0-.3 0-.3m-1.4-2.6c-.6-.1-.7 1-1 1.3-.2.4-.8 1.4 0 1.1.4 0 .6.8.6.1 0-.7.2-1.5.5-2.2l-.1-.3m6.6 1.7c.1-.4.3-1.7-.4-1.4-.4.3-.5 1.3-.3 1.4-.2-.6.6-1.7.6-.6 0 .1 0 1.3.1.6m-11.7-1c.2-.6-.6-1.5-.7-.6-.2.4 0 1.4 0 .6-.1-.8.6-1.2.6-.2 0 .1.1.6.2.2m6.7-1.2c-.6 0-1.3-.2-1.1-1 .2-.5-.2-1.3-.6-.6 0 .5.3 1.3-.4 1.5-.4 0-1 .5-.4.4h2c.2-.2.5.4.7 0l-.2-.3m.6.5 1 .2c.5.3 1.1.6 1.5 1.1.4.2.6.9 1 .9-.2-.8-.2-1.7.4-2.2.8-.2.8 1.1.7 1.6-.1.6-.4 1.1-.6 1.7.3.7.2 1.4.4 2 0 .7.2 1.3 0 2-.1.3 0 1.2-.4 1 0-.2-.1-1.2-.2-.5 0 .2-.2 1.1-.3.5-.2-.7.1-1.2-.2-1.8-.5.4-.2 1.2-.8 1.6-.2-.1-.2-.4-.4 0-.5.1-1 .7-1.6.4-.4.1-.7-.4-1.1-.2-.6-.2-.5-1-1-1.1.1.6.4 1.2 1 1.6.4.2 1.6 0 1.2.8-.5 0-1 .2-1.4.3h-2c-.7 0-1.3-.1-1.9-.4 0-.6 1-.7 1.3-1 .3-.3 1-.7.8-1.2-.3.2-.3-.5-.4.1-.2.6-.9.4-1.3.8-.4-.3-.8.2-1.2-.1-.6.1-.9-.7-1.3-1-.2-.6-.7-1-.6-1.8-.4-.2 0 .6 0 .8 0 .6-.4 1.2-.7 1.7-.2-.4 0-1-.4-1.2l-.1-2.1.2-1.4c-.2-.6.7-1 .3-1.6-.3-.6-.3-1.4.1-2 .6-.4.9.7.8 1.1 0 .5 0 .8.4.4l1.5-.7c.4-.2.9 0 .7-.5.2 0 0 .4.2.1.4 0 .8.2.8-.4.3-.5 1.3-.2 1.2-1-.5-.5.2-1.5.9-1 .4.5-.4 1.4.3 1.6.6 0 1 .3 1.2.9M104.5 87.3l.2 64.1c.3 13.8-.1 27.5-.2 41.2-12.3-.1-24.5.4-36.8.1.1-23.8-.3-47.6.2-71.4-.4-11.7 0-23.5-.1-35.2 5.1-1.2 11-1.3 16.4-2 6.4-.7 12.7-1.3 19.1-1.7-3.5 2-10 1.2-14.7 2.2-6.7.6-13.4 1.5-20 2 .3 13 0 26.3.2 39.4-.4 22.1-.1 44.2.1 66.2 3.2-1.5 10.2.2 14.8-.5 6.7 0 13.5-.4 20.2.1-.6-6.4-.4-13.8-.3-20.6 0-27.9.2-55.8.1-83.7-.3-2.3.7-7.3.8-2.2v1.9z"/><path fill="#fff" d="M106.3 80.4v114.4h-36V84.3l36-4Z"/><path fill="#000" d="M106.7 85.3c.1 22.5 0 45 .2 67.4.3 14.2-.2 28.4-.2 42.5-12.3-.1-24.6.4-36.9.1.1-24.6-.3-49.2.2-73.9-.4-12.3.2-24.6-.2-36.9 6-2.3 13.8-1.7 20.6-2.9 4.5-.3 13-1.7 15-1-7.2 1.7-14.8 1.5-22.2 2.7-4.6 1.8-15.5-2-12.2 6.3-.4 17.8.2 35.7-.2 53.6-.1 17.2.1 34.4.3 51.6 3.3-1.6 10.5.2 15.3-.5 6.3 0 12.9-.3 19.1 0 .5-5.5-.1-14.4.2-21.2.3-18.3 0-36.7.2-55 .1-12.5-.3-25 .2-37.4 1.1 0 .3 3.6.6 4.6z"/><path fill="#000" d="M84.2 155.9c-1.6 1.5-1.4 5-2.4 6-.5-3 .7-5.8 2.2-8.4.4-2.5 2-6 5.2-5.4 3.4 1.3 3.9 6 2.6 9-.9 3.3-5.8 4.2-7 .6l-.6-1.8m6.6-5.2c-2.6-2.1-6.7.5-6.2 3.7-.5 3.5 4.3 5.2 6.3 2.6 1.3-1.8 1.4-4.7-.1-6.3M92.2 125.5v9.7c-2 1-2.8-.1-.7-1-.1-1.2 1-4.2-1.3-3.2-1.9.6-6-1-5.7 2.2-.8-.5-.4-4.2 0-5.2-.4 3.3 3.8 1 5.8 1.4 2.1.3 2-4.4-.3-4.1-.3-1 2.8-.8 2.2.2M91.6 139.4c-1.4 1.4-4.6 3.2-1.6 4.5 1 1.2 1.8 1.4 2 0 .4 1 .2 5.7-.5 2.5-1.8-1.2-3.2-4-5.8-3.2-1.5-.6-1.1 3.9-1.6.8.3-1-.7-4.5.6-4-.2 3.3 4.3.8 5.1-.9 1.3-.5 2.6-4.7 2.4-1.4.1.8 0 4.6-.5 2l-.1-.3M92.2 112c-.6 2-.1-2.5-2-.9-2.1.6-6-.7-6 2.2-.1-1-.4-4.5.3-4.5.3 2.8 4.7 0 6.6.7.7-.8 1-3 1-.4l.1 2.8M91.6 170.9c.2-2.8.8-.5.5.9.5 1.9-.6 2.4-.5.3-2.8-.2-7.4 1.3-7.5-3-.2-2.2-.5-5.7 2.2-6.6 1.7-.7 5.5 1 5.4-1.6.8-.2.8 4 .1 4.6.3-2.8-3.4-1-5.1-1.4-2.8.6-2.9 6.2-.3 7.1 1.7-.1 3.6 0 5.2-.3"/><path fill="#000" d="m91.5 177.1-2.8.1v2.8c0 .2 0 .4.2.5.2.1.7 0 .8.3.3.6-.3.6-.5.6h-1.1c-.2 0-1.2.2-1.3-.1 0-.7.8-.6 1-.8.3-.2.2-1 .2-1.4v-1.8h-2.6c-.3 0-.5 0-.5.5v1.3c0 .7-.3 1.8 0 2.5.2.7 1 .3 1.4.8.2.3 0 .5-.2.6h-.8c-.3-.1-.7 0-1-.2-.3-.1-.2-.7-.2-1v-7.2c0-.3.2-.8.4-.4l.1 1 .2.4h4.6l1.2-.1c.3 0 .8.1 1-.2.1-.4-.1-1.3.2-1.5.4-.2.4.4.4.7v7.3c-.2.3-.6.3-.9.3-.2 0-1.4.5-1.3-.2 0-.6 1-.6 1.3-.9.3-.3.2-1.2.2-1.7v-2.2M91.9 94.1c.6 2.1.3 5.4.2 8-.2 2.7-2.8 6.1-5.8 4.3-3-2-2-6-2.2-9-.3-.9.3-4 .6-1.3 1.9.5 5 0 7-.6.1-.5-.1-1 .2-1.4zm-.4 3.3c-2.2.3-4.5.3-6.7.8-.4 2.4-.6 6.6 2.9 6.8 3.2.1 4.2-3.6 4-6.2-.1-.5 0-1-.2-1.4M87.7 118.1c-1.6 0-3.7 0-3.3 2.1-.4-1.2-.5-4.1 0-5 0 3 4.4.4 6.3 1 1.4.5 1.2-3.3 1.5-.6-.3 2.4.6 5.5-1.5 7.2-2.8 1.3-3.2-3-3-4.7m.8 2.4c1.6 3 4.4-2 2.6-2.7-2.3 0-3.7-.1-2.6 2.7z"/><path fill="#fff" d="M133.5 217.4c-3.5 1.5-7.3 2.4-10.6 4.5h-.4c-2.3 2.6-6.3 3-9.8 2.8-11.7-.3-24-2.4-34.8 2.1C68 231 61 240 55.5 249.2c-14.4 23.6-22.3 50.5-33 76 0 0-53.6 4-47.3-42.7 0 0 28.2-26.1 38.3-38.5 10-12.4 36-43.3 36-43.3l5.5-7.6c1.2-1.8 3.7-11.1 17.2-15.5 13.5-4.3 22.7-3.7 29.6-6.2 6.8-2.6 26.5-12.1 31.3-5.8 4.7 6.2.7 11.4-22.9 19.3-5 1.7-8.7 5.9-14 7l.5.3 4-1.6c1.3 3.4 3.6 3.1 6.8 3.3 3 .1 6.2 0 9.2-.5 5-1 9.9-3 15-2.7 1 0 2 .2 3 0 1.4-.2 2.7-1 4-1.6 3.9-2 8.4-2.5 12.5-4.3 2.3-1 4.5-2.3 6.7-3.5 5.9-3.3 12.8-5.9 19.3-4 1.7.5 3.5 1.5 4 3.3.3 1.4-.5 3-1.6 3.9l1.4-.4c1.5-.7 3.3.5 3.7 2 .4 1.6-.4 3.3-1.5 4.4-1.2 1-2.7 1.7-4.1 2.4a58.5 58.5 0 0 0-16.5 10.1c-1.5 1.4-2.9 3-4.7 4-2.6 1.6-5.8 1.8-8.8 2.7-5.5 1.6-10.2 5.3-15.5 7.7"/><path fill="#000" d="M123 222.4c-9.3 6.3-20.8.8-31 2.2-14 .4-27 9-33.5 21.3-16.1 24.6-24.4 53-35.7 80-17.2 1.1-38.2-4-45.9-21.2-2.6-7.8-6-19.5 1-25.6 18.1-16.6 35.2-34.3 50-53.8 10.7-12.6 22.3-24.7 30.3-39.2 10-12.1 27-11.5 41.1-14.8 10.2-3 19.9-9.6 31-8.3 11.6 5.1-.6 17.6-8.8 18.4-8.5 2-17.6 8-24.6 10.3 6.4-2.2 14 5.1 21.7.5 12.2-2.2 24.8-3.7 35.9-9.8 7-4.5 17.9-9.7 25.5-3.8 2.2 5.3-2 5.2 4.6 6.2 2.9 9.3-14.9 11-20 17.1-7.8 8.2-20 9-29.6 14.6-2.4-.1 8.2-5.9 11.8-6.4 11.7-1.9 18.6-12 29.2-16.4 6.4-1.1 13-10.3 2.6-9 5.3-11.5-15.7-8.1-20.4-2.6a94.1 94.1 0 0 1-33.4 10c-9.9 4.6-21.3.6-29.2 0 7.4-5 16.7-8.7 25.6-11.8 9.7-.5 19.3-16.7 4.5-16.2-13.2 1.5-24.6 10.1-38 10.5-12.3 1.7-27.1 5.6-32 18.4-14 19.7-30.7 37.3-45.9 56.1-10.7 12-22.5 23-34.2 33.9-1.2 10.9.6 23 9.3 30.6 8.1 7.6 19.4 10.5 30.2 11 11 3.3 10-12.2 14.3-18.6 10-25.6 19-53 38.2-73.4 11.2-10 27.2-10.1 41.2-8.5 8 2.3 19-7.3 23.4-5.9-3 1.6-6.1 3-9.2 4.2z"/><path fill="#000" d="M179 185.7c-.2.3-.7.3-1 .5l-1 .5c-.2 0-.4.1-.5.3-.1.1-.4 0-.4.3h-.1l-1.2.5-1.4.5c-.7.6-1.5.8-2.2 1.2l-.7.2c-.3 0-.4.3-.7.2v.1l-.3.2c-.4 0-.4 0-.7.4h-.2l-.6.3c-.1 0-.4 0-.4.3l-.2.1-.5.3c-.2.1-.5.2-.6.4h-.3c0 .2-.1.3-.2.3h-.3l-.2.3c-.2.1-.5.2-.6.4l-.5.4-.6.3-.5.2c-.2 0-.2.2-.5.1l-1 .5-1.4 1-.5.2h-.1c-.2 0-.2.4-.4.3l-.4.2a90 90 0 0 1-.6.6c-.2-.1-.3 0-.4 0-.2 0-.3.1-.3.2 0 .2-.3.3-.4.4l-.5.4-.3.2-.3.1a1 1 0 0 0-.4.4c-.1.2-.4.1-.4.4h-.1c-.2 0-.4.1-.5.3 0 .2-.3.3-.5.4l-.5.3c-.1 0 0 .3-.2.2l-.4.2-.3.2c-.7.1-1.1.6-1.7.9-.3 0-.4.3-.8.3 0 .2-.3.2-.4.4l-.3.2-1.9 1-1.2.6h-.5s-.3.1-.3.3h-.1c-.4 0-.5.3-.8.4l-1.4.3c-.1 0-.3 0-.3.2h-.2c-.1.2-.3.2-.4.2h-.4l-.3.1-1.6.4h-.7c0-.1-.1 0-.2 0-.3 0-.6 0-.8.2-.2.2-.5 0-.6.3l-.3.1c-.3.2-.7 0-1 .4-.1-.1-.3 0-.4 0l-.3.1h-.5l-.3.3c-.4 0-1 0-1.4.2h-.4c-.3 0-.4.3-.7.3l-.7.2c-.4.3-.8.3-1.2.5h-.4c0 .2-.2.2-.2.2-.2.2-.4-.2-.5.2l-.6.2-.5.2h-.3l-.3.1c0 .2-.3.2-.4.3l-1.2.5-.6.2-.6.2-.2.2h-.3c0 .2-.2.2-.3.2-.2 0-.5 0-.7-.4v-.2c0-.5 0-.4.4-.6.4-.3.9-.4 1.3-.6.4 0 .6-.3 1-.4.2 0 .6 0 .9-.3.2-.2.6-.3.9-.4l.7-.2.7-.2h.5c.2-.3.6-.3.9-.5l1.2-.4.6-.3h.4c.1 0 .3 0 .4-.2h.2l.6-.1h.4c.1-.2.3-.2.4-.2h.4c.1-.2.3-.2.5-.2l1.2-.3c.3-.1.6-.4 1-.4 0-.2.3-.2.5-.2h.5c.2 0 .3-.2.5-.1l.7-.2c.2 0 .3-.1.4 0h.1c.1-.3.3-.3.5-.3h.7l.6-.3h.4l.4-.2.4-.2.4-.1.5-.2.4-.1.5-.1c.4-.1.7-.5 1.1-.6 0-.2.2-.1.3-.2.1 0 .3 0 .3-.2h.1c.1-.1.3 0 .3-.2l.3-.1c.1-.1.3 0 .3-.3.3.1.3-.3.5-.3H149.1c.4-.5 1-.6 1.4-1l.2-.1c.4-.1.4-.1.6-.4h.2l.4-.5.6-.1.6-.2 1.2-.9h.2c0-.3 0-.5.3-.3 0-.2.3-.3.4-.3.5-.3.8-.8 1.3-1 0 0 .1-.2.2-.1.2 0 0-.2.2-.2l.2-.1c.3 0 .5-.2.7-.4l.4-.4c.4 0 .7-.3 1-.5l1-.6c.1-.1.3-.2.3-.4h.2l.3-.2.3-.2.2-.3h.3c.2 0 .5 0 .8-.2l.6-.4c.1 0 .2 0 .3-.2l.3-.2c.2 0 .4 0 .5-.3l.2-.1 1.1-.7c.1 0 .2-.1.4 0 0-.2 0-.2.2-.3h.4l.4-.4.4-.3h.2c.1-.1.4-.1.4-.4.4 0 .5-.2.7-.3.2-.2.4-.1.7-.2l.7-.4c.4 0 .8-.3 1.2-.5l1.2-.5.5-.4.6-.2.5-.3h.4c.1-.3.3-.3.5-.3h.2c.2 0 .2-.2.4-.3 0-.1.3 0 .3-.3h.1c.4.2.5-.4.9-.3 0-.2.2 0 .2-.1l.3-.3.4-.1.5-.4c0-.1 0-.2.2-.1h.1c.2-.3.5-.3.7-.2l.3.4v.3l-.1.5-.5.3Z"/></g><path fill="#000" d="M102.8 300.2C74.8 298 45 288.8 28 265 5.7 235.8 2.8 197.4 1 162.1c-1-38.7.2-79.4 17.9-114.8A85.2 85.2 0 0 1 79.8 3.6c29-5.6 59.4-4.6 88 2.4a84.5 84.5 0 0 1 58.4 51.4c14.8 36.3 14 76.3 13.3 114.8-1.7 32.3-7 66.5-26.5 93.2-19.6 26-53.5 34.6-84.5 35-6.6 1.2-14-1.8-3.1-2 30 0 63-6.9 83.6-30.6 22-27.6 27.1-64.3 28.9-98.5.6-41.8 1.2-86.5-19.9-124.1-15-26.8-45.9-39.7-75.4-41.7C109.5 1 73.3.5 44.8 20.3 21.8 36 11.6 63.8 7.4 90.2c-5.6 26.6-4.9 54.2-4.2 81.3 2.6 35.2 7.3 74 33.4 100.2 20.2 20.9 50.5 26.3 78.4 27 12.4 2-11.2 2.2-12.2 1.5z"/></svg>