<svg width="18" height="19" viewBox="0 0 18 19" fill="none" xmlns="http://www.w3.org/2000/svg">
<g clip-path="url(#clip0_735_24278)">
<path fill-rule="evenodd" clip-rule="evenodd" d="M9.50219 14.2727L15.7869 7.91749C15.9136 7.78909 15.9976 7.5761 15.9976 7.36249C15.9976 7.14889 15.9136 6.93529 15.7869 6.80749L14.7325 5.7395C14.6058 5.6117 14.3952 5.52589 14.1846 5.52589C13.9739 5.52589 13.804 5.6117 13.636 5.7395L8.99692 10.4309L4.36865 5.74969C4.24201 5.62129 4.03138 5.53609 3.8201 5.53609C3.60947 5.53609 3.39883 5.62129 3.27219 5.74969L2.21774 6.81709C2.0911 6.94549 2.0071 7.15909 2.0071 7.37269C2.0071 7.58629 2.0911 7.75669 2.21774 7.92769L8.47956 14.2595C8.47956 14.2595 8.97083 14.8181 9.50219 14.2727Z" fill="#502314"/>
</g>
<defs>
<clipPath id="clip0_735_24278">
<rect width="14" height="9" fill="white" transform="translate(16 14.5181) rotate(-180)"/>
</clipPath>
</defs>
</svg>
