<svg width="44" height="44" viewBox="0 0 44 44" fill="none" xmlns="http://www.w3.org/2000/svg">
<g clip-path="url(#clip0_735_24558)">
<path d="M21.0399 0.362915C21.0996 0.362915 21.1562 0.362915 21.2159 0.362915C26.399 0.645632 28.8994 1.54404 31.5978 2.5367C39.5421 5.33245 43.7609 11.3826 43.9996 19.3018V21.9185C43.6666 25.908 42.4667 28.5153 42.074 29.7969C38.6657 40.1538 31.491 44.5202 21.1499 43.4898C14.3396 43.0532 9.81927 41.8155 5.79528 37.3078C1.93464 33.1424 -0.292533 28.1257 0.0310194 22.8138C0.109552 17.3228 1.81527 12.8213 4.66128 9.40672C6.79107 6.78373 9.54912 4.69477 12.5113 3.03302C15.3008 1.30845 18.0589 0.504274 21.0399 0.362915Z" fill="#D72300"/>
<path d="M22.8195 40.6946H22.7975C16.3296 40.4622 11.5643 39.8622 7.49946 34.767C3.94981 30.3912 3.32156 28.9681 2.8378 24.118C2.8378 24.0677 2.8378 24.0143 2.8378 23.9641C2.64304 6.91621 17.8029 3.15608 22.0059 3.08069H22.0279C22.075 3.10896 22.0782 3.10896 22.1159 3.08069C34.6088 4.00109 43.2159 11.2795 40.8568 24.3127C40.7123 26.0593 40.0369 27.6111 39.6568 29.3357C37.794 34.0131 34.2821 38.2067 29.4068 39.9124C26.1116 40.9365 25.6781 40.4527 22.8227 40.6978L22.8195 40.6946ZM27.632 7.77379C22.8258 5.88273 16.226 7.33715 12.5412 10.8051C11.8627 11.2858 9.94653 12.9852 10.1067 13.4972C10.647 14.2103 11.7496 14.3768 12.5035 14.9234C16.1851 17.0281 20.0238 18.3788 21.2175 19.2018C21.9682 17.3987 19.7756 17.537 19.1599 15.7024C18.5913 14.3831 19.562 13.2805 20.9442 13.3056C22.4897 13.18 22.4551 13.3465 23.63 14.0093C24.3242 14.5244 25.0655 13.9119 25.8383 14.0093C28.1943 15.514 24.2394 18.2814 24.2959 19.2238C28.034 16.1045 27.8236 16.3935 29.6016 14.1883C32.6643 9.62088 32.3345 9.97898 31.0528 9.26591C29.9 8.75388 28.8382 8.13504 27.632 7.78322V7.77379ZM17.4542 22.6007C14.2689 20.8604 7.70051 16.56 7.42093 17.2762C6.53823 18.3191 6.45656 21.6835 6.56336 22.8332C6.73927 25.9839 7.41151 27.6174 8.93817 29.8477C10.2449 32.3545 10.9989 32.521 12.5601 32.6937C14.2218 32.8948 16.7317 30.1461 17.4793 29.0278C15.2522 28.6666 16.1757 26.7095 17.0458 25.4248C15.915 25.0918 14.071 24.0646 15.472 22.896C16.0783 22.5316 16.7851 22.7264 17.4542 22.6007ZM25.92 25.7546C25.92 25.7546 25.9074 25.7609 25.9011 25.7672C26.0456 26.9828 28.5618 29.4865 26.5734 30.121C25.6624 30.3849 24.5724 30.5199 23.8499 29.7409C23.4446 30.9252 22.6907 31.8299 21.3902 31.5723C20.5327 31.4875 20.8279 29.6561 21.0196 29.0592C21.0196 28.8833 21.4593 27.5294 21.1107 28.0195C19.4364 29.5964 15.6794 36.1366 17.093 36.8591C19.0406 37.5784 21.1923 37.5093 23.275 37.4591C26.5671 37.4842 28.5744 36.3251 30.6005 34.9398C31.4832 34.4246 33.5564 33.0016 33.2046 32.1377C32.2434 31.3084 31.034 30.7021 30.0633 29.8037C28.656 28.5095 27.2047 27.2153 25.9168 25.7577L25.92 25.7546ZM35.4946 27.8593C36.1763 27.7807 36.1103 27.3127 36.7794 25.4782C38.0799 21.985 38.2275 18.0081 36.7448 14.4899C35.7553 12.5014 35.3438 11.6187 34.6684 12.4857C33.4653 13.7674 32.5544 15.2469 31.4266 16.6103C30.0225 18.0773 28.3733 19.1076 27.7011 20.0469C28.8162 19.5411 32.457 16.3056 32.7303 18.9223C32.636 19.4563 32.1931 19.8866 31.8476 20.3327C34.1124 21.5044 34.1376 25.1986 29.3502 23.5054C29.9314 24.2593 30.723 24.7965 31.546 25.318C32.7397 26.3671 34.0433 27.1807 35.4977 27.8624L35.4946 27.8593Z" fill="#FF8732"/>
<path d="M20.5801 35.5362C20.0147 35.4923 20.1969 34.7603 20.3791 34.3897C21.0702 33.1614 21.9717 35.0399 20.6461 35.5362H20.5801Z" fill="#FF8732"/>
<path d="M36.1084 20.3196C35.8257 20.8222 34.6383 20.7751 34.6446 20.0589C34.7702 19.3678 35.9231 19.5405 36.1084 19.9678V20.3196Z" fill="#502314"/>
<path d="M10.955 25.7892C10.8733 26.7096 9.38119 27.1713 9.31523 26.1693C9.2367 25.3934 10.8796 24.6646 10.955 25.7892Z" fill="#FF8732"/>
<path d="M13.4431 22.7574C13.0096 22.7448 12.2651 22.6726 12.2148 22.0851C12.8274 20.5208 15.2336 22.638 13.4431 22.7574Z" fill="#FF8732"/>
<path d="M16.1079 14.6248C14.908 14.6342 14.9017 13.4029 15.7593 13.3526C17.0912 13.2866 17.0755 14.6154 16.1079 14.6248Z" fill="#502314"/>
<path d="M34.1247 22.2991C33.8608 22.3306 33.4147 22.1107 33.5655 21.7525C34.3069 20.1128 36.7791 22.1421 34.1247 22.2991Z" fill="#FF8732"/>
<path d="M22.0275 11.6779C22.0087 12.8057 20.8276 12.8339 20.9061 11.6057C21.0066 10.5691 22.1218 10.5282 22.0275 11.6779Z" fill="#FF8732"/>
<path d="M18.2543 15.7768C18.2731 16.8291 16.8407 16.2511 16.8596 15.4533C17.0135 14.558 18.3171 15.004 18.2543 15.7768Z" fill="#FF8732"/>
<path d="M26.4953 11.012C26.4419 12.0487 24.8273 12.4036 25.132 11.3073C25.4618 10.6414 26.2597 9.97855 26.4953 11.012Z" fill="#502314"/>
<path d="M32.25 16.9771C32.272 16.4211 33.2646 15.2965 33.6793 16.1447C33.7421 16.7227 32.3788 18.1897 32.25 16.9771Z" fill="#FF8732"/>
<path d="M15.4135 28.1573C15.3758 28.7479 13.8586 29.2474 14.0062 28.261C14.1162 27.3375 15.4292 27.4129 15.4135 28.1573Z" fill="#FF8732"/>
<path d="M27.1641 12.335C27.1672 11.5308 28.7033 10.5664 28.4771 11.9486C28.3954 12.4135 27.2426 13.1046 27.1641 12.335Z" fill="#FF8732"/>
<path d="M10.0628 19.5692C10.7068 19.5912 11.5643 20.7001 10.5591 20.8257C9.1958 20.6624 9.41883 19.5504 10.0628 19.5692Z" fill="#502314"/>
<path d="M19.4593 10.5341C19.4404 9.2933 20.521 9.83988 20.4488 10.7791C20.3859 11.9791 19.3556 11.5016 19.4561 10.5341C19.4561 10.5341 19.4561 10.5341 19.4593 10.5341Z" fill="#502314"/>
<path d="M28.4757 34.2578C27.8318 34.3018 27.0999 33.1553 27.9292 32.882C29.0475 33.1018 29.1197 34.2736 28.4757 34.2578Z" fill="#502314"/>
<path d="M33.9578 17.4361C34.0175 16.6413 35.3431 16.4246 35.3054 17.3921C35.2301 18.0235 33.9201 18.2654 33.9578 17.4361Z" fill="#502314"/>
<path d="M33.9524 25.8199C33.164 25.9141 32.4226 24.4786 33.387 24.5665C33.8613 24.5131 34.8131 25.8544 33.9524 25.8199Z" fill="#502314"/>
<path d="M20.4149 33.328C20.2139 33.8055 19.0673 34.506 19.0862 33.5479C19.4694 32.5929 20.484 32.4641 20.4149 33.328Z" fill="#502314"/>
<path d="M22.9549 32.4828C23.0994 31.1414 23.9978 31.6692 23.9569 32.4639C23.8313 33.3089 22.9077 33.4566 22.9549 32.4828Z" fill="#FF8732"/>
<path d="M24.93 32.7874C25.1373 31.6817 26.086 32.5204 26.0326 33.2303C25.8347 34.0879 24.9111 33.3874 24.93 32.7874Z" fill="#502314"/>
<path d="M29.9211 31.2232C29.9493 31.2389 29.9651 31.2483 29.9839 31.2609C30.1158 32.2755 28.7965 31.6504 28.7588 30.9813C28.718 30.1928 29.9588 30.6577 29.9211 31.2232Z" fill="#502314"/>
<path d="M11.411 29.0681C10.4749 29.0147 10.9304 28.1697 11.5807 28.0158C12.0204 27.8996 12.3346 28.4179 11.9953 28.7415C11.8634 28.8828 11.6592 29.0713 11.4079 29.0713L11.411 29.0681Z" fill="#502314"/>
<path d="M13.2497 24.915C14.2235 25.0312 13.5041 25.9705 12.8036 25.8134C12.2256 25.5904 12.7722 24.8616 13.2497 24.915Z" fill="#502314"/>
</g>
<defs>
<clipPath id="clip0_735_24558">
<rect width="44" height="43.2745" fill="white" transform="translate(0 0.362671)"/>
</clipPath>
</defs>
</svg>
