<svg width="44" height="44" viewBox="0 0 44 44" fill="none" xmlns="http://www.w3.org/2000/svg">
<path d="M4.8916 25.9012V25.8665C5.22982 24.8547 5.37435 24.8316 6.10282 24.3344C5.59116 22.441 5.46686 20.377 7.66959 19.9925C7.8546 19.9925 7.87483 19.981 7.80835 19.7844C7.37185 17.9516 8.40095 16.9572 9.97061 16.6653C10.0371 16.6335 10.1556 16.6797 10.1094 16.5323C9.9128 15.9513 10.0342 15.3615 10.2915 14.8268C10.8349 13.5924 11.3726 14.0058 11.2223 13.5837C8.73049 6.62861 11.864 7.57388 12.0664 6.70088C12.1184 5.0705 12.3266 4.67158 13.1764 3.77545C13.8904 3.12792 14.9195 2.87643 15.755 3.36785C15.9631 2.98338 15.9255 2.46016 16.1654 2.04389C16.3794 1.56692 16.7378 1.28363 17.1772 0.991661C17.8681 0.44242 18.8134 0.627428 19.4956 1.11307C20.1575 1.54668 19.961 1.8242 20.279 1.40215C21.1635 0.381715 23.1148 -0.462382 24.0803 0.448202C24.8983 1.45707 24.0716 1.53223 25.4852 0.815326C27.208 -0.0692413 29.5235 -0.728331 30.0756 1.57848C30.093 1.63052 30.0756 1.77505 30.1942 1.68833C31.5991 0.592739 34.088 0.607193 34.0793 2.74923C34.0966 3.21753 33.6948 3.77256 34.0475 3.64247C35.5333 3.15972 37.3227 3.33894 37.6089 5.02714C37.8517 6.14586 36.8746 6.90323 36.256 7.70397C36.3948 7.77623 36.6781 7.73576 36.8631 7.86585C38.2506 8.7244 37.7563 10.6843 36.8053 11.7105C36.7677 11.7915 36.6231 11.8493 36.7417 11.9418C37.1377 12.2916 37.5482 12.624 37.8864 13.0547C39.0542 14.4741 39.459 15.0783 38.0541 16.3473C37.7737 16.5785 37.6407 16.4571 37.8806 16.7896C39.5168 19.1369 39.7047 21.2876 37.2938 22.8023C37.2129 22.8833 37.0307 22.863 37.0683 23.0307C37.4701 24.583 37.765 26.462 36.5046 27.6877C35.4293 28.9423 34.1689 28.7139 32.9057 28.5C32.8189 28.5057 32.6079 28.2861 32.6339 28.4971C32.8218 29.2371 32.9404 30.0783 32.7409 30.8501C32.1252 32.706 30.2896 32.8737 28.7228 32.4198C28.5089 32.3186 28.6216 32.6453 28.5985 32.7869C28.6881 35.3713 25.5516 35.1429 23.9299 34.452C23.2564 36.9005 20.7935 37.1173 18.8827 36.0593C18.5387 36.8687 18.2294 37.311 17.5443 37.6521C17.1454 37.8631 16.7552 37.9989 16.2869 37.9845C15.9429 38.0192 15.5873 37.8573 15.5757 38.0654C15.6654 38.8517 15.463 39.6929 14.8617 40.2508C14.6305 40.4503 14.3674 40.5688 14.0783 40.6642C11.3264 41.3551 13.1128 39.6033 10.5777 44.0001H10.4765C6.50752 42.3148 7.33138 43.0867 7.5742 41.4274C7.95578 39.7536 8.98488 36.2529 8.73049 36.2963C6.40634 35.4031 6.53354 33.79 6.05367 31.8995C5.70679 29.8702 5.33388 27.8467 4.90316 25.9012H4.8916Z" fill="#198737"/>
<path d="M16.7309 27.9277C16.809 27.919 17.0581 27.7918 17.2551 27.7051C17.6269 27.5953 17.9652 27.4623 18.4857 27.2773C18.5341 27.2686 18.5712 27.2686 18.7051 27.1905C18.7832 27.1732 18.9356 27.1327 19.1661 27.0373C20.0769 26.7685 21.6905 26.4158 22.0511 26.199C22.211 26.147 22.5121 26.0516 22.8207 25.8897C23.0884 25.7972 23.501 25.6989 23.9211 25.4966C23.9583 25.4879 23.9918 25.485 24.0959 25.4098C24.1628 25.3347 24.542 25.2624 24.4342 25.4272C22.7314 27.364 19.4301 27.3148 17.0507 28.4567C15.545 28.925 14.3404 28.9684 13.924 29.6535C13.4035 30.0929 13.2808 30.3155 12.515 31.0555C11.6487 31.8013 10.8606 32.7871 10.2471 33.8451C9.22473 34.7933 12.225 33.6398 12.6674 33.5011C13.0057 33.3652 13.4407 33.2236 13.8757 32.9865C14.1396 32.9085 14.4742 32.7264 14.8683 32.5587C15.6416 32.2581 18.311 31.2607 16.4298 32.4228C16.296 32.4951 16.0246 32.6281 15.768 32.816C10.0724 35.886 9.64484 33.8104 8.5295 36.785C7.8194 37.9413 7.22084 40.2886 6.72266 39.9648C6.81932 39.0311 7.27661 38.2477 7.64839 37.2967C7.84171 36.9064 8.13913 36.2444 8.37335 35.7241C8.51835 35.4697 8.79718 34.9812 9.03512 34.5793C9.06858 34.5851 9.35857 34.0619 9.87162 33.1253C9.95341 33.001 10.1058 32.7842 10.2657 32.5269C10.3772 32.4142 10.4813 32.2696 10.5743 32.1164C10.9609 31.6076 11.2695 31.3099 11.8495 30.6797C11.9536 30.567 12.0651 30.4889 12.2696 30.2345C12.3402 30.1912 12.4109 30.116 12.4443 30.0466C12.6674 29.8472 13.0169 29.3557 13.3924 29.1216C13.4407 29.0984 13.3961 29.1216 13.6117 28.9163C13.6638 28.873 13.6266 28.9192 14.2066 28.3526C14.4557 28.1387 14.4742 28.1358 14.8237 27.7542C14.8311 27.7485 14.8237 27.7542 14.846 27.7369C14.8906 27.7167 14.8088 27.7542 14.9799 27.6184C14.9947 27.5981 14.9799 27.627 15.3107 27.2946C15.3182 27.2888 15.3107 27.2946 15.333 27.2773C15.3851 27.2513 15.3331 27.2426 15.4446 27.1905C15.4818 27.1356 15.5227 27.1587 15.6416 27.02C15.7792 26.9217 15.8907 26.754 16.1696 26.5575C16.177 26.5517 16.1696 26.5575 16.1919 26.5401C16.1993 26.5343 16.1919 26.5401 16.2142 26.5228C16.2365 26.5199 16.2067 26.5112 16.2588 26.4707C16.5227 26.2539 17.0023 25.8897 17.3146 25.5139C17.6604 25.2653 17.8872 25.034 18.3036 24.5889C18.6865 24.2535 19.0731 23.8373 19.4263 23.4412C19.4561 23.395 19.4858 23.4094 19.5602 23.288C19.5899 23.262 19.6197 23.2447 19.694 23.1348C19.7238 23.1146 19.7461 23.1088 19.8055 23.0163C19.8167 23.0018 19.958 22.8833 20.181 22.5538C20.2442 22.5017 20.2591 22.4786 20.5342 22.1259C20.5826 22.0883 20.6235 22.0594 20.7759 21.8513C20.8168 21.8397 20.7759 21.8513 20.8428 21.7819C20.88 21.727 20.9023 21.7415 20.9952 21.6114C21.0436 21.5709 21.0882 21.5391 21.2369 21.3194C21.7723 20.6487 22.1775 20.1573 22.7129 19.3681C22.8504 19.1976 22.7723 19.2785 23.3077 18.4604C23.5903 18.0731 23.9695 17.3446 24.3636 16.7664C24.397 16.7462 24.3896 16.7636 24.5383 16.5265C24.6275 16.4253 24.7353 16.1999 24.9361 15.9802C25.2298 15.5119 25.7168 14.8557 26.0366 14.2515C26.2894 14.133 26.5905 12.4216 27.5571 12.968C28.0404 13.3409 24.4342 17.6337 25.5756 16.8011C25.7503 16.7549 25.9845 16.6971 26.1704 16.5959C26.8247 16.4138 27.5348 16.1825 28.3044 15.827C28.323 15.827 28.3044 15.827 28.349 15.8096C28.6316 15.7316 28.9587 15.5755 29.2301 15.4165C29.2822 15.3991 29.1744 15.4483 29.4941 15.2806C29.68 15.1939 29.5127 15.2922 30.022 14.9713C30.0704 14.9048 30.0815 14.9164 30.3529 14.766C30.4124 14.7256 30.4347 14.74 30.5723 14.6128C30.8697 14.4423 30.55 14.6417 31.234 14.2197C31.2861 14.2168 31.234 14.2197 31.3456 14.1503C31.3976 14.1127 31.3679 14.1445 31.4794 14.0636C31.9255 13.734 32.1337 14.1619 31.5909 14.6128C31.5352 14.6678 31.5091 14.6851 31.26 14.9539C25.9548 18.4026 25.3153 16.1102 23.5791 19.5734C23.449 19.7468 23.1664 20.166 22.9396 20.5158C22.1217 21.4755 21.3075 22.6087 20.3446 23.6812C19.8279 24.1697 19.352 24.7189 18.8017 25.2219C18.7646 25.2393 18.7534 25.2826 18.4262 25.5977C18.1028 25.907 17.6641 26.2626 17.1919 26.676C17.125 26.7396 16.98 26.8379 16.8164 26.9998C15.9279 27.8525 14.1099 29.0262 16.7347 27.9219L16.7309 27.9277Z" fill="#F5EBDC"/>
<path d="M16.4198 22.473C18.6802 18.7353 19.4164 18.3855 19.3829 17.287C19.1636 13.6793 18.7695 14.7663 18.1077 12.5259C17.7731 10.6036 18.6579 10.5804 18.7658 12.4479C20.4313 16.255 19.5948 15.3242 20.1748 16.388C21.2678 14.4598 22.6731 10.7192 22.9854 9.13794C23.0338 6.8051 24.8741 5.91763 23.8554 8.97317C23.9521 9.16396 22.926 11.8032 23.4948 11.2511C28.5844 9.16396 29.2982 7.80241 30.5214 7.78796C31.4174 7.75616 27.4505 10.2798 27.5026 10.1815C19.948 13.3209 25.0265 10.8088 18.9293 20.0332C15.0071 26.4334 7.99161 35.2155 10.713 30.6973C16.9254 21.7619 15.6949 25.968 13.0478 18.4607C12.9363 18.1195 13.3118 18.2554 13.5794 18.4693C15.0889 20.146 15.5573 24.7741 16.4198 22.473Z" fill="#F5EBDC"/>
</svg>
