<svg width="44" height="44" viewBox="0 0 44 44" fill="none" xmlns="http://www.w3.org/2000/svg">
<g clip-path="url(#clip0_735_24449)">
<path d="M43.995 22.9519C44.02 24.2987 43.9356 25.6455 43.7794 26.9923C43.5513 27.836 43.4013 28.6734 43.1638 29.5234C42.6232 31.3108 41.9576 33.0232 40.9983 34.6262C40.6202 35.3386 40.1421 35.9073 39.6172 36.4979C38.5766 37.7822 37.3298 38.8571 36.0143 39.8414C35.3206 40.2945 34.6238 40.6664 33.8769 41.0226C32.8333 41.6226 31.7458 42.085 30.6397 42.5444C29.2273 42.9756 27.7993 43.3131 26.3306 43.5006C25.1276 43.6037 23.9058 43.7412 22.6809 43.7599C19.9561 43.6006 17.225 43.2006 14.6439 42.2725C12.191 41.5413 9.74741 40.6914 7.65381 39.1759C7.18509 38.8009 6.68513 38.4822 6.22266 38.1103C5.6727 37.5291 5.04462 37.0416 4.53841 36.4167C3.9072 35.5511 3.2635 34.7074 2.76353 33.7637C2.09483 32.4013 1.498 31.0452 1.06678 29.589C0.813671 28.511 0.476195 27.4923 0.294958 26.3955C-0.35812 21.0396 0.163718 19.0678 0.979285 17.0773C1.06678 16.8648 1.1324 16.6774 1.20427 16.4555C1.40738 15.3493 2.10733 14.4619 2.63542 13.4901C3.43536 12.0277 4.20718 10.5903 4.88838 9.7247C5.69145 8.72164 6.58826 7.83733 7.49757 6.94051C8.42251 5.9812 9.47556 5.225 10.563 4.48755C12.7066 3.07827 14.9877 1.76898 17.5125 1.16902C18.0499 1.01903 18.5468 0.803418 19.0842 0.656552C19.7467 0.490938 20.3935 0.390945 21.0779 0.303451C22.384 0.144086 23.6589 0.3222 24.9338 0.562809C27.1587 0.919035 29.2367 1.7721 31.2584 2.75016C31.9146 3.06264 32.5927 3.32825 33.2176 3.7126C36.8424 5.80309 38.311 7.19362 39.8703 9.15599C40.9764 10.6778 41.942 12.3183 42.5857 14.0963C43.6169 16.943 43.9481 19.9459 44.0044 22.9488C44.0044 22.9488 44.0012 22.9488 43.9981 22.9488L43.995 22.9519Z" fill="#FF8732"/>
<path d="M15.8391 39.1319C15.0173 38.9351 14.8861 37.6601 15.5642 37.657C15.9704 37.5883 16.3141 38.0757 16.411 38.3445C16.5266 38.7382 16.2829 39.2038 15.8391 39.1319Z" fill="#F5EBDC"/>
<path d="M39.345 12.9933C39.2825 13.312 39.2106 13.5526 38.92 13.712C37.9982 14.2432 38.2138 12.7683 38.5013 12.3746C38.9857 11.8496 39.3294 12.4277 39.345 12.9027V12.9964V12.9933Z" fill="#F5EBDC"/>
<path d="M39.3461 28.3483C39.3024 28.6827 39.0055 29.0108 38.6462 28.8795C38.2556 28.6577 38.2493 27.7546 38.3087 27.4609C38.3368 27.3484 38.5025 27.2984 38.6118 27.2828C39.1899 27.3265 39.268 27.7452 39.343 28.1608V28.3452L39.3461 28.3483Z" fill="#F5EBDC"/>
<path d="M18.9592 24.0516C18.9842 24.2641 18.8811 24.4579 18.6936 24.5579C18.1062 25.0141 17.0969 23.2204 17.25 22.8642C17.35 22.4705 17.8843 22.4299 18.1843 22.6392C18.5874 22.9361 19.0061 23.7235 18.9624 24.0516H18.9592Z" fill="#F5EBDC"/>
<path d="M9.38363 6.78069C10.1055 6.79944 10.9179 8.90555 9.8336 8.90555C9.26802 8.8243 8.85867 7.91186 8.80242 7.54001C8.78055 7.19629 8.97741 6.74319 9.38051 6.78069H9.38363Z" fill="#F5EBDC"/>
<path d="M10.3262 32.776C10.3262 33.3322 10.0887 33.9884 9.65436 34.2603C8.85442 34.6602 8.7138 33.7072 8.93254 33.1916C9.25751 32.301 10.2449 31.6667 10.3262 32.776Z" fill="#F5EBDC"/>
<path d="M18.8653 17.0619C18.9527 17.8837 17.9434 19.168 17.3154 18.1556C17.0091 17.4431 18.8653 15.5276 18.8653 17.0619Z" fill="#F5EBDC"/>
<path d="M10.4524 25.7857C9.77431 25.7795 9.73993 24.7639 9.8993 24.3327C10.1774 23.8827 11.1398 23.6921 11.1523 24.392C11.2148 24.9014 11.093 25.8388 10.4493 25.7857H10.4524Z" fill="#F5EBDC"/>
<path d="M9.78987 16.218C9.76175 15.8649 9.94611 15.4274 10.2961 15.3024C10.996 15.0931 11.2898 16.3367 11.1398 16.7617C11.0804 16.9461 10.9304 17.0148 10.7554 17.0773C10.2148 17.321 9.70863 16.743 9.78987 16.218Z" fill="#F5EBDC"/>
<path d="M6.91613 24.6079C7.68795 24.5329 8.02542 25.1423 7.41297 25.6141C6.90988 25.9266 5.52248 25.986 5.70371 25.1235C5.89432 24.6673 6.46616 24.5986 6.91613 24.6111V24.6079Z" fill="#F5EBDC"/>
<path d="M34.1925 9.0994C34.1706 8.59319 34.4769 8.00572 35.0299 7.9276C35.683 7.85886 35.6112 8.76192 35.4393 9.15877C35.0581 9.85873 34.1613 10.1306 34.1956 9.09628L34.1925 9.0994Z" fill="#F5EBDC"/>
<path d="M35.5662 32.4725C35.5255 33.4255 34.6319 33.2443 34.3319 32.7381C33.91 31.9663 34.3631 30.7663 35.2131 31.6663C35.4006 31.8788 35.5568 32.1694 35.5662 32.4725Z" fill="#F5EBDC"/>
<path d="M3.25807 15.8273C3.36119 14.1774 4.27675 14.3931 4.40174 14.7087C4.65797 15.2899 4.28612 16.1773 3.92365 16.4585C3.4768 16.7616 3.21745 16.2054 3.25807 15.8273Z" fill="#F5EBDC"/>
<path d="M6.70158 15.3024C7.07031 15.2899 7.67651 15.4524 7.70464 15.8929C7.71401 16.7085 6.38286 16.5648 5.98913 16.3179C5.28606 15.7992 6.15787 15.2461 6.70158 15.3024Z" fill="#F5EBDC"/>
<path d="M4.49679 25.9857C4.52803 26.2638 4.32492 26.5857 4.01557 26.595C3.41561 26.6888 3.27187 25.5826 3.23438 25.2326C3.23438 24.8639 3.50936 24.3952 3.89683 24.6608C4.27493 24.9295 4.52803 25.7013 4.49679 25.9857Z" fill="#F5EBDC"/>
<path d="M13.9039 28.7729C12.6509 28.6886 13.7102 27.4136 14.4508 27.4949C14.8882 27.4418 15.4569 27.8574 15.2007 28.3105C14.9851 28.6604 14.1508 28.7573 13.9071 28.7604C13.9071 28.7636 13.9071 28.7698 13.9071 28.7729H13.9039Z" fill="#F5EBDC"/>
<path d="M14.3979 13.646C13.9198 13.6304 13.2511 13.1242 13.3448 12.6773C13.4667 12.1367 14.7135 12.4617 14.951 12.5805C15.6697 13.0398 14.9447 13.6304 14.3979 13.6491V13.646Z" fill="#F5EBDC"/>
<path d="M5.27635 18.5834C5.65445 18.5771 6.0013 19.2521 6.00755 19.5052C6.12941 20.6051 4.70764 20.6363 4.75763 19.6458C4.75138 19.1927 4.70139 18.5959 5.27635 18.5834Z" fill="#F5EBDC"/>
<path d="M5.18591 22.4676C4.83906 22.4363 4.76406 22.252 4.74219 21.927C4.80781 21.6395 4.67344 21.302 4.82968 21.0302C5.01092 20.7552 5.43589 20.6458 5.70462 20.8427C6.32645 21.3052 5.96085 22.4363 5.18278 22.4676H5.18591Z" fill="#F5EBDC"/>
<path d="M18.3591 27.3324C18.1278 27.3668 17.9278 27.1574 17.9185 26.9231C17.8528 26.2856 18.534 25.5763 19.0684 25.6513C19.8965 25.8606 18.8778 27.4512 18.3591 27.3324Z" fill="#F5EBDC"/>
<path d="M15.6119 5.78711C16.0275 5.73712 16.4931 6.21833 16.5712 6.53706C16.8212 7.54637 15.4369 7.06828 15.062 6.66518C14.5964 6.12459 15.062 5.73712 15.6088 5.79024C15.6088 5.79024 15.6088 5.79024 15.6088 5.78711H15.6119Z" fill="#F5EBDC"/>
<path d="M11.0827 10.4366C11.114 10.7241 10.8327 10.9709 10.5453 10.9491C9.99531 10.8647 9.64533 10.2835 9.67345 9.74913C9.6672 9.52415 9.79532 9.35853 10.0078 9.29291C10.5453 9.1148 11.1171 10.0991 11.0859 10.4366H11.0827Z" fill="#F5EBDC"/>
<path d="M18.8892 15.4178C18.0049 15.3865 17.3331 13.5148 18.6299 13.7929C19.1611 13.9679 19.7548 15.4834 18.8892 15.4178Z" fill="#F5EBDC"/>
<path d="M29.0569 13.621C30.1599 13.6116 29.91 14.8646 29.035 14.9209C27.682 15.0052 28.0195 13.6335 29.0569 13.621Z" fill="#F5EBDC"/>
<path d="M9.67188 31.4012C9.75937 30.0419 10.9062 29.8732 11.0999 30.6075C11.1093 31.6324 9.81561 32.2511 9.67188 31.4012Z" fill="#F5EBDC"/>
<path d="M15.4761 35.3288C15.0261 35.3195 14.7574 34.9914 14.9668 34.5976C15.2449 34.1789 15.998 33.8446 16.3761 33.9789C16.801 34.1727 16.4479 34.857 16.2636 35.0757C16.0448 35.2663 15.7573 35.2632 15.4761 35.3257V35.3288Z" fill="#F5EBDC"/>
<path d="M35.3453 24.461C35.3078 24.0829 35.4578 23.2579 35.9921 23.5329C36.3077 23.8141 36.3921 24.4703 36.3796 24.7797C36.139 26.1515 35.2672 25.4109 35.3453 24.461Z" fill="#F5EBDC"/>
<path d="M24.0299 10.1338C24.5361 10.1307 24.6392 10.8119 24.4517 11.1931C24.2705 11.5337 23.733 11.8493 23.4112 11.6712C22.8706 11.2556 23.4018 10.0744 24.0299 10.1307V10.1338Z" fill="#F5EBDC"/>
<path d="M17.2609 29.2042C18.1546 29.3479 18.439 30.8666 17.5359 30.8634C16.8484 30.7291 16.3047 29.3135 17.2609 29.2042Z" fill="#F5EBDC"/>
<path d="M23.2194 30.0171C23.235 28.6797 24.8568 29.689 24.5131 30.567C24.0881 31.4357 23.1913 30.717 23.2194 30.0171Z" fill="#F5EBDC"/>
<path d="M5.59375 10.5464C5.65937 9.61831 6.28433 9.84955 6.64993 10.4214C6.94053 10.9057 7.07802 11.9432 6.26245 11.6088C5.85936 11.4057 5.60625 10.9932 5.59375 10.5464Z" fill="#F5EBDC"/>
<path d="M11.4398 9.07128C9.40241 8.75255 11.2991 7.81511 11.9928 8.02135C12.4959 8.15571 12.724 8.59943 12.2741 8.90566C12.0116 9.03378 11.7304 9.01503 11.4398 9.07128Z" fill="#F5EBDC"/>
<path d="M6.85791 29.9166C6.85478 30.2791 6.74229 30.629 6.48293 30.8978C5.70799 31.8321 5.47051 30.5197 5.70174 30.101C5.9361 29.5291 6.87978 29.026 6.85791 29.9166Z" fill="#F5EBDC"/>
<path d="M27.4491 4.68119C27.3897 6.45607 26.1429 5.35927 26.2054 4.71556C26.4148 3.825 27.4709 3.62188 27.4491 4.68119Z" fill="#F5EBDC"/>
<path d="M12.0995 22.049C12.1213 22.3458 11.9588 22.5864 11.7589 22.7958C11.1527 23.4645 10.7339 22.9052 10.8464 22.2333C10.9339 21.4428 12.1432 21.0115 12.1026 22.049H12.0995Z" fill="#F5EBDC"/>
<path d="M20.3667 5.56863C20.3792 6.17171 19.9012 6.40295 19.5543 5.89361C19.1137 5.39364 19.0231 4.1281 19.923 4.39371C20.323 4.56245 20.3293 5.22803 20.3667 5.56863Z" fill="#F5EBDC"/>
<path d="M20.3231 35.6355C20.2888 35.9542 20.345 36.3167 20.1294 36.5854C19.7638 36.9135 19.2232 36.7823 19.2076 36.2635C19.1232 35.3823 20.2606 34.1543 20.3231 35.6323V35.6355Z" fill="#F5EBDC"/>
<path d="M27.0013 37.1291C26.6638 37.1291 26.4545 36.9041 26.3264 36.6135C25.917 36.0323 26.8826 35.2136 27.1419 35.5136C27.6638 36.0042 27.4856 37.1291 27.0044 37.1291H27.0013Z" fill="#F5EBDC"/>
<path d="M30.5012 13.3151C30.4731 12.987 30.595 12.6745 30.8887 12.5151C32.1136 11.9902 31.6699 13.5932 31.1856 14.0244C30.6793 14.3463 30.4731 13.6869 30.4981 13.3151H30.5012Z" fill="#F5EBDC"/>
<path d="M33.9222 8.19309C33.9316 8.48369 33.6097 8.58369 33.3629 8.51182C32.9035 8.4337 32.6035 8.03372 32.4879 7.60563C32.4004 7.34002 32.6254 7.06504 32.9004 7.04316C33.4441 6.95567 33.9253 7.84936 33.9222 8.19621V8.19309Z" fill="#F5EBDC"/>
<path d="M16.4004 2.4908C16.3847 2.92827 16.2066 3.33449 15.8035 3.48448C15.3317 3.69072 14.9723 3.15638 15.1192 2.74078C15.2879 2.06583 16.3191 1.57836 16.3972 2.49393L16.4004 2.4908Z" fill="#F5EBDC"/>
<path d="M10.8289 18.6206C10.7851 18.2707 11.0539 17.8707 11.432 18.0019C12.06 18.405 12.4413 19.4987 11.4413 19.5987C10.9882 19.6362 10.807 18.9019 10.8289 18.6206Z" fill="#F5EBDC"/>
<path d="M32.9193 34.0262C31.7663 33.9419 33.1318 32.1232 33.8067 32.6201C34.1286 33.1825 33.5255 34.07 32.9193 34.0294V34.0262Z" fill="#F5EBDC"/>
<path d="M28.7835 26.2517C29.9022 26.1954 30.1584 27.2829 29.1616 27.4016C28.0055 27.4797 27.7648 26.2298 28.7835 26.2517Z" fill="#F5EBDC"/>
<path d="M36.5195 21.4517C36.5195 21.058 36.8476 21.0018 37.1257 21.158C37.4757 21.3767 37.8663 22.4985 37.7538 22.6954C37.4726 23.0235 36.9539 22.6985 36.7664 22.4298C36.5664 22.1267 36.5851 21.8048 36.5227 21.4548L36.5195 21.4517Z" fill="#F5EBDC"/>
<path d="M8.5013 16.3865C9.08251 16.3459 9.06064 17.0427 8.73879 17.3271C8.03571 17.9021 7.02641 17.6208 7.467 16.8771C7.71698 16.5803 8.19195 16.3709 8.5013 16.3928V16.3865Z" fill="#F5EBDC"/>
<path d="M34.4456 6.03693C35.4892 6.11192 35.8423 7.16185 35.0736 7.25559C34.0643 7.37121 33.2425 6.15254 34.4456 6.03693Z" fill="#F5EBDC"/>
<path d="M31.0298 22.0706C31.0235 22.783 29.8986 23.8861 29.8267 22.6081C29.6892 21.7425 30.9704 20.9269 31.0298 22.0706Z" fill="#F5EBDC"/>
<path d="M30.604 19.6239C29.9384 19.6083 29.4041 18.1208 30.154 17.9427C30.3634 17.9115 30.5009 18.1333 30.629 18.274C31.0477 18.6396 31.3352 19.5395 30.6071 19.6239H30.604Z" fill="#F5EBDC"/>
<path d="M31.7571 15.3021C32.7039 15.3333 33.3507 16.3801 32.1446 16.527C31.329 16.4864 30.6447 15.3833 31.7571 15.3021Z" fill="#F5EBDC"/>
<path d="M31.6996 28.2637C31.7402 28.8168 31.184 28.8386 30.8715 28.5637C30.4778 28.2356 30.3403 27.495 30.7215 27.1294C31.2183 26.9231 31.7714 27.8918 31.6996 28.2637Z" fill="#F5EBDC"/>
<path d="M23.942 13.768C23.9795 14.018 23.8264 14.2242 23.5826 14.3148C22.9639 14.5336 22.6108 13.3087 22.7546 12.9649C23.2014 12.2775 23.9826 13.2493 23.942 13.7711V13.768Z" fill="#F5EBDC"/>
<path d="M11.6021 32.0389C12.7271 32.117 12.5333 32.9107 11.799 33.0482C11.474 33.0982 11.1803 32.9951 10.8866 32.8545C9.87725 32.4514 11.1303 32.0108 11.6053 32.042L11.6021 32.0389Z" fill="#F5EBDC"/>
<path d="M34.8628 33.8478C35.4346 33.8415 35.6721 34.2696 35.3096 34.6852C35.0346 34.8977 34.7097 35.0352 34.3628 35.0383C33.2348 34.8164 34.2003 33.7946 34.8596 33.8478H34.8628Z" fill="#F5EBDC"/>
<path d="M8.0437 23.5018C9.00301 23.5361 9.52172 24.7548 8.27494 24.6861C7.17501 24.5986 7.25313 23.4393 8.0437 23.5018Z" fill="#F5EBDC"/>
<path d="M27.7851 5.51227C28.2132 5.53102 28.6319 5.81537 28.8694 6.17785C29.0475 6.50595 28.6975 6.88405 28.3476 6.79343C27.5476 6.70906 26.8008 5.54039 27.7882 5.51227H27.7851Z" fill="#F5EBDC"/>
<path d="M2.67113 18.7645C1.69307 18.6301 1.82744 17.5958 2.718 17.5208C3.94604 17.7302 3.59919 18.7051 2.67113 18.7645Z" fill="#F5EBDC"/>
<path d="M35.371 28.9731C35.3428 29.3575 35.0429 29.7418 34.7523 29.995C34.3335 30.2699 34.1836 29.6044 34.2492 29.3075C34.3929 28.1826 35.2897 27.8857 35.371 28.9731Z" fill="#F5EBDC"/>
<path d="M34.2774 11.5837C34.3774 9.99002 35.7179 12.1149 35.3398 12.543C34.6617 13.3242 34.2742 12.143 34.2774 11.5837Z" fill="#F5EBDC"/>
<path d="M23.6205 18.6802C22.308 18.6083 23.2392 17.3521 24.0454 17.4709C25.0391 17.6365 24.2954 18.7302 23.6205 18.6802Z" fill="#F5EBDC"/>
<path d="M23.9442 27.3919C23.9129 27.8263 23.5161 28.3169 23.0442 28.3294C22.363 28.2981 22.9192 26.9638 23.1974 26.8076C23.5536 26.592 23.9879 27.0201 23.9442 27.3919Z" fill="#F5EBDC"/>
<path d="M27.7518 35.5756C27.405 35.61 27.2331 35.3506 27.3643 35.0381C27.5643 34.6163 28.0799 34.3569 28.4892 34.3507C28.9205 34.3444 29.0173 34.6538 28.8736 34.9569C28.6361 35.3287 28.1955 35.5818 27.7518 35.5756Z" fill="#F5EBDC"/>
<path d="M2.81362 23.5701C1.6762 23.4951 1.91368 22.4733 2.57301 22.3233C3.78855 22.3671 3.6823 23.5263 2.81362 23.5701Z" fill="#F5EBDC"/>
<path d="M31.7778 25.7359C30.081 25.6922 32.3715 23.7704 32.8089 25.0016C32.8746 25.5078 32.1215 25.7609 31.7778 25.7359Z" fill="#F5EBDC"/>
<path d="M20.9883 17.6362C20.2634 17.58 19.5291 16.1582 20.5196 16.1926C21.2039 16.2394 21.8289 17.5394 20.9883 17.6362Z" fill="#F5EBDC"/>
<path d="M33.2474 30.1509C33.2224 29.7353 33.563 29.576 33.863 29.7603C34.1848 30.0103 34.5223 30.6321 34.4161 30.9134C34.3879 31.0946 34.2629 31.2477 34.0817 31.2946C33.563 31.4227 33.2411 30.4603 33.2505 30.1478L33.2474 30.1509Z" fill="#F5EBDC"/>
<path d="M34.4428 10.3651C34.4115 10.7682 34.1209 11.1119 33.7834 11.3275C32.9366 11.6494 33.3178 10.1651 33.6897 9.90263C34.0865 9.5714 34.4709 9.93388 34.4459 10.3651H34.4428Z" fill="#F5EBDC"/>
<path d="M35.8827 30.0296C36.4764 30.0452 36.3577 30.5452 36.0827 30.8389C35.814 31.1452 35.3702 31.3608 34.9796 31.2795C34.5391 31.0858 34.9734 30.4827 35.1734 30.314C35.364 30.114 35.6109 30.0484 35.8827 30.0296Z" fill="#F5EBDC"/>
<path d="M36.3913 16.3708C36.3101 17.627 35.3883 17.3895 35.3789 16.2989C35.4851 15.199 36.3945 15.3459 36.3913 16.3708Z" fill="#F5EBDC"/>
<path d="M35.2426 9.78382C35.9613 9.72445 36.6206 10.99 35.8456 11.0525C35.0051 11.1681 34.2645 9.77132 35.2426 9.78382Z" fill="#F5EBDC"/>
<path d="M18.0773 10.8401C18.1398 11.5963 17.0899 12.1744 16.9493 11.337C16.868 10.5245 18.0586 9.57144 18.0773 10.8401Z" fill="#F5EBDC"/>
<path d="M37.5426 18.8521C37.5895 19.652 36.6208 20.352 36.5489 19.6895C36.3114 18.4052 37.5926 17.8928 37.5426 18.8521Z" fill="#F5EBDC"/>
<path d="M21.0846 19.9865C21.0908 20.6833 20.3284 20.8364 20.1596 20.1458C19.944 18.6709 20.9283 18.574 21.0846 19.9865Z" fill="#F5EBDC"/>
<path d="M22.9261 19.3272C22.9355 19.5585 22.6699 19.8709 22.4667 19.9491C22.0105 20.1866 21.3262 19.6772 21.6231 19.2366C21.7949 18.8273 23.0011 18.871 22.9261 19.3272Z" fill="#F5EBDC"/>
<path d="M24.1535 20.0582C24.7379 20.055 25.166 21.2393 24.3941 21.305C23.8286 21.2831 23.3661 20.0582 24.1535 20.0582Z" fill="#F5EBDC"/>
<path d="M26.8312 17.0054C26.7406 18.1834 25.7376 17.221 25.8438 16.5648C25.9282 16.2523 26.3 16.1304 26.5594 16.3148C26.7375 16.496 26.825 16.7523 26.8344 17.0054H26.8312Z" fill="#F5EBDC"/>
<path d="M0.79392 20.9395C0.79392 21.752 0.631432 22.5238 0.693927 23.3425C0.687678 24.758 0.943909 25.1861 1.27826 26.0923C1.57511 27.3579 1.7376 27.7516 2.14695 28.564C2.57817 29.7046 3.1875 30.6108 3.74684 31.6045C4.24367 32.5263 4.55928 33.5012 5.11861 34.3793C6.19354 36.2042 7.10597 36.6916 8.40588 37.6228C9.81515 38.6071 11.4088 39.2571 13.0149 39.832C14.393 40.1851 15.7335 40.6695 17.1084 41.0632C17.8865 41.3507 18.6708 41.4726 19.4582 41.7069C21.4612 42.61 22.6299 42.2319 24.1141 42.5694H24.9672C25.7828 42.4569 26.7108 42.3631 27.5233 42.035C28.242 41.8757 28.9075 41.5382 29.5762 41.2163C30.5699 40.8663 31.4886 40.3539 32.3479 39.7352C33.6291 38.9102 34.779 37.9603 35.9664 37.001C36.9757 36.1729 37.9788 35.3605 38.8537 34.3887C39.4287 33.5856 40.038 32.8263 40.5505 31.9857C41.9035 30.1702 42.0972 28.764 42.5097 26.9829C42.7378 26.4298 42.7003 25.7955 42.7753 25.2268V24.1862C42.7097 23.5956 42.6097 22.955 42.466 22.352C42.4003 21.7239 42.2222 21.1177 42.116 20.4833C42.0754 19.9646 41.9441 19.4896 41.8691 18.9772C41.7504 17.8054 41.5348 16.6336 41.2035 15.4899C40.9379 14.5806 40.5473 13.7244 40.3005 12.8026C39.9036 11.8901 39.4912 10.9715 39.0412 10.0746C38.4881 8.64036 37.4507 7.11234 36.5351 5.86242C35.9695 5.43745 35.329 4.99998 34.5759 4.52814C35.1071 5.23434 35.7539 5.85617 36.2789 6.58113C36.8382 7.29358 37.2851 8.03415 37.7663 8.78723C38.1256 9.33719 38.3319 9.9309 38.6006 10.5246C38.8225 10.9808 39.0037 11.4152 39.2287 11.8776C39.3693 12.1245 39.513 12.3182 39.5974 12.5995C39.788 13.2151 39.9661 13.7963 40.2067 14.3994C40.7692 16.343 41.2192 18.2835 41.4629 20.2958C41.6316 21.4176 41.8754 22.4613 42.066 23.58C42.1597 24.5893 42.1566 25.5799 41.9816 26.5767C41.5004 28.5734 41.441 29.3859 40.7067 30.6264C40.2567 31.3014 39.7911 31.9482 39.3412 32.6263C38.8756 33.3887 38.3631 34.0887 37.6819 34.6668C34.1384 37.7228 29.2075 41.5757 25.2234 41.9319C24.5485 42.0131 23.9454 41.9288 23.2861 41.8569C22.3799 41.7632 21.5174 41.7225 20.6363 41.4851C20.0894 41.3819 19.6363 41.1288 19.1051 40.9663C18.1739 40.6695 17.2646 40.4351 16.3272 40.1726C15.8928 40.0789 15.546 39.907 15.1429 39.7602C14.5711 39.5758 13.9649 39.4446 13.3805 39.2602C11.4494 38.6352 9.57767 37.7416 8.59337 37.0385C7.61844 36.301 6.56538 35.6167 5.93106 34.5449C5.15924 33.4231 4.74989 32.3357 4.25617 31.2764C3.9437 30.6858 3.53435 30.1796 3.25 29.5733C2.45005 27.9485 1.80322 26.2423 1.34076 24.4956C1.0814 23.3331 1.3845 22.1926 1.33138 21.027C1.33138 20.2927 1.29076 19.624 1.23451 18.9022C1.23139 17.8991 1.46887 16.9836 1.21264 16.4086C1.21264 16.418 1.20639 16.4273 1.20327 16.4398C1.20327 16.443 1.20327 16.4492 1.20327 16.4523C1.20327 16.4617 1.19702 16.4711 1.19389 16.4805C1.15327 16.6148 1.1064 16.7492 1.05328 16.8804C1.02828 16.9429 1.00328 17.0086 0.978282 17.0742C0.956409 17.1273 0.934535 17.1835 0.912662 17.2367C0.856416 17.3773 0.803295 17.5179 0.759548 17.6616C0.562687 18.7272 0.772047 19.8646 0.790795 20.9364L0.79392 20.9395Z" fill="#502314"/>
</g>
<defs>
<clipPath id="clip0_735_24449">
<rect width="44" height="43.5127" fill="white" transform="translate(0 0.243652)"/>
</clipPath>
</defs>
</svg>
