<svg width="44" height="44" viewBox="0 0 44 44" fill="none" xmlns="http://www.w3.org/2000/svg">
<g clip-path="url(#clip0_735_24604)">
<path d="M20.4742 43.5976C16.564 43.6077 11.7133 42.9706 10.3212 41.9998C7.77952 40.6548 5.64576 38.6761 3.92998 36.3805C0.670351 32.2411 0.798445 28.9039 0.120899 25.0038C-0.1454 22.5936 0.899571 20.4194 1.38161 18.1137C2.10634 15.1878 2.72995 14.1192 3.79852 12.4304C5.25474 9.49769 7.6548 7.31336 10.2301 5.38521C16.4528 0.338992 23.5114 0.170448 25.9182 0.514278C32.006 1.7278 37.1398 4.34361 39.9275 9.48421C42.186 13.0371 43.0962 16.0541 43.5681 19.6609C44.2827 23.3655 44.2018 27.2151 42.7254 30.7242C37.7398 41.2919 31.1902 41.3796 29.8621 41.8953C25.1732 43.1088 22.1158 43.5875 20.4776 43.5909V43.5976H20.4742Z" fill="#502314"/>
<g style="mix-blend-mode:multiply">
<path d="M0.0078125 23.7565C0.19321 22.7891 0.287595 21.6733 0.681987 20.6822C0.968511 20.7564 0.756146 22.425 0.894352 22.7082C1.68314 21.6834 2.04045 20.4159 2.57305 19.2159C5.15851 13.5528 6.28438 14.0315 7.55857 12.5854C8.2024 11.8707 8.52938 10.9977 9.19344 10.2831C10.744 9.07291 12.5643 8.34817 13.8924 6.82116C19.387 1.72775 16.4813 1.3165 20.9848 0.682772C21.4466 0.63558 22.2522 0.40973 21.8814 0.756931C20.9106 1.74797 20.1825 2.86037 19.4207 4.03343C17.9982 5.77618 16.4476 7.29982 14.961 9.01224C12.7935 11.473 11.1047 12.7809 10.6126 13.9843C7.54508 17.6586 8.55972 16.6642 7.36643 19.3069C6.26415 21.8553 3.76634 23.4194 2.37079 25.8161C2.05056 26.4566 1.53819 26.9352 1.49437 27.6634C1.86516 29.2544 2.4854 30.7646 3.32138 32.1905C3.6551 31.6916 4.05286 31.2062 4.49444 30.7545C6.57427 28.9679 6.09224 28.3106 6.99563 26.8982C7.30912 26.3521 7.72711 25.8363 8.2024 25.3813C11.0103 22.4486 13.2183 19.1182 15.9251 16.0709C16.8453 15.0933 17.6779 14.1259 18.4027 12.9831C21.8713 7.84591 23.732 6.52452 26.4692 3.77388C27.2108 2.95812 27.686 2.00753 28.5052 1.23223C28.5928 1.21874 28.7411 1.20526 28.8321 1.31313C28.9569 1.30302 29.1288 1.41088 29.2973 1.41425C29.2973 1.44796 29.4659 1.50527 29.631 1.52549C29.6243 1.55583 29.6243 1.62662 29.6985 1.56932C29.6985 1.57943 29.7052 1.57606 29.7153 1.62662C29.7355 1.61651 29.7524 1.60977 29.776 1.59628C29.7996 1.61651 29.8265 1.63673 29.8603 1.6637C29.8839 1.65696 29.9108 1.65359 29.9412 1.64347C29.9546 1.6637 29.9715 1.68393 29.9917 1.71089C30.0119 1.70078 30.0355 1.69067 30.0591 1.68055C30.0726 1.71089 30.0928 1.73449 30.1367 1.71426C30.167 1.73449 30.2007 1.75809 30.2344 1.78168C30.2412 1.78168 30.2547 1.77157 30.2782 1.76146C30.3052 1.78168 30.3254 1.83562 30.4266 1.82887C30.4333 1.84573 30.4367 1.86258 30.4434 1.88281C30.5108 1.88618 30.5816 1.89292 30.649 1.89629C30.6592 1.91315 30.6659 1.92663 30.6726 1.94348C30.6828 1.91652 30.8142 1.89629 30.7232 1.97719C30.7805 2.00416 30.8378 1.99405 30.885 1.99742C30.9288 2.03113 30.9693 2.06147 31.0097 2.08843C31.03 2.08169 31.0434 2.07495 31.0569 2.07158C31.0839 2.16259 31.185 2.08169 31.2356 2.19293C30.521 2.94127 30.0962 3.93568 29.4086 4.76829C27.6827 7.04701 25.3601 8.79987 23.3814 10.8763C21.7735 12.9494 20.2263 15.0023 18.5139 17.0181C16.6363 18.8721 15.861 20.1564 14.8194 21.3868C9.5912 26.1802 9.57098 26.1734 7.1608 31.0005C6.53382 32.1905 5.42818 32.9927 4.74726 34.1692C5.75515 35.2849 6.8136 36.3771 8.03049 37.3311C9.01815 36.1277 10.2991 35.167 11.2429 33.8826C11.7283 33.2388 11.9744 32.4972 12.3486 31.7691C13.7812 29.3084 16.0835 27.4881 18.0993 25.4824C18.5173 25.0475 19.0162 24.6464 19.3162 24.07C21.3084 20.598 23.7927 17.5642 26.1894 14.3551C27.7905 12.3831 29.5501 10.664 31.3974 8.91111C32.766 7.37398 34.0233 5.91102 35.348 4.34693C36.3458 4.9402 37.1852 5.80652 37.9537 6.71329C37.4413 7.68073 36.4604 8.33132 35.5975 9.01224C34.448 10.01 33.4199 11.1123 32.8064 12.5483C31.4075 14.8 31.1109 14.7225 30.2884 15.5147C29.0209 16.8664 27.6793 18.181 26.4995 19.6609C25.7545 20.5811 25.2556 21.6025 24.6388 22.6306C22.9938 25.6375 20.9072 28.2229 18.5813 30.7174C16.2756 33.5725 14.3509 36.6097 11.9812 39.4176C13.8183 40.0244 15.7498 40.5334 17.742 40.53C18.2813 40.0177 18.7397 39.3469 19.3297 38.8109C21.1971 36.9131 22.7309 34.7523 23.8736 32.3287C26.0411 28.1892 29.4996 25.061 32.5704 21.5958C35.7728 17.8069 38.8335 12.5887 41.0516 11.5202C41.5504 12.2719 42.0291 13.3 42.2145 14.2203C39.7875 17.5709 36.929 18.8451 35.6952 22.0205C35.3008 22.7419 34.8559 23.3284 34.2154 23.8576C33.2176 24.8386 32.0547 25.4622 31.0771 26.46C26.4961 31.4994 26.0748 34.0883 24.9792 36.0232C24.0691 37.5266 22.8017 38.7907 22.0803 40.4323C26.3815 39.7412 30.821 38.6525 34.239 35.7434C41.3381 30.441 42.9696 22.9138 42.4673 14.8708C42.4909 14.8708 42.4572 14.8607 42.5819 14.8574C42.8449 15.9933 43.2763 17.1361 43.3235 18.3563C43.1449 21.9564 42.737 25.6206 40.9808 28.7993C38.8504 33.2725 34.9975 36.8086 30.5277 38.9761C28.3501 39.9132 26.0545 40.4019 23.7421 40.9817C22.0331 41.275 20.3578 41.2548 18.6251 41.3391C14.0778 41.3256 9.41592 40.0446 6.32483 36.9704C2.12809 33.3096 0.46288 29.0387 0.0078125 23.9453V23.7565Z" fill="#1C1A1A"/>
</g>
</g>
<defs>
<clipPath id="clip0_735_24604">
<rect width="44" height="43.1946" fill="white" transform="translate(0 0.40271)"/>
</clipPath>
</defs>
</svg>
