<svg width="24" height="24" viewBox="0 0 24 24" fill="none" xmlns="http://www.w3.org/2000/svg">
<g clip-path="url(#clip0_664_23100)">
<path d="M2.90481 9.08947C3.3192 9.19979 3.95907 9.15334 4.89754 9.17656C4.90973 9.17656 4.92192 9.17656 4.9402 9.17656C5.08036 9.17656 5.22662 9.18818 5.37897 9.19398C7.31685 9.2985 8.55393 9.33333 9.40708 9.33333C11.5156 9.33333 11.2475 9.10689 13.4961 9.10689C14.1969 9.10689 15.1354 9.13011 16.47 9.18818C16.8234 9.20559 18.3713 9.26946 19.5535 9.26946C20.1386 9.26946 20.6383 9.25204 20.8455 9.20559C20.9247 9.18818 21.0039 9.16495 21.0709 9.14753C21.138 9.12431 21.1989 9.10689 21.2538 9.07786C21.6742 8.89786 21.79 8.62497 21.79 8.24175C21.7778 4.07284 17.4877 2 12.0214 2C9.51677 2 2.22229 2.63869 2.22229 7.62048C2.22229 8.60174 2.40511 8.95592 2.90481 9.08366V9.08947Z" fill="#502314"/>
</g>
<g clip-path="url(#clip1_664_23100)">
<path d="M22.6138 10.6562C22.2889 10.939 21.8476 11.1778 21.2407 11.3223C21.0017 11.3789 20.6339 11.4291 19.5857 11.4291C18.3904 11.4291 16.8518 11.36 16.4104 11.3412C15.1845 11.2846 14.2343 11.2595 13.4926 11.2595C12.4444 11.2595 12.0153 11.316 11.5617 11.3726C11.0529 11.4354 10.5258 11.5045 9.38562 11.5045C8.41098 11.5045 7.05628 11.4543 5.24798 11.3474C4.79437 11.3223 4.39593 11.3223 4.04653 11.3223C3.20061 11.3223 2.09111 11.3097 1.35553 10.5557C1.11034 11.027 1 11.6553 1 12.4785C1 15.3503 4.40206 15.3189 6.22875 15.3691C7.9022 15.4194 9.03622 15.4383 9.86375 15.4383C11.8866 15.4383 12.0521 15.3314 13.7317 15.3314C14.5592 15.3314 15.7484 15.3566 17.7099 15.4383C17.9 15.4446 18.1513 15.4508 18.4455 15.4508C19.6102 15.4508 21.3695 15.3566 21.8844 14.9167C22.8406 14.0998 23.4413 11.913 22.6199 10.6625L22.6138 10.6562Z" fill="#502314"/>
</g>
<g clip-path="url(#clip2_664_23100)">
<path d="M17.6073 17.4111C15.8539 17.3324 14.624 17.2966 13.7169 17.2966C12.9619 17.2966 12.5297 17.3252 12.073 17.3538C11.5555 17.3825 10.965 17.4254 9.86908 17.4254C8.93757 17.4254 7.74427 17.3968 6.21002 17.3467H5.97867C5.12631 17.3109 3.59815 17.2608 2.23437 16.6738C2.21611 16.9029 2.21002 17.1749 2.24655 17.4755C2.42311 19.1219 3.37897 20.396 4.43833 20.9758C5.47334 21.5341 6.59358 21.5556 7.69556 21.5556H7.78688C10.624 21.5556 13.4612 21.5556 16.3044 21.5556C17.522 21.5556 18.7762 21.5412 19.8904 20.8111C20.895 20.1454 21.7351 18.6208 21.7838 17.0246C21.1385 17.2465 20.1035 17.4326 18.4048 17.4326C18.0883 17.4326 17.8143 17.4254 17.6134 17.4183L17.6073 17.4111Z" fill="#502314"/>
</g>
<defs>
<clipPath id="clip0_664_23100">
<rect width="19.5556" height="7.33333" fill="white" transform="translate(2.22229 2)"/>
</clipPath>
<clipPath id="clip1_664_23100">
<rect width="22" height="4.88889" fill="white" transform="translate(1 10.5557)"/>
</clipPath>
<clipPath id="clip2_664_23100">
<rect width="19.5556" height="4.88889" fill="white" transform="translate(2.22229 16.6666)"/>
</clipPath>
</defs>
</svg>
