<svg width="12" height="13" viewBox="0 0 12 13" fill="none" xmlns="http://www.w3.org/2000/svg">
<g clip-path="url(#clip0_978_23091)">
<path fill-rule="evenodd" clip-rule="evenodd" d="M6.35862 9.98505L10.8477 5.2775C10.9382 5.18239 10.9982 5.02461 10.9982 4.86639C10.9982 4.70817 10.9382 4.54994 10.8477 4.45528L10.0945 3.66417C10.0041 3.5695 9.85362 3.50594 9.70317 3.50594C9.55271 3.50594 9.43135 3.5695 9.31135 3.66417L5.99771 7.13928L2.69181 3.67172C2.60135 3.57661 2.4509 3.5135 2.29999 3.5135C2.14953 3.5135 1.99908 3.57661 1.90862 3.67172L1.15544 4.46239C1.06499 4.5575 1.00499 4.71572 1.00499 4.87394C1.00499 5.03217 1.06499 5.15839 1.15544 5.28505L5.62817 9.97528C5.62817 9.97528 5.97908 10.3891 6.35862 9.98505Z" fill="#856559"/>
</g>
<defs>
<clipPath id="clip0_978_23091">
<rect width="10" height="6.66667" fill="white" transform="translate(11 10.1667) rotate(-180)"/>
</clipPath>
</defs>
</svg>
