<svg width="44" height="42" viewBox="0 0 44 42" fill="none" xmlns="http://www.w3.org/2000/svg">
<g clip-path="url(#clip0_735_24588)">
<path d="M0.828125 23.0917C0.93236 7.56065 19.0333 -5.37427 33.3037 4.56063C40.0757 8.96782 44.5252 16.4858 42.2581 25.3523C40.7565 32.8246 35.2027 37.8768 26.9258 39.7367C18.649 42.2742 2.28741 41.2546 0.828125 23.0949V23.0917Z" fill="#F5EBDC"/>
<path d="M17.9974 41.8866C11.5153 41.2026 6.25801 38.6619 3.16029 33.5674C-0.40974 28.4631 -0.49443 21.3361 0.661922 17.4142C4.11143 4.5477 17.2222 -0.914863 25.043 0.261038C28.6261 0.44345 30.688 1.7757 33.0072 3.09819C37.8085 5.89624 41.5056 10.4142 43.0756 15.0657C44.6912 20.5413 43.9616 23.7758 42.6424 28.3589C41.0626 33.5087 36.1961 37.3296 35.1636 37.8736C29.9193 40.7922 23.9746 42.0234 18.0007 41.8932L17.9974 41.8866ZM16.5056 2.11772C12.9746 3.09493 9.88342 5.37181 7.2515 7.92557C0.740098 14.2416 -1.19476 24.8279 3.5414 32.2872C6.9844 38.144 11.1342 39.6195 17.0365 40.6423C21.7303 41.1244 24.5577 40.5316 28.9779 39.157C33.1147 38.1146 36.7824 35.626 39.3427 32.1863C40.1864 30.9517 41.043 29.6521 41.5219 28.2156C42.1701 25.6227 43.0105 22.9517 42.8476 20.2253C43.0365 18.209 42.2287 16.2546 41.701 14.2904C40.5707 11.7529 38.688 9.36857 37.2841 7.70733C37.1961 7.69104 37.1766 7.57378 37.0756 7.50863C35.7108 6.37182 34.3883 5.02002 32.7303 4.24477C32.6978 4.22523 32.6912 4.17637 32.6456 4.18614C30.8541 3.05584 28.8411 2.08189 26.7955 1.49557C23.3948 0.932051 19.7759 0.791985 16.5121 2.12098L16.5056 2.11772Z" fill="#502314"/>
<path d="M4.31133 31.5834C3.71523 29.9352 2.9237 28.3033 2.84553 26.4531C2.33087 22.3782 3.22989 20.8114 3.32436 19.2316C4.55563 13.1045 8.06703 8.55074 12.6175 5.50186C17.94 1.96439 23.3016 1.54093 25.9172 2.74289C29.8292 4.14355 33.9465 5.92857 36.3309 9.39113C40.725 14.6648 40.5621 18.6648 40.3406 22.4824C40.0735 25.3326 38.2918 29.4499 37.3928 30.5085C35.5882 34.0004 31.813 35.4922 28.5719 37.2414C26.3374 38.1763 24.0703 38.6291 21.7218 39.2838C12.5849 40.5379 6.91719 36.6812 4.31784 31.5834H4.31133ZM31.5198 34.3359C34.0768 33.2088 36.1289 30.9091 37.1713 28.2902C37.8097 27.1046 38.4644 25.9678 38.7543 24.6388C38.9595 23.7984 39.2755 22.8602 39.2169 21.9156C39.598 19.1501 39.2071 16.2316 37.8879 13.6713C37.4872 12.2771 36.4416 11.1534 35.5524 10.01C35.4058 9.93836 35.497 9.61589 34.9595 9.27061C34.7934 8.7592 33.7478 8.00024 33.3439 7.68102C31.484 6.01978 29.0084 4.95463 26.6175 4.124C22.6533 2.0165 18.2429 3.29338 14.6859 5.30316C14.5784 5.31294 14.497 5.35202 14.4514 5.43997C14.1452 5.59958 13.7706 5.7429 13.4677 5.98395C13.4025 6.00349 13.282 6.0491 13.2429 6.15659C10.6664 7.93184 8.51328 10.3683 6.64357 12.9156C6.16149 14.1631 5.43185 15.2837 4.95302 16.5605C4.78364 17.427 4.37322 18.7755 4.38624 19.3325C4.15823 20.5931 3.64683 21.7951 3.61751 23.1143C3.54911 27.0166 3.72826 27.2283 4.49374 29.7007C5.23967 31.8929 7.62077 34.5899 8.83901 35.603C10.5263 36.8603 14.7413 38.1828 15.5231 38.2251C18.1778 38.603 20.852 38.375 23.4123 37.5932C25.4579 37.2056 27.4123 36.6518 29.2332 35.6421C29.2657 35.5932 29.3178 35.5997 29.3732 35.5965C29.4188 35.489 29.5133 35.4759 29.6175 35.4792C30.0182 35.1698 30.6305 34.9841 31.0573 34.6062C31.1061 34.5997 31.2462 34.5867 31.2885 34.4825C31.3765 34.5053 31.4221 34.414 31.5003 34.414C31.5068 34.3912 31.5133 34.3684 31.5198 34.3359ZM34.3211 32.6551C34.3211 32.6551 34.3276 32.6649 34.3341 32.6518C34.3341 32.6518 34.3276 32.6421 34.3211 32.6551ZM27.94 37.3619V37.3554L27.9302 37.3587H27.94V37.3619Z" fill="#502314"/>
<path d="M5.10175 24.8054C5.06918 17.8314 9.18644 9.6229 15.079 6.63591C16.6425 5.7206 20.0464 4.38183 21.1832 4.4763C22.6946 4.63265 24.206 4.48607 25.675 5.02353C27.2516 5.41441 28.8281 5.7206 30.206 6.69129C33.0105 8.26784 34.0138 9.05938 35.4242 11.1701C36.5122 13.2907 36.9812 14.1539 37.0985 16.6588C37.5252 19.662 37.1343 20.2809 36.8737 22.0269C36.5448 23.9454 35.7434 25.7598 35.0236 27.61C33.0333 30.9683 29.4242 32.8803 25.8998 34.3527C24.1832 35.0725 23.5448 35.0041 22.193 35.079C21.0496 35.3103 19.9031 35.5253 18.7044 35.7077C17.1832 36.0986 15.6816 35.8152 14.1246 35.6719C13.2614 35.5351 12.3558 35.7305 11.4796 35.4145C9.44703 35.0237 7.60338 32.8217 6.79557 31.382C5.97472 29.3168 5.0985 27.1116 5.10827 24.8086L5.10175 24.8054ZM36.0659 20.0464C36.3298 18.9291 36.0822 17.7304 35.991 16.548C36.0496 14.3623 34.6294 11.6164 33.6262 10.4991C32.9291 9.89652 32.3721 9.09195 31.5415 8.60661C29.9617 7.76296 28.9063 6.80204 27.1962 6.39487C26.5838 6.27435 25.9454 6.06262 25.2874 5.92256C24.0724 5.52842 22.6881 5.66197 21.3819 5.59682C20.991 5.68803 20.7011 5.25806 20.3395 5.4079C19.1408 5.63265 17.9487 6.20595 16.8151 6.74666C16.6913 6.75318 16.5838 6.87696 16.434 6.98771C16.0529 7.08869 15.5513 7.35253 15.2679 7.59683C12.6848 9.05286 9.92586 12.2613 9.04638 14.4861C6.96495 17.2516 6.10827 21.6914 5.97798 24.3037C6.45355 31.724 9.64247 33.3168 10.7369 34.1572C11.7597 34.5742 13.0366 34.4243 14.1962 34.5644C17.421 35.0269 17.8868 34.7305 20.1669 34.3461C22.8021 33.9129 23.548 33.8022 25.3819 33.3168C28.5024 31.8868 29.0171 31.7403 31.3819 29.9194C31.5219 29.7337 31.7597 29.6262 31.9128 29.3982C32.004 29.3885 32.1083 29.2484 32.1734 29.1376C32.8607 28.61 33.4112 27.7956 33.8281 27.0139C35.1604 24.6099 35.7597 22.6555 35.9943 20.1246C36.0171 20.1018 36.0366 20.079 36.0594 20.0529L36.0659 20.0464ZM15.8151 35.6914C15.8151 35.6914 15.8119 35.6686 15.7858 35.6849C15.7923 35.6849 15.7858 35.711 15.8151 35.6914Z" fill="#502314"/>
<path d="M23.0315 6.78185C24.9077 6.86329 25.1227 7.40075 25.9859 7.51801C27.6113 8.19554 29.4419 8.85352 30.709 10.2346C33.2334 11.9089 34.3475 15.0392 34.2172 17.9806C34.0901 20.2282 34.0445 22.5897 33.0641 24.7103C32.2334 27.1272 31.0641 29.466 28.8686 30.922C27.468 32.2087 25.4354 32.4693 23.6015 32.8536C21.0543 33.4237 20.1683 33.5865 17.9435 33.2803C15.8719 33.1696 14.0673 32.9318 12.266 31.8862C9.54941 30.8927 9.10967 28.5214 8.82954 26.0132C8.81651 25.606 8.80999 25.1402 8.76113 24.7103C8.7253 24.6582 8.79045 24.593 8.74159 24.5409C8.62758 21.2379 9.88491 16.6874 11.0804 14.3454C11.9794 12.8894 13.0282 11.5311 14.253 10.3096C15.4517 9.36493 16.481 8.28349 17.9338 7.65156C21.2269 6.8926 20.0706 6.67762 23.0315 6.77859V6.78185ZM13.0445 13.2151C12.5299 14.3161 11.8067 15.3845 11.2628 16.5311C10.038 20.606 8.79371 26.1728 11.0478 29.7103C11.6927 30.8797 13.5396 31.2771 14.494 31.6256C18.0413 32.8341 21.9338 32.3911 25.4777 31.2771C26.5201 30.9285 27.6341 30.5474 28.5201 29.7722C30.0608 28.1826 31.4093 26.3422 31.9468 24.1793C32.7937 21.7493 33.3898 17.8373 32.7839 15.4464C32.797 14.5669 31.3116 12.0197 30.911 11.7232C30.0771 10.9806 29.1129 10.2574 28.1455 9.65157C27.1292 9.05222 23.8882 7.81769 23.5462 7.83072C22.6699 7.78511 21.6667 7.65808 20.7839 7.93169C20.354 7.98381 19.8263 7.93821 19.4028 8.18902C19.2237 8.20531 19.0445 8.27697 18.8817 8.40075C17.494 8.70694 17.2302 8.97404 16.0706 10.075C15.8523 10.2021 15.5885 10.378 15.4191 10.6125C15.279 10.6125 15.2465 10.8112 15.0901 10.8763C14.7123 11.0555 14.5103 11.5408 14.1716 11.8112C14.165 11.8307 14.1618 11.8503 14.1585 11.8698C13.9566 12.062 13.7774 12.3421 13.5852 12.6223C13.4159 12.733 13.3572 12.9415 13.1683 13.0848C13.1683 13.163 13.152 13.2249 13.0543 13.2249L13.0445 13.2151Z" fill="#502314"/>
<path d="M31.1904 21.9356C30.6073 23.7466 29.2653 25.9551 28.2816 26.9844C26.0959 29.0072 23.4803 30.7955 20.4021 30.8998C17.3467 31.4177 14.9493 30.5643 12.9135 28.6945C12.0568 27.4372 11.3825 26.131 11.249 25.1603C11.2164 22.6619 11.464 23.0984 11.718 21.5805C11.7506 20.5382 12.2164 19.6294 12.4607 18.5903C12.5975 17.6196 13.1741 16.8769 13.4575 15.9225C13.8646 14.3622 15.047 13.17 16.0926 11.9485C18.7246 9.11139 22.2522 8.98761 25.4379 9.92573C32.3337 10.8508 32.6171 16.3981 31.1871 21.9356H31.1904ZM13.477 19.1375C12.8711 21.2841 12.1806 23.6229 12.5878 25.9095C13.2685 27.8053 14.9233 29.1734 16.8158 29.7727C17.9591 30.0561 19.1708 29.9063 20.3597 29.7108C23.1448 29.6001 25.2392 28.0659 27.161 26.2939C28.7636 24.6163 30.135 21.9486 30.2588 20.2483C30.5454 19.4111 30.9037 16.6196 30.6236 15.9453C30.4379 15.2091 30.1741 14.473 29.9591 13.6912C28.92 11.7433 27.1415 11.3492 25.3891 11.0137C24.034 10.5316 22.6203 10.6489 21.1741 10.5316C19.793 10.4534 18.9461 11.1407 17.9167 11.8215C16.9298 12.6326 16.0242 13.6684 15.275 14.7759C15.161 14.8801 15.0568 15.03 15.0177 15.2189C14.7571 15.4795 14.6268 15.9779 14.4705 16.3394C14.236 17.271 13.6985 18.1635 13.4737 19.1408L13.477 19.1375Z" fill="#502314"/>
<path d="M21.1174 19.6061C21.2346 18.8406 21.4333 17.9709 21.6483 17.1956C22.1499 15.2868 22.5897 12.9057 24.5929 11.935C25.3584 11.6907 27.2314 12.0458 27.8763 12.3683C28.4301 12.8015 29.0066 13.2771 29.404 13.9122C29.7493 14.378 30.0001 14.9057 30.2672 15.466C30.7688 18.2022 29.8796 21.0816 28.417 23.4432C25.6646 27.5996 22.1337 29.4139 20.6939 25.984C20.2509 24.0002 20.5473 21.8699 21.0262 19.9057C21.0848 19.8178 21.0327 19.7136 21.1174 19.6061ZM25.7167 25.0035C28.3128 22.5409 29.9675 17.5344 29.0392 15.5214C28.72 14.3064 27.7428 12.8959 26.3812 13.0425C25.0099 12.5604 24.0522 13.2738 23.4236 14.5344C22.3877 17.3748 18.5766 31.0394 25.4887 25.2543C25.5473 25.1631 25.6744 25.1598 25.7167 25.0035Z" fill="#502314"/>
<path d="M20.9733 17.101C20.589 17.9805 20.7779 19.0359 20.5564 20.0164C20.4554 21.8698 20.2144 23.6223 20.1199 25.4757C19.7844 27.3193 20.0352 28.7265 17.4619 28.3259C13.9733 27.5115 13.2828 24.1793 13.8789 21.1076C14.5727 17.6646 16.1069 13.746 19.2209 12.2541C19.8886 11.873 21.5955 11.2769 21.9994 11.8632C22.3675 12.7492 20.7518 16.4268 20.9701 17.101H20.9733ZM19.1297 25.3877C19.3675 22.3258 19.6443 19.2346 20.1981 16.1532C21.0483 12.9382 21.7127 12.2053 19.4652 13.404C16.9408 15.0229 16.0124 17.6515 15.2437 20.2151C13.0255 27.4333 19.1069 28.5506 18.9636 26.4203C19.1329 26.2281 19.0548 25.8796 19.0841 25.6027C19.0515 25.5213 19.0841 25.4529 19.1362 25.391L19.1297 25.3877Z" fill="#502314"/>
<path d="M22.9046 20.6196C23.4584 18.3883 23.8818 15.8052 25.0707 14.6716C28.1229 13.3101 28.5919 17.5707 28.3639 18.727C27.8818 20.613 26.3834 23.1603 25.7255 23.7792C25.1424 24.5903 23.3932 25.1831 22.8525 23.9779C22.4062 22.8834 22.9958 21.7531 22.9046 20.6196ZM23.8362 23.5381C24.0154 23.7271 24.7646 23.3134 24.8916 23.0886C26.1587 21.4958 27.8264 18.5251 27.1522 16.5609C26.9567 15.5511 26.2857 15.1277 25.39 15.7824C25.0154 16.4013 24.8492 17.0625 24.6147 17.7466C24.1717 19.473 23.4909 22.7368 23.8362 23.5349V23.5381Z" fill="#502314"/>
<path d="M17.6312 16.5352C19.5172 15.1801 18.5759 18.3756 18.8625 20.8218C18.755 29.2714 14.5694 26.6167 15.6964 21.6134C16.0677 19.8544 16.413 17.9586 17.6312 16.5352ZM18.0058 18.0922C17.0123 19.0955 16.9374 20.6655 16.6866 22.0303C16.5563 22.7795 16.1036 24.5906 16.9179 25.102C18.058 24.5906 18.1589 19.3821 18.0026 18.5678C18.0482 18.4635 18.0254 18.3137 18.0058 18.0922Z" fill="#502314"/>
<path d="M24.5104 20.6124C24.4746 19.8339 24.8134 19.1043 25.1912 18.3974C25.3378 18.1303 25.227 17.7622 25.5691 17.6222C27.2368 16.9251 26.4746 19.785 25.9208 20.4593C25.6277 20.9349 24.4844 21.746 24.5104 20.6157V20.6124Z" fill="#502314"/>
</g>
<defs>
<clipPath id="clip0_735_24588">
<rect width="44" height="41.7917" fill="white" transform="translate(0 0.104126)"/>
</clipPath>
</defs>
</svg>
